<svg width="103" height="48" viewBox="0 0 103 48" fill="none" xmlns="http://www.w3.org/2000/svg">
<path d="M8.928 18.384C3.48 18.384 0.72 14.592 0.72 9.48C0.72 4.224 3.624 0.456 9.048 0.456C13.728 0.456 16.224 3.24 16.632 7.224H12.216C11.904 5.352 11.136 3.984 8.856 3.984C6 3.984 5.136 6.192 5.136 9.408C5.136 12.648 6 14.856 8.856 14.856C11.16 14.856 11.928 13.488 12.216 11.568H16.632C16.248 15.504 13.656 18.384 8.928 18.384ZM18.5963 18V0.839999H23.8763L27.4043 11.784H27.4523L30.9803 0.839999H36.2603V18H32.1803V7.32H32.1323L28.9403 18H25.9163L22.7243 7.32H22.6763V18H18.5963ZM46.9269 18.384C41.4789 18.384 38.4309 14.592 38.4309 9.408C38.4309 4.248 41.4789 0.456 46.9269 0.456C52.3269 0.456 55.4229 4.248 55.4229 9.408C55.4229 14.592 52.3269 18.384 46.9269 18.384ZM42.8469 9.408C42.8469 12.408 43.7829 14.856 46.9269 14.856C50.0469 14.856 51.0069 12.408 51.0069 9.408C51.0069 6.432 50.0469 3.984 46.9269 3.984C43.7829 3.984 42.8469 6.432 42.8469 9.408ZM60.6645 18V4.368H55.6725V0.839999H69.9525V4.368H64.9845V18H60.6645ZM71.7525 18V0.839999H80.0805C83.6565 0.839999 85.8885 2.712 85.8885 6.312C85.8885 9.912 83.6565 11.784 80.0805 11.784H76.0725V18H71.7525ZM76.0725 8.256H79.0725C80.5605 8.256 81.4725 7.752 81.4725 6.312C81.4725 4.872 80.5605 4.368 79.0725 4.368H76.0725V8.256ZM87.7134 18V0.839999H92.0334V11.496H92.0814L98.6334 0.839999H102.953V18H98.6334V7.344H98.5854L92.0334 18H87.7134ZM1.44 47V29.84H9.768C13.344 29.84 15.216 31.232 15.216 34.16C15.216 36.272 13.968 37.328 12.552 37.808V37.856C14.352 38.168 15.888 39.368 15.888 41.936C15.888 45.584 13.56 47 10.008 47H1.44ZM5.76 43.472H8.76C10.56 43.472 11.472 43.04 11.472 41.432C11.472 39.824 10.56 39.416 8.76 39.416H5.76V43.472ZM5.76 36.776H8.64C9.84 36.776 10.8 36.488 10.8 35.072C10.8 33.656 9.84 33.368 8.64 33.368H5.76V36.776ZM30.3566 47.384C24.9086 47.384 21.8606 43.592 21.8606 38.408C21.8606 33.248 24.9086 29.456 30.3566 29.456C35.7566 29.456 38.8526 33.248 38.8526 38.408C38.8526 43.592 35.7566 47.384 30.3566 47.384ZM26.2766 38.408C26.2766 41.408 27.2126 43.856 30.3566 43.856C33.4766 43.856 34.4366 41.408 34.4366 38.408C34.4366 35.432 33.4766 32.984 30.3566 32.984C27.2126 32.984 26.2766 35.432 26.2766 38.408ZM41.0025 47V29.84H52.6665V33.368H45.3225V35.864H48.1785C52.2585 35.864 54.4425 38.048 54.4425 41.312C54.4425 44.888 52.1625 47 47.9385 47H41.0025ZM45.3225 43.472H47.8185C49.2585 43.472 50.0265 42.728 50.0265 41.312C50.0265 40.232 49.3545 39.392 48.0345 39.392H45.3225V43.472ZM54.3956 47L60.9236 29.84H65.2676L71.8436 47H67.1156L66.0116 43.424H60.1316L59.0276 47H54.3956ZM61.1156 40.136H65.0516L63.1076 33.8H63.0596L61.1156 40.136Z" fill="#01FB29"/>
</svg>
