<svg width="495" height="350" viewBox="0 0 495 350" fill="none" xmlns="http://www.w3.org/2000/svg">
<g clip-path="url(#clip0_1533_4612)">
<rect width="247.059" height="350" fill="#B8F855"/>
<path d="M123.53 154.113L88.3353 129.55L112.249 93.9772L70.5263 83.7421L79.9291 41.9628L37.3136 47.4377L30.9357 5.09497L-6.81741 25.5405L-28.1146 -11.6471L-55.9065 21.0077L-89.2466 -6.00231L-103.324 34.4516L-144.204 21.267L-142.666 64.0565L-185.565 66.4779L-168.618 105.824L-207.743 123.524L-177.677 154.113L-207.743 184.702L-168.618 202.403L-185.565 241.749L-142.666 244.17L-144.204 286.96L-103.324 273.775L-89.2466 314.229L-55.9064 287.219L-28.1146 319.874L-6.8174 282.686L30.9357 303.132L37.3136 260.789L79.9292 266.264L70.5263 224.485L112.249 214.249L88.3353 178.676L123.53 154.113Z" fill="#FACAED"/>
<path d="M26.8237 340.823C20.1473 340.823 16.7649 336.176 16.7649 329.911C16.7649 323.47 20.3237 318.853 26.9708 318.853C32.7061 318.853 35.7649 322.264 36.2649 327.147H30.8532C30.4708 324.853 29.5296 323.176 26.7355 323.176C23.2355 323.176 22.1767 325.882 22.1767 329.823C22.1767 333.794 23.2355 336.5 26.7355 336.5C29.559 336.5 30.5002 334.823 30.8532 332.47H36.2649C35.7943 337.294 32.6179 340.823 26.8237 340.823ZM48.2015 340.823C41.525 340.823 37.7897 336.176 37.7897 329.823C37.7897 323.5 41.525 318.853 48.2015 318.853C54.8192 318.853 58.6133 323.5 58.6133 329.823C58.6133 336.176 54.8192 340.823 48.2015 340.823ZM43.2015 329.823C43.2015 333.5 44.3486 336.5 48.2015 336.5C52.025 336.5 53.2015 333.5 53.2015 329.823C53.2015 326.176 52.025 323.176 48.2015 323.176C44.3486 323.176 43.2015 326.176 43.2015 329.823ZM59.114 344.176V336.058H60.6434C62.3198 336.058 62.761 334.558 62.9669 330.764L63.5551 319.323H78.5551V336.058H80.761V344.176H76.0551V340.382H63.8198V344.176H59.114ZM66.4669 336.058H73.261V323.647H68.261L67.6728 331.97C67.5257 334.029 67.1434 335.176 66.4669 336V336.058ZM83.3067 340.353V319.323H99.2479V323.647H88.6009V327.382H97.7773V331.705H88.6009V336.029H99.4244V340.353H83.3067ZM102.177 340.353V319.323H112.383C116.766 319.323 119.501 321.617 119.501 326.029C119.501 330.441 116.766 332.735 112.383 332.735H107.471V340.353H102.177ZM107.471 328.411H111.148C112.971 328.411 114.089 327.794 114.089 326.029C114.089 324.264 112.971 323.647 111.148 323.647H107.471V328.411ZM118.504 340.353L125.151 329.823L118.857 319.323H124.357L129.239 328.058H130.739V319.323H136.033V328.058H137.533L142.415 319.323H147.915L141.621 329.823L148.268 340.353H142.298L137.533 332.382H136.033V340.353H130.739V332.382H129.239L124.474 340.353H118.504ZM147.945 340.353L155.945 319.323H161.268L169.327 340.353H163.533L162.18 335.97H154.974L153.621 340.353H147.945ZM156.18 331.941H161.004L158.621 324.176H158.562L156.18 331.941ZM170.91 340.353V319.323H176.204V327.558H183.41V319.323H188.704V340.353H183.41V331.882L176.204 331.882V340.353H170.91ZM192.222 340.353V319.323L197.516 319.323V332.382H197.575L205.605 319.323H210.899V340.353H205.605V327.294H205.546L197.516 340.353H192.222ZM214.425 340.353V319.323H230.366V323.647H219.719V327.382H228.895V331.705H219.719V336.029H230.542V340.353H214.425Z" fill="#232422"/>
</g>
<rect width="247.059" height="350" transform="translate(247.059)" fill="#EBEBEB"/>
<path d="M268.437 81.5146C264.477 81.5146 262.444 79.524 262.338 76.644H265.811C265.917 77.7028 266.7 78.6134 268.225 78.6134C269.58 78.6134 270.448 77.7875 270.448 76.1781C270.448 74.6323 269.707 73.7217 268.161 73.7217C267.378 73.7217 266.531 74.0393 265.938 74.7805H262.55L264.244 66.5428H273.498V69.444H266.7L266.15 72.2393V72.2817C266.954 71.6464 267.95 71.244 269.284 71.244C272.185 71.244 274.133 73.0864 274.133 76.2205C274.133 79.7358 271.677 81.5146 268.437 81.5146ZM275.704 77.2793V74.3781H281.464V77.2793H275.704ZM284.676 71.3499C284.105 71.7946 282.876 71.964 281.585 71.964V69.1475C283.639 69.1475 285.312 68.3428 285.312 66.5428H288.276V81.1758H284.676V71.3499ZM296.907 81.1758V78.084H290.279V74.5475L296.907 66.5428H300.507V75.1828H302.667V78.084H300.507V81.1758H296.907ZM292.926 75.1828H296.907V70.4605L292.926 75.1828Z" fill="#F78FDC"/>
<path d="M341.01 81.9424H340.04V75.6336H342.669C343.86 75.6336 344.734 76.1894 344.734 77.513C344.734 78.8365 343.86 79.3836 342.669 79.3836H341.01V81.9424ZM341.01 78.5453H342.625C343.357 78.5453 343.728 78.2189 343.728 77.513C343.728 76.7983 343.357 76.4718 342.625 76.4718H341.01V78.5453ZM345.392 81.9424H344.369L346.716 75.6336H347.766L350.13 81.9424H349.071L348.551 80.4247H345.913L345.392 81.9424ZM347.227 76.5336L346.204 79.6041H348.277L347.245 76.5336H347.227ZM352.694 82.0747C351.114 82.0747 350.258 81.4218 350.258 80.1865H351.273C351.291 80.91 351.776 81.2277 352.658 81.2277C353.435 81.2277 353.964 80.8041 353.964 80.1424C353.964 79.5247 353.514 79.163 352.791 79.163H352.041V78.3777H352.755C353.435 78.3777 353.77 77.963 353.77 77.3541C353.77 76.7718 353.276 76.3747 352.579 76.3747C351.794 76.3747 351.344 76.7806 351.344 77.363H350.329C350.347 76.2689 351.176 75.5365 352.579 75.5365C353.885 75.5365 354.785 76.2071 354.785 77.2924C354.785 77.9453 354.414 78.4924 353.779 78.7483V78.7659C354.476 78.96 354.979 79.4541 354.979 80.1777C354.979 81.2806 354.035 82.0747 352.694 82.0747ZM356.186 83.0894H355.277V81.113H355.736C356.239 81.113 356.38 80.663 356.433 79.5247L356.61 75.6336H360.43V81.113H361.163V83.0894H360.263V81.9512H356.186V83.0894ZM357.007 81.0953V81.113H359.46V76.4718H357.545L357.368 79.8865C357.342 80.5041 357.21 80.8483 357.007 81.0953ZM366.574 81.9424H362.021V75.6336H366.486V76.4718H362.991V78.263H366.053V79.1012H362.991V81.1041H366.574V81.9424ZM367.519 82.0747C367.307 82.0747 367.007 82.0394 366.875 81.9689V81.1306C366.999 81.1747 367.193 81.2189 367.369 81.2189C367.81 81.2189 368.057 81.0159 368.084 80.2747L368.278 75.6336H372.134V81.9424H371.163V76.4718H369.204L369.019 80.2571C368.957 81.66 368.384 82.0747 367.519 82.0747ZM375.998 81.9424V77.4159C375.733 77.663 375.266 77.7071 374.719 77.7071V76.9306C375.795 76.9041 376.113 76.5777 376.192 75.8453H376.951V81.9424H375.998ZM383.523 79.6571L379.923 81.1571V80.3365L382.808 79.2071V79.1894L379.923 78.06V77.2394L383.523 78.7483V79.6571ZM389.036 82.0659C387.245 82.0659 386.089 80.6894 386.089 78.7924C386.089 76.8865 387.253 75.51 389.045 75.51C390.624 75.51 391.603 76.5159 391.753 77.7777H390.739C390.624 77.16 390.236 76.3483 389.027 76.3483C387.633 76.3483 387.103 77.5306 387.103 78.7836C387.103 80.0453 387.633 81.2277 389.027 81.2277C390.245 81.2277 390.677 80.4159 390.739 79.6483H391.753C391.612 81.0512 390.624 82.0659 389.036 82.0659ZM394.867 81.9424H393.887V76.4718H391.849V75.6336H396.905V76.4718H394.867V81.9424ZM398.63 81.9424H397.66V75.6336H400.289C401.48 75.6336 402.354 76.1894 402.354 77.513C402.354 78.8365 401.48 79.3836 400.289 79.3836H398.63V81.9424ZM398.63 78.5453H400.245C400.977 78.5453 401.348 78.2189 401.348 77.513C401.348 76.7983 400.977 76.4718 400.245 76.4718H398.63V78.5453ZM405.919 82.0659C404.031 82.0659 402.822 80.6806 402.822 78.7836C402.822 76.8865 404.031 75.51 405.919 75.51C407.808 75.51 409.017 76.8865 409.017 78.7836C409.017 80.6806 407.808 82.0659 405.919 82.0659ZM405.919 81.2277C407.411 81.2277 408.002 80.0806 408.002 78.7836C408.002 77.4865 407.411 76.3483 405.919 76.3483C404.428 76.3483 403.837 77.4865 403.837 78.7836C403.837 80.0806 404.428 81.2277 405.919 81.2277ZM414.517 81.9424H409.964V75.6336H414.429V76.4718H410.935V78.263H413.997V79.1012H410.935V81.1041H414.517V81.9424ZM416.398 81.9424H415.427V75.6336H416.398V78.2718H419.495V75.6336H420.474V81.9424H419.495V79.11H416.398V81.9424ZM422.688 81.9424H421.718V75.6336H422.688V80.46H422.706L425.979 75.6336H426.959V81.9424H425.979V77.1247H425.962L422.688 81.9424ZM432.767 81.9424H428.215V75.6336H432.679V76.4718H429.185V78.263H432.247V79.1012H429.185V81.1041H432.767V81.9424Z" fill="#232422"/>
<path d="M341.01 110.173H340.04V103.864H342.669C343.86 103.864 344.734 104.42 344.734 105.743C344.734 107.067 343.86 107.614 342.669 107.614H341.01V110.173ZM341.01 106.776H342.625C343.357 106.776 343.728 106.449 343.728 105.743C343.728 105.029 343.357 104.702 342.625 104.702H341.01V106.776ZM345.392 110.173H344.369L346.716 103.864H347.766L350.13 110.173H349.071L348.551 108.655H345.913L345.392 110.173ZM347.227 104.764L346.204 107.835H348.277L347.245 104.764H347.227ZM352.694 110.305C351.114 110.305 350.258 109.652 350.258 108.417H351.273C351.291 109.14 351.776 109.458 352.658 109.458C353.435 109.458 353.964 109.035 353.964 108.373C353.964 107.755 353.514 107.393 352.791 107.393H352.041V106.608H352.755C353.435 106.608 353.77 106.193 353.77 105.585C353.77 105.002 353.276 104.605 352.579 104.605C351.794 104.605 351.344 105.011 351.344 105.593H350.329C350.347 104.499 351.176 103.767 352.579 103.767C353.885 103.767 354.785 104.438 354.785 105.523C354.785 106.176 354.414 106.723 353.779 106.979V106.996C354.476 107.19 354.979 107.685 354.979 108.408C354.979 109.511 354.035 110.305 352.694 110.305ZM356.186 111.32H355.277V109.343H355.736C356.239 109.343 356.38 108.893 356.433 107.755L356.61 103.864H360.43V109.343H361.163V111.32H360.263V110.182H356.186V111.32ZM357.007 109.326V109.343H359.46V104.702H357.545L357.368 108.117C357.342 108.735 357.21 109.079 357.007 109.326ZM366.574 110.173H362.021V103.864H366.486V104.702H362.991V106.493H366.053V107.332H362.991V109.335H366.574V110.173ZM367.519 110.305C367.307 110.305 367.007 110.27 366.875 110.199V109.361C366.999 109.405 367.193 109.449 367.369 109.449C367.81 109.449 368.057 109.246 368.084 108.505L368.278 103.864H372.134V110.173H371.163V104.702H369.204L369.019 108.488C368.957 109.89 368.384 110.305 367.519 110.305ZM379.183 110.173H374.851C374.851 109.026 375.548 108.232 376.713 107.508C377.745 106.882 378.266 106.626 378.266 105.814C378.266 105.311 378.063 104.773 377.233 104.773C376.28 104.773 375.98 105.39 375.98 106.229H375.01C375.01 104.932 375.716 103.952 377.26 103.952C378.363 103.952 379.254 104.614 379.254 105.779C379.254 106.961 378.292 107.57 377.419 108.108C376.819 108.461 376.254 108.796 376.077 109.335V109.352H379.183V110.173ZM385.539 107.888L381.939 109.388V108.567L384.824 107.438V107.42L381.939 106.29V105.47L385.539 106.979V107.888ZM393.964 111.32H393.055V110.182H388.414V103.873H389.384V109.335H392.261V103.873H393.232V109.335H393.964V111.32ZM397.631 110.173H394.816V103.864H397.472C398.769 103.864 399.528 104.446 399.528 105.452C399.528 106.229 399.069 106.59 398.548 106.767V106.785C399.21 106.899 399.775 107.385 399.775 108.329C399.775 109.538 398.937 110.173 397.631 110.173ZM395.787 106.485H397.446C398.24 106.485 398.513 106.158 398.513 105.593C398.513 105.038 398.178 104.702 397.516 104.702H395.787V106.485ZM395.787 109.335H397.56C398.496 109.335 398.76 108.885 398.76 108.293C398.76 107.632 398.354 107.252 397.693 107.252H395.787V109.335ZM405.254 110.173H400.701V103.864H405.166V104.702H401.672V106.493H404.734V107.332H401.672V109.335H405.254V110.173ZM408.576 110.173H407.596V104.702H405.558V103.864H410.614V104.702H408.576V110.173ZM413.761 110.296C411.872 110.296 410.664 108.911 410.664 107.014C410.664 105.117 411.872 103.74 413.761 103.74C415.649 103.74 416.858 105.117 416.858 107.014C416.858 108.911 415.649 110.296 413.761 110.296ZM413.761 109.458C415.252 109.458 415.843 108.311 415.843 107.014C415.843 105.717 415.252 104.579 413.761 104.579C412.27 104.579 411.678 105.717 411.678 107.014C411.678 108.311 412.27 109.458 413.761 109.458ZM418.776 110.173H417.806V103.864H422.694V110.173H421.714V104.702H418.776V110.173ZM428.502 110.173H423.949V103.864H428.414V104.702H424.92V106.493H427.982V107.332H424.92V109.335H428.502V110.173ZM430.383 110.173H429.412V103.864H432.042C433.233 103.864 434.106 104.42 434.106 105.743C434.106 107.067 433.233 107.614 432.042 107.614H430.383V110.173ZM430.383 106.776H431.998C432.73 106.776 433.101 106.449 433.101 105.743C433.101 105.029 432.73 104.702 431.998 104.702H430.383V106.776ZM439.471 110.173H434.918V103.864H439.383V104.702H435.889V106.493H438.951V107.332H435.889V109.335H439.471V110.173ZM440.699 111.32H439.79V109.343H440.249C440.752 109.343 440.893 108.893 440.946 107.755L441.123 103.864H444.943V109.343H445.675V111.32H444.775V110.182H440.699V111.32ZM441.52 109.326V109.343H443.973V104.702H442.058L441.881 108.117C441.855 108.735 441.723 109.079 441.52 109.326ZM446.966 110.173H445.943L448.29 103.864H449.34L451.704 110.173H450.645L450.125 108.655H447.487L446.966 110.173ZM448.801 104.764L447.778 107.835H449.851L448.819 104.764H448.801ZM455.998 110.173H455.027V107.438H455.01C454.666 107.861 454.083 108.214 453.43 108.214C452.336 108.214 451.586 107.499 451.586 106.255V103.864H452.557V106.193C452.557 106.952 452.989 107.367 453.721 107.367C454.33 107.367 454.639 107.12 455.027 106.679V103.864H455.998V110.173ZM457.685 110.173H456.662L459.009 103.864H460.059L462.424 110.173H461.365L460.844 108.655H458.206L457.685 110.173ZM459.521 104.764L458.497 107.835H460.571L459.538 104.764H459.521Z" fill="#232422"/>
<path d="M265.154 100.173C264.583 100.618 263.354 100.787 262.063 100.787V97.9708C264.117 97.9708 265.79 97.1661 265.79 95.3661H268.754V109.999H265.154V100.173ZM276.771 110.338C272.811 110.338 270.778 108.347 270.672 105.467H274.145C274.251 106.526 275.034 107.437 276.559 107.437C277.914 107.437 278.783 106.611 278.783 105.001C278.783 103.455 278.041 102.545 276.496 102.545C275.712 102.545 274.865 102.863 274.272 103.604H270.884L272.578 95.3661H281.832V98.2673H275.034L274.484 101.063V101.105C275.288 100.47 276.284 100.067 277.618 100.067C280.519 100.067 282.467 101.91 282.467 105.044C282.467 108.559 280.011 110.338 276.771 110.338ZM284.038 106.103V103.201H289.798V106.103H284.038ZM290.586 109.999C290.586 106.907 292.238 105.594 295.415 103.223C297.003 102.037 298.168 101.063 298.168 99.7284C298.168 98.6061 297.617 97.9284 296.474 97.9284C295.097 97.9284 294.271 98.6908 294.271 100.703H290.798C290.798 97.272 292.619 95.0273 296.579 95.0273C299.735 95.0273 301.852 96.679 301.852 99.4743C301.852 102.333 299.481 104.112 297.469 105.573C296.77 106.081 296.135 106.568 295.648 107.055V107.098H301.852V109.999H290.586ZM303.305 109.999C303.305 106.907 304.957 105.594 308.133 103.223C309.721 102.037 310.886 101.063 310.886 99.7284C310.886 98.6061 310.335 97.9284 309.192 97.9284C307.815 97.9284 306.989 98.6908 306.989 100.703H303.517C303.517 97.272 305.338 95.0273 309.298 95.0273C312.453 95.0273 314.571 96.679 314.571 99.4743C314.571 102.333 312.199 104.112 310.187 105.573C309.488 106.081 308.853 106.568 308.366 107.055V107.098H314.571V109.999H303.305Z" fill="#F78FDC"/>
<path d="M341.01 138.404H340.04V132.095H342.669C343.86 132.095 344.734 132.651 344.734 133.975C344.734 135.298 343.86 135.845 342.669 135.845H341.01V138.404ZM341.01 135.007H342.625C343.357 135.007 343.728 134.681 343.728 133.975C343.728 133.26 343.357 132.934 342.625 132.934H341.01V135.007ZM345.392 138.404H344.369L346.716 132.095H347.766L350.13 138.404H349.071L348.551 136.887H345.913L345.392 138.404ZM347.227 132.995L346.204 136.066H348.277L347.245 132.995H347.227ZM352.694 138.537C351.114 138.537 350.258 137.884 350.258 136.648H351.273C351.291 137.372 351.776 137.69 352.658 137.69C353.435 137.69 353.964 137.266 353.964 136.604C353.964 135.987 353.514 135.625 352.791 135.625H352.041V134.84H352.755C353.435 134.84 353.77 134.425 353.77 133.816C353.77 133.234 353.276 132.837 352.579 132.837C351.794 132.837 351.344 133.243 351.344 133.825H350.329C350.347 132.731 351.176 131.998 352.579 131.998C353.885 131.998 354.785 132.669 354.785 133.754C354.785 134.407 354.414 134.954 353.779 135.21V135.228C354.476 135.422 354.979 135.916 354.979 136.64C354.979 137.743 354.035 138.537 352.694 138.537ZM356.186 139.551H355.277V137.575H355.736C356.239 137.575 356.38 137.125 356.433 135.987L356.61 132.095H360.43V137.575H361.163V139.551H360.263V138.413H356.186V139.551ZM357.007 137.557V137.575H359.46V132.934H357.545L357.368 136.348C357.342 136.966 357.21 137.31 357.007 137.557ZM366.574 138.404H362.021V132.095H366.486V132.934H362.991V134.725H366.053V135.563H362.991V137.566H366.574V138.404ZM367.519 138.537C367.307 138.537 367.007 138.501 366.875 138.431V137.593C366.999 137.637 367.193 137.681 367.369 137.681C367.81 137.681 368.057 137.478 368.084 136.737L368.278 132.095H372.134V138.404H371.163V132.934H369.204L369.019 136.719C368.957 138.122 368.384 138.537 367.519 138.537ZM377.339 138.528C375.769 138.528 374.886 137.716 374.886 136.322H375.857C375.857 137.16 376.21 137.707 377.277 137.707C378.239 137.707 378.566 137.319 378.566 136.666C378.566 135.828 377.966 135.625 377.348 135.625H376.774V134.84H377.313C377.921 134.84 378.354 134.566 378.354 133.904C378.354 133.428 378.063 133.004 377.313 133.004C376.28 133.004 376.024 133.551 376.024 134.143H375.054C375.054 133.013 375.821 132.184 377.321 132.184C378.407 132.184 379.342 132.784 379.342 133.86C379.342 134.513 379.007 134.919 378.424 135.166V135.184C379.227 135.44 379.554 135.969 379.554 136.684C379.554 137.866 378.68 138.528 377.339 138.528ZM385.823 136.119L382.223 137.619V136.798L385.109 135.669V135.651L382.223 134.522V133.701L385.823 135.21V136.119ZM391.513 138.404H388.698V132.095H391.354C392.651 132.095 393.41 132.678 393.41 133.684C393.41 134.46 392.951 134.822 392.431 134.998V135.016C393.092 135.131 393.657 135.616 393.657 136.56C393.657 137.769 392.819 138.404 391.513 138.404ZM389.669 134.716H391.328C392.122 134.716 392.395 134.39 392.395 133.825C392.395 133.269 392.06 132.934 391.398 132.934H389.669V134.716ZM389.669 137.566H391.442C392.378 137.566 392.642 137.116 392.642 136.525C392.642 135.863 392.236 135.484 391.575 135.484H389.669V137.566ZM397.372 138.528C395.483 138.528 394.275 137.143 394.275 135.245C394.275 133.348 395.483 131.972 397.372 131.972C399.26 131.972 400.469 133.348 400.469 135.245C400.469 137.143 399.26 138.528 397.372 138.528ZM397.372 137.69C398.863 137.69 399.454 136.543 399.454 135.245C399.454 133.948 398.863 132.81 397.372 132.81C395.881 132.81 395.289 133.948 395.289 135.245C395.289 136.543 395.881 137.69 397.372 137.69ZM404.055 138.528C402.264 138.528 401.108 137.151 401.108 135.254C401.108 133.348 402.272 131.972 404.064 131.972C405.643 131.972 406.622 132.978 406.772 134.24H405.758C405.643 133.622 405.255 132.81 404.046 132.81C402.652 132.81 402.122 133.993 402.122 135.245C402.122 136.507 402.652 137.69 404.046 137.69C405.264 137.69 405.696 136.878 405.758 136.11H406.772C406.631 137.513 405.643 138.528 404.055 138.528ZM408.617 138.404H407.646V132.095H412.535V138.404H411.555V132.934H408.617V138.404ZM414.761 138.404H413.79V132.095H416.42C417.611 132.095 418.484 132.651 418.484 133.975C418.484 135.298 417.611 135.845 416.42 135.845H414.761V138.404ZM414.761 135.007H416.375C417.108 135.007 417.478 134.681 417.478 133.975C417.478 133.26 417.108 132.934 416.375 132.934H414.761V135.007ZM420.267 138.404H419.296V132.095H420.267V136.922H420.284L423.558 132.095H424.537V138.404H423.558V133.587H423.54L420.267 138.404ZM426.473 138.404H425.414V138.351C425.749 138.087 425.396 135.704 426.817 135.431V135.413C426.093 135.245 425.626 134.716 425.626 133.913C425.626 132.775 426.446 132.095 427.823 132.095H430.302V138.404H429.323V135.863H427.831C426.287 135.863 426.72 138.034 426.473 138.404ZM427.946 135.043H429.323V132.934H427.893C426.984 132.934 426.614 133.295 426.614 133.948C426.614 134.672 427.081 135.043 427.946 135.043ZM434.081 138.404H433.102V132.934H431.064V132.095H436.12V132.934H434.081V138.404ZM437.845 138.404H436.874V132.095H437.845V136.922H437.863L441.136 132.095H442.116V138.404H441.136V133.587H441.118L437.845 138.404ZM447.924 138.404H443.371V132.095H447.836V132.934H444.342V134.725H447.404V135.563H444.342V137.566H447.924V138.404Z" fill="#232422"/>
<path d="M262.317 138.231C262.317 135.14 263.968 133.827 267.145 131.455C268.733 130.269 269.898 129.295 269.898 127.961C269.898 126.839 269.347 126.161 268.204 126.161C266.827 126.161 266.001 126.923 266.001 128.935H262.528C262.528 125.504 264.35 123.26 268.31 123.26C271.465 123.26 273.583 124.911 273.583 127.707C273.583 130.566 271.211 132.344 269.199 133.806C268.5 134.314 267.865 134.801 267.378 135.288V135.33H273.583V138.231H262.317ZM281.134 138.57C277.216 138.57 274.971 136.58 274.971 133.064H278.444C278.444 134.759 279.143 135.669 281.007 135.669C282.574 135.669 283.188 135.013 283.188 133.89C283.188 132.493 282.256 131.963 280.583 131.963H279.842V129.486H280.499C281.79 129.486 282.764 128.935 282.764 127.686C282.764 126.711 282.15 126.161 280.964 126.161C279.821 126.161 278.868 126.69 278.868 128.088H275.395C275.395 125.293 277.534 123.26 281.049 123.26C284.014 123.26 286.449 124.7 286.449 127.283C286.449 128.871 285.517 129.867 284.331 130.481V130.523C286.131 131.095 286.873 132.344 286.873 134.039C286.873 137.003 284.628 138.57 281.134 138.57ZM288.463 134.335V131.434H294.223V134.335H288.463ZM301.711 138.57C297.793 138.57 295.548 136.58 295.548 133.064H299.021C299.021 134.759 299.72 135.669 301.584 135.669C303.151 135.669 303.765 135.013 303.765 133.89C303.765 132.493 302.833 131.963 301.16 131.963H300.419V129.486H301.075C302.367 129.486 303.341 128.935 303.341 127.686C303.341 126.711 302.727 126.161 301.541 126.161C300.398 126.161 299.445 126.69 299.445 128.088H295.972C295.972 125.293 298.111 123.26 301.626 123.26C304.591 123.26 307.026 124.7 307.026 127.283C307.026 128.871 306.094 129.867 304.908 130.481V130.523C306.708 131.095 307.449 132.344 307.449 134.039C307.449 137.003 305.205 138.57 301.711 138.57ZM308.744 138.231C308.744 135.14 310.395 133.827 313.572 131.455C315.16 130.269 316.325 129.295 316.325 127.961C316.325 126.839 315.774 126.161 314.631 126.161C313.254 126.161 312.428 126.923 312.428 128.935H308.955C308.955 125.504 310.777 123.26 314.737 123.26C317.892 123.26 320.01 124.911 320.01 127.707C320.01 130.566 317.638 132.344 315.626 133.806C314.927 134.314 314.292 134.801 313.805 135.288V135.33H320.01V138.231H308.744Z" fill="#F78FDC"/>
<path d="M341.01 167.825H340.04V161.516H342.669C343.86 161.516 344.734 162.072 344.734 163.396C344.734 164.719 343.86 165.266 342.669 165.266H341.01V167.825ZM341.01 164.428H342.625C343.357 164.428 343.728 164.102 343.728 163.396C343.728 162.681 343.357 162.355 342.625 162.355H341.01V164.428ZM345.392 167.825H344.369L346.716 161.516H347.766L350.13 167.825H349.071L348.551 166.308H345.913L345.392 167.825ZM347.227 162.416L346.204 165.487H348.277L347.245 162.416H347.227ZM352.694 167.958C351.114 167.958 350.258 167.305 350.258 166.069H351.273C351.291 166.793 351.776 167.11 352.658 167.11C353.435 167.11 353.964 166.687 353.964 166.025C353.964 165.408 353.514 165.046 352.791 165.046H352.041V164.26H352.755C353.435 164.26 353.77 163.846 353.77 163.237C353.77 162.655 353.276 162.258 352.579 162.258C351.794 162.258 351.344 162.663 351.344 163.246H350.329C350.347 162.152 351.176 161.419 352.579 161.419C353.885 161.419 354.785 162.09 354.785 163.175C354.785 163.828 354.414 164.375 353.779 164.631V164.649C354.476 164.843 354.979 165.337 354.979 166.06C354.979 167.163 354.035 167.958 352.694 167.958ZM356.186 168.972H355.277V166.996H355.736C356.239 166.996 356.38 166.546 356.433 165.408L356.61 161.516H360.43V166.996H361.163V168.972H360.263V167.834H356.186V168.972ZM357.007 166.978V166.996H359.46V162.355H357.545L357.368 165.769C357.342 166.387 357.21 166.731 357.007 166.978ZM366.574 167.825H362.021V161.516H366.486V162.355H362.991V164.146H366.053V164.984H362.991V166.987H366.574V167.825ZM367.519 167.958C367.307 167.958 367.007 167.922 366.875 167.852V167.013C366.999 167.058 367.193 167.102 367.369 167.102C367.81 167.102 368.057 166.899 368.084 166.158L368.278 161.516H372.134V167.825H371.163V162.355H369.204L369.019 166.14C368.957 167.543 368.384 167.958 367.519 167.958ZM378.689 167.825H377.736V166.431H374.833V165.549L377.736 161.728H378.689V165.61H379.545V166.431H378.689V167.825ZM377.736 162.955L375.716 165.61H377.736V162.955ZM385.72 165.54L382.12 167.04V166.219L385.005 165.09V165.072L382.12 163.943V163.122L385.72 164.631V165.54ZM390.633 167.958C389.054 167.958 388.198 167.305 388.198 166.069H389.212C389.23 166.793 389.715 167.11 390.598 167.11C391.374 167.11 391.904 166.687 391.904 166.025C391.904 165.408 391.454 165.046 390.73 165.046H389.98V164.26H390.695C391.374 164.26 391.71 163.846 391.71 163.237C391.71 162.655 391.215 162.258 390.518 162.258C389.733 162.258 389.283 162.663 389.283 163.246H388.268C388.286 162.152 389.115 161.419 390.518 161.419C391.824 161.419 392.724 162.09 392.724 163.175C392.724 163.828 392.354 164.375 391.718 164.631V164.649C392.415 164.843 392.918 165.337 392.918 166.06C392.918 167.163 391.974 167.958 390.633 167.958ZM396.648 167.949C394.76 167.949 393.551 166.563 393.551 164.666C393.551 162.769 394.76 161.393 396.648 161.393C398.536 161.393 399.745 162.769 399.745 164.666C399.745 166.563 398.536 167.949 396.648 167.949ZM396.648 167.11C398.139 167.11 398.73 165.963 398.73 164.666C398.73 163.369 398.139 162.231 396.648 162.231C395.157 162.231 394.566 163.369 394.566 164.666C394.566 165.963 395.157 167.11 396.648 167.11ZM401.663 167.825H400.693V161.516H401.663V164.155H404.76V161.516H405.74V167.825H404.76V164.993H401.663V167.825ZM409.101 167.825H406.983V161.516H407.954V163.793H409.189C410.477 163.793 411.289 164.508 411.289 165.778C411.289 167.04 410.442 167.825 409.101 167.825ZM412.948 167.825H411.977V161.516H412.948V167.825ZM407.954 164.631V166.987H409.127C409.833 166.987 410.283 166.519 410.283 165.778C410.283 165.081 409.868 164.631 409.206 164.631H407.954ZM418.862 167.825H416.048V161.516H418.704C420.001 161.516 420.759 162.099 420.759 163.105C420.759 163.881 420.301 164.243 419.78 164.419V164.437C420.442 164.552 421.007 165.037 421.007 165.981C421.007 167.19 420.168 167.825 418.862 167.825ZM417.018 164.137H418.677C419.471 164.137 419.745 163.81 419.745 163.246C419.745 162.69 419.409 162.355 418.748 162.355H417.018V164.137ZM417.018 166.987H418.792C419.727 166.987 419.992 166.537 419.992 165.946C419.992 165.284 419.586 164.905 418.924 164.905H417.018V166.987ZM424.051 167.825H421.933V161.516H422.904V163.793H424.139C425.427 163.793 426.239 164.508 426.239 165.778C426.239 167.04 425.392 167.825 424.051 167.825ZM427.898 167.825H426.927V161.516H427.898V167.825ZM422.904 164.631V166.987H424.077C424.783 166.987 425.233 166.519 425.233 165.778C425.233 165.081 424.818 164.631 424.156 164.631H422.904ZM431.792 167.949C430.001 167.949 428.845 166.572 428.845 164.675C428.845 162.769 430.01 161.393 431.801 161.393C433.38 161.393 434.36 162.399 434.51 163.66H433.495C433.38 163.043 432.992 162.231 431.783 162.231C430.389 162.231 429.86 163.413 429.86 164.666C429.86 165.928 430.389 167.11 431.783 167.11C433.001 167.11 433.433 166.299 433.495 165.531H434.51C434.368 166.934 433.38 167.949 431.792 167.949ZM437.623 167.825H436.643V162.355H434.605V161.516H439.661V162.355H437.623V167.825ZM440.03 167.825H439.006L441.353 161.516H442.403L444.768 167.825H443.709L443.188 166.308H440.55L440.03 167.825ZM441.865 162.416L440.841 165.487H442.915L441.883 162.416H441.865ZM448.237 167.825H445.422V161.516H448.078C449.375 161.516 450.134 162.099 450.134 163.105C450.134 163.881 449.675 164.243 449.155 164.419V164.437C449.816 164.552 450.381 165.037 450.381 165.981C450.381 167.19 449.543 167.825 448.237 167.825ZM446.393 164.137H448.052C448.846 164.137 449.119 163.81 449.119 163.246C449.119 162.69 448.784 162.355 448.122 162.355H446.393V164.137ZM446.393 166.987H448.166C449.102 166.987 449.366 166.537 449.366 165.946C449.366 165.284 448.96 164.905 448.299 164.905H446.393V166.987ZM456.346 161.516L453.787 164.684L456.531 167.825H455.304L453.001 165.178H452.278V167.825H451.307V161.516H452.278V164.331H453.019L455.287 161.516H456.346ZM457.991 167.825H457.02V161.516H457.991V166.343H458.009L461.282 161.516H462.261V167.825H461.282V163.008H461.264L457.991 167.825Z" fill="#232422"/>
<path d="M268.416 167.397C264.498 167.397 262.253 165.407 262.253 161.892H265.726C265.726 163.586 266.425 164.496 268.288 164.496C269.856 164.496 270.47 163.84 270.47 162.717C270.47 161.32 269.538 160.79 267.865 160.79H267.124V158.313H267.78C269.072 158.313 270.046 157.762 270.046 156.513C270.046 155.539 269.432 154.988 268.246 154.988C267.103 154.988 266.15 155.517 266.15 156.915H262.677C262.677 154.12 264.816 152.087 268.331 152.087C271.296 152.087 273.731 153.527 273.731 156.11C273.731 157.699 272.799 158.694 271.613 159.308V159.35C273.413 159.922 274.154 161.172 274.154 162.866C274.154 165.83 271.91 167.397 268.416 167.397ZM281.547 167.397C277.63 167.397 275.385 165.407 275.385 161.892H278.858C278.858 163.586 279.557 164.496 281.42 164.496C282.987 164.496 283.602 163.84 283.602 162.717C283.602 161.32 282.67 160.79 280.997 160.79H280.256V158.313H280.912C282.204 158.313 283.178 157.762 283.178 156.513C283.178 155.539 282.564 154.988 281.378 154.988C280.234 154.988 279.282 155.517 279.282 156.915H275.809C275.809 154.12 277.947 152.087 281.463 152.087C284.427 152.087 286.863 153.527 286.863 156.11C286.863 157.699 285.931 158.694 284.745 159.308V159.35C286.545 159.922 287.286 161.172 287.286 162.866C287.286 165.83 285.042 167.397 281.547 167.397ZM288.877 163.162V160.261H294.637V163.162H288.877ZM302.145 167.397C298.185 167.397 296.152 165.407 296.047 162.527H299.519C299.625 163.586 300.409 164.496 301.934 164.496C303.289 164.496 304.157 163.67 304.157 162.061C304.157 160.515 303.416 159.604 301.87 159.604C301.087 159.604 300.239 159.922 299.647 160.663H296.258L297.952 152.426H307.207V155.327H300.409L299.858 158.122V158.164C300.663 157.529 301.658 157.127 302.992 157.127C305.894 157.127 307.842 158.969 307.842 162.103C307.842 165.619 305.385 167.397 302.145 167.397ZM315.85 167.059V163.967H309.222V160.43L315.85 152.426H319.45V161.066H321.61V163.967H319.45V167.059H315.85ZM311.869 161.066H315.85V156.343L311.869 161.066Z" fill="#F78FDC"/>
<path d="M341.009 196.647H340.039V190.339H342.668C343.859 190.339 344.733 190.895 344.733 192.218C344.733 193.542 343.859 194.089 342.668 194.089H341.009V196.647ZM341.009 193.25H342.624C343.356 193.25 343.727 192.924 343.727 192.218C343.727 191.503 343.356 191.177 342.624 191.177H341.009V193.25ZM345.391 196.647H344.368L346.715 190.339H347.765L350.129 196.647H349.07L348.55 195.13H345.912L345.391 196.647ZM347.226 191.239L346.203 194.309H348.276L347.244 191.239H347.226ZM352.693 196.78C351.113 196.78 350.257 196.127 350.257 194.892H351.272C351.29 195.615 351.775 195.933 352.657 195.933C353.434 195.933 353.963 195.509 353.963 194.847C353.963 194.23 353.513 193.868 352.79 193.868H352.04V193.083H352.754C353.434 193.083 353.769 192.668 353.769 192.059C353.769 191.477 353.275 191.08 352.578 191.08C351.793 191.08 351.343 191.486 351.343 192.068H350.328C350.346 190.974 351.175 190.242 352.578 190.242C353.884 190.242 354.784 190.912 354.784 191.997C354.784 192.65 354.413 193.197 353.778 193.453V193.471C354.475 193.665 354.978 194.159 354.978 194.883C354.978 195.986 354.034 196.78 352.693 196.78ZM356.185 197.795H355.276V195.818H355.735C356.238 195.818 356.379 195.368 356.432 194.23L356.609 190.339H360.429V195.818H361.162V197.795H360.262V196.656H356.185V197.795ZM357.006 195.8V195.818H359.459V191.177H357.544L357.368 194.592C357.341 195.209 357.209 195.553 357.006 195.8ZM366.573 196.647H362.02V190.339H366.485V191.177H362.99V192.968H366.052V193.806H362.99V195.809H366.573V196.647ZM367.518 196.78C367.306 196.78 367.006 196.745 366.874 196.674V195.836C366.998 195.88 367.192 195.924 367.368 195.924C367.809 195.924 368.056 195.721 368.083 194.98L368.277 190.339H372.133V196.647H371.162V191.177H369.203L369.018 194.962C368.956 196.365 368.383 196.78 367.518 196.78ZM377.188 196.771C375.732 196.771 374.938 195.889 374.903 194.865H375.873C375.935 195.421 376.253 195.95 377.135 195.95C377.912 195.95 378.423 195.474 378.423 194.565C378.423 193.709 377.956 193.321 377.197 193.321C376.703 193.321 376.253 193.489 375.962 193.868H374.982L375.635 190.55H379.103V191.371H376.368L376.032 193.056V193.074C376.35 192.747 376.8 192.545 377.453 192.545C378.609 192.545 379.412 193.4 379.412 194.565C379.412 195.915 378.441 196.771 377.188 196.771ZM385.641 194.362L382.041 195.862V195.042L384.927 193.912V193.895L382.041 192.765V191.945L385.641 193.453V194.362ZM389.487 196.647H388.516V190.339H389.487V192.977H392.584V190.339H393.563V196.647H392.584V193.815H389.487V196.647ZM395.239 196.647H394.215L396.562 190.339H397.612L399.977 196.647H398.918L398.398 195.13H395.759L395.239 196.647ZM397.074 191.239L396.051 194.309H398.124L397.092 191.239H397.074ZM403.446 196.647H400.631V190.339H403.287C404.584 190.339 405.343 190.921 405.343 191.927C405.343 192.703 404.884 193.065 404.364 193.242V193.259C405.026 193.374 405.59 193.859 405.59 194.803C405.59 196.012 404.752 196.647 403.446 196.647ZM401.602 192.959H403.261C404.055 192.959 404.328 192.633 404.328 192.068C404.328 191.512 403.993 191.177 403.331 191.177H401.602V192.959ZM401.602 195.809H403.376C404.311 195.809 404.576 195.359 404.576 194.768C404.576 194.106 404.17 193.727 403.508 193.727H401.602V195.809ZM407.487 196.647H406.517V190.339H407.487V195.165H407.505L410.778 190.339H411.758V196.647H410.778V191.83H410.761L407.487 196.647ZM413.984 196.647H413.014V190.339H416.649V191.177H413.984V196.647ZM416.979 196.647H415.955L418.302 190.339H419.352L421.717 196.647H420.658L420.138 195.13H417.499L416.979 196.647ZM418.814 191.239L417.791 194.309H419.864L418.832 191.239H418.814ZM427.921 197.795H427.013V196.656H422.371V190.347H423.342V195.809H426.218V190.347H427.189V195.809H427.921V197.795ZM429.744 196.647H428.774V190.339H429.744V195.165H429.762L433.035 190.339H434.015V196.647H433.035V191.83H433.018L429.744 196.647ZM435.95 196.647H434.891V196.595C435.227 196.33 434.874 193.947 436.294 193.674V193.656C435.571 193.489 435.103 192.959 435.103 192.156C435.103 191.018 435.924 190.339 437.3 190.339H439.779V196.647H438.8V194.106H437.309C435.765 194.106 436.197 196.277 435.95 196.647ZM437.424 193.286H438.8V191.177H437.371C436.462 191.177 436.091 191.539 436.091 192.192C436.091 192.915 436.559 193.286 437.424 193.286Z" fill="#232422"/>
<path d="M268.435 196.22C264.475 196.22 262.442 194.229 262.336 191.349H265.809C265.915 192.408 266.698 193.319 268.223 193.319C269.578 193.319 270.447 192.493 270.447 190.883C270.447 189.337 269.705 188.427 268.159 188.427C267.376 188.427 266.529 188.744 265.936 189.486H262.548L264.242 181.248H273.496V184.149H266.698L266.148 186.944V186.987C266.952 186.351 267.948 185.949 269.282 185.949C272.183 185.949 274.131 187.791 274.131 190.926C274.131 194.441 271.675 196.22 268.435 196.22ZM281.525 196.22C277.565 196.22 275.532 194.229 275.426 191.349H278.899C279.005 192.408 279.789 193.319 281.314 193.319C282.669 193.319 283.537 192.493 283.537 190.883C283.537 189.337 282.796 188.427 281.25 188.427C280.466 188.427 279.619 188.744 279.026 189.486H275.638L277.332 181.248H286.586V184.149H279.789L279.238 186.944V186.987C280.043 186.351 281.038 185.949 282.372 185.949C285.274 185.949 287.222 187.791 287.222 190.926C287.222 194.441 284.765 196.22 281.525 196.22ZM288.792 191.984V189.083H294.552V191.984H288.792ZM302.569 196.22C297.741 196.22 296.174 192.577 296.174 188.766C296.174 183.471 298.694 180.909 302.442 180.909C305.279 180.909 307.418 182.603 307.884 184.954H304.242C304.136 184.446 303.712 183.599 302.378 183.599C300.557 183.599 299.774 184.975 299.774 186.881V187.114L299.858 187.177C300.621 186.457 301.658 185.907 303.268 185.907C306.296 185.907 308.308 188.067 308.308 190.862C308.308 194.102 306.084 196.22 302.569 196.22ZM299.858 191.053C299.858 192.471 300.769 193.53 302.357 193.53C303.924 193.53 304.835 192.471 304.835 191.053C304.835 189.655 303.924 188.596 302.357 188.596C300.769 188.596 299.858 189.655 299.858 191.053ZM316.198 196.22C311.814 196.22 309.76 192.937 309.76 188.575C309.76 184.213 311.814 180.909 316.198 180.909C320.581 180.909 322.614 184.213 322.614 188.575C322.614 192.937 320.581 196.22 316.198 196.22ZM313.508 188.575C313.508 191.222 314.101 193.255 316.198 193.255C318.294 193.255 318.866 191.222 318.866 188.575C318.866 185.928 318.294 183.874 316.198 183.874C314.101 183.874 313.508 185.928 313.508 188.575Z" fill="#F78FDC"/>
<path d="M342.589 226.056H340.039V219.747H344.256V220.585H341.009V222.085H342.677C343.983 222.085 344.777 222.782 344.777 224.035C344.777 225.279 343.947 226.056 342.589 226.056ZM341.009 222.923V225.217H342.615C343.321 225.217 343.762 224.767 343.762 224.035C343.762 223.364 343.356 222.923 342.694 222.923H341.009ZM346.584 226.056H345.614V219.747H346.584V224.573H346.602L349.875 219.747H350.855V226.056H349.875V221.238H349.858L346.584 226.056ZM352.146 226.188C351.934 226.188 351.634 226.153 351.502 226.082V225.244C351.625 225.288 351.819 225.332 351.996 225.332C352.437 225.332 352.684 225.129 352.711 224.388L352.905 219.747H356.761V226.056H355.79V220.585H353.831L353.646 224.37C353.584 225.773 353.011 226.188 352.146 226.188ZM362.566 226.056H358.013V219.747H362.478V220.585H358.984V222.376H362.045V223.214H358.984V225.217H362.566V226.056ZM365.888 226.056H364.908V220.585H362.87V219.747H367.926V220.585H365.888V226.056Z" fill="#232422"/>
<path d="M268.945 225.628C264.117 225.628 262.55 221.986 262.55 218.174C262.55 212.88 265.07 210.317 268.818 210.317C271.656 210.317 273.794 212.011 274.26 214.362H270.618C270.512 213.854 270.088 213.007 268.754 213.007C266.933 213.007 266.15 214.383 266.15 216.289V216.522L266.234 216.586C266.997 215.866 268.034 215.315 269.644 215.315C272.672 215.315 274.684 217.475 274.684 220.27C274.684 223.51 272.46 225.628 268.945 225.628ZM266.234 220.461C266.234 221.88 267.145 222.938 268.733 222.938C270.3 222.938 271.211 221.88 271.211 220.461C271.211 219.063 270.3 218.004 268.733 218.004C267.145 218.004 266.234 219.063 266.234 220.461ZM278.762 215.463C278.19 215.908 276.962 216.077 275.67 216.077V213.261C277.724 213.261 279.397 212.456 279.397 210.656H282.362V225.289H278.762V215.463ZM284.555 221.393V218.491H290.315V221.393H284.555ZM298.331 225.628C293.503 225.628 291.936 221.986 291.936 218.174C291.936 212.88 294.456 210.317 298.204 210.317C301.042 210.317 303.181 212.011 303.647 214.362H300.004C299.898 213.854 299.475 213.007 298.141 213.007C296.32 213.007 295.536 214.383 295.536 216.289V216.522L295.621 216.586C296.383 215.866 297.421 215.315 299.03 215.315C302.058 215.315 304.07 217.475 304.07 220.27C304.07 223.51 301.847 225.628 298.331 225.628ZM295.621 220.461C295.621 221.88 296.531 222.938 298.12 222.938C299.687 222.938 300.597 221.88 300.597 220.461C300.597 219.063 299.687 218.004 298.12 218.004C296.531 218.004 295.621 219.063 295.621 220.461ZM305.311 225.289C305.311 222.197 306.962 220.884 310.139 218.513C311.727 217.327 312.892 216.353 312.892 215.018C312.892 213.896 312.341 213.218 311.198 213.218C309.821 213.218 308.995 213.981 308.995 215.993H305.522C305.522 212.562 307.344 210.317 311.304 210.317C314.459 210.317 316.577 211.969 316.577 214.764C316.577 217.623 314.205 219.402 312.193 220.863C311.494 221.371 310.859 221.858 310.372 222.346V222.388H316.577V225.289H305.311Z" fill="#F78FDC"/>
<line x1="485.294" y1="319.707" x2="255.294" y2="319.707" stroke="#232422" stroke-width="1.76471"/>
<path d="M482.282 341.001V339.283H478.6V337.319L482.282 332.872H484.282V337.672H485.482V339.283H484.282V341.001H482.282ZM480.07 337.672H482.282V335.048L480.07 337.672Z" fill="#F78FDC"/>
<defs>
<clipPath id="clip0_1533_4612">
<rect width="247.059" height="350" fill="white"/>
</clipPath>
</defs>
</svg>
