<svg width="506" height="260" viewBox="0 0 506 260" fill="none" xmlns="http://www.w3.org/2000/svg">
<g filter="url(#filter0_f_1545_5083)">
<rect x="47" y="47" width="412" height="166" fill="#01FB29"/>
</g>
<path d="M85.136 107V95.56H89.952C92.304 95.56 93.68 96.616 93.68 98.44C93.68 99.848 92.848 100.504 91.904 100.824V100.856C93.104 101.064 94.128 101.944 94.128 103.656C94.128 105.848 92.608 107 90.24 107H85.136ZM86.896 105.48H90.112C91.808 105.48 92.288 104.664 92.288 103.592C92.288 102.392 91.552 101.704 90.352 101.704H86.896V105.48ZM86.896 100.312H89.904C91.344 100.312 91.84 99.72 91.84 98.696C91.84 97.688 91.232 97.08 90.032 97.08H86.896V100.312ZM95.8079 107V95.56H103.904V97.08H97.5679V100.328H103.12V101.848H97.5679V105.48H104.064V107H95.8079ZM105.714 107V95.56H113.362V97.08H107.474V99.8H110.498C112.866 99.8 114.306 101.064 114.306 103.336C114.306 105.592 112.802 107 110.338 107H105.714ZM107.474 105.48H110.386C111.666 105.48 112.466 104.664 112.466 103.336C112.466 102.12 111.73 101.32 110.53 101.32H107.474V105.48ZM115.36 103.672V102.184H119.648V103.672H115.36ZM126.233 107.224C122.985 107.224 120.889 104.728 120.889 101.288C120.889 97.832 123.001 95.336 126.249 95.336C129.113 95.336 130.889 97.16 131.161 99.448H129.321C129.113 98.328 128.409 96.856 126.217 96.856C123.689 96.856 122.729 99 122.729 101.272C122.729 103.56 123.689 105.704 126.217 105.704C128.425 105.704 129.209 104.232 129.321 102.84H131.161C130.905 105.384 129.113 107.224 126.233 107.224ZM132.745 107V95.56H134.505V104.312H134.537L140.473 95.56H142.249V107H140.473V98.264H140.441L134.505 107H132.745ZM144.527 107V95.56H146.847L150.143 104.552H150.175L153.487 95.56H155.807V107H154.079V98.12H154.047L150.895 107H149.439L146.287 98.12H146.255V107H144.527ZM159.21 107L160.81 103.656L157.098 95.56H158.938L161.722 101.768H161.754L164.73 95.56H166.49L160.97 107H159.21ZM166.591 107.24C166.207 107.24 165.663 107.176 165.423 107.048V105.528C165.647 105.608 165.999 105.688 166.319 105.688C167.119 105.688 167.567 105.32 167.615 103.976L167.967 95.56H174.959V107H173.199V97.08H169.647L169.311 103.944C169.199 106.488 168.159 107.24 166.591 107.24ZM176.542 106.904C177.15 106.424 176.51 102.104 179.086 101.608V101.576C177.774 101.272 176.926 100.312 176.926 98.856C176.926 96.792 178.414 95.56 180.91 95.56H185.406V107H183.63V102.392H180.926C178.126 102.392 178.91 106.328 178.462 107H176.542V106.904ZM178.718 98.92C178.718 100.232 179.566 100.904 181.134 100.904H183.63V97.08H181.038C179.39 97.08 178.718 97.736 178.718 98.92ZM190.483 107V97.08H186.787V95.56H195.955V97.08H192.259V107H190.483ZM201.661 107.224C198.237 107.224 196.045 104.712 196.045 101.272C196.045 97.832 198.237 95.336 201.661 95.336C205.085 95.336 207.277 97.832 207.277 101.272C207.277 104.712 205.085 107.224 201.661 107.224ZM197.885 101.272C197.885 103.624 198.957 105.704 201.661 105.704C204.365 105.704 205.437 103.624 205.437 101.272C205.437 98.92 204.365 96.856 201.661 96.856C198.957 96.856 197.885 98.92 197.885 101.272ZM208.995 107V95.56H213.763C215.923 95.56 217.507 96.568 217.507 98.968C217.507 101.368 215.923 102.36 213.763 102.36H210.755V107H208.995ZM210.755 100.84H213.683C215.011 100.84 215.683 100.248 215.683 98.968C215.683 97.672 215.011 97.08 213.683 97.08H210.755V100.84ZM221.886 107V95.56H223.646V104.312H223.678L229.614 95.56H231.39V107H229.614V98.264H229.582L223.646 107H221.886ZM233.667 107V95.56H235.987L239.283 104.552H239.315L242.627 95.56H244.947V107H243.219V98.12H243.187L240.035 107H238.579L235.427 98.12H235.395V107H233.667ZM247.214 107V95.56H249.534L252.83 104.552H252.862L256.174 95.56H258.494V107H256.766V98.12H256.734L253.582 107H252.126L248.974 98.12H248.942V107H247.214ZM260.761 107V95.56H262.521V104.312H262.553L268.489 95.56H270.265V107H268.489V98.264H268.457L262.521 107H260.761ZM275.342 107V97.08H271.646V95.56H280.814V97.08H277.118V107H275.342ZM282.183 107V95.56H283.943V104.312H283.975L289.911 95.56H291.687V107H289.911V98.264H289.879L283.943 107H282.183ZM293.964 107V95.56H298.732C300.892 95.56 302.476 96.568 302.476 98.968C302.476 101.368 300.892 102.36 298.732 102.36H295.724V107H293.964ZM295.724 100.84H298.652C299.98 100.84 300.652 100.248 300.652 98.968C300.652 97.672 299.98 97.08 298.652 97.08H295.724V100.84ZM304.585 107L306.185 103.656L302.473 95.56H304.312L307.097 101.768H307.129L310.105 95.56H311.865L306.345 107H304.585ZM313.167 107V95.56H321.263V97.08H314.927V100.328H320.479V101.848H314.927V105.48H321.423V107H313.167ZM325.67 107V97.08H321.974V95.56H331.142V97.08H327.446V107H325.67ZM338.41 107L334.378 95.56H336.314L339.354 105.144H339.37L342.394 95.56H344.25L340.314 107H338.41ZM345.542 107V95.56H350.31C352.838 95.56 354.198 96.744 354.198 98.856C354.198 100.312 353.318 101.368 352.054 101.656V101.688C354.71 102.184 353.734 106.696 354.358 106.888V107H352.47C351.958 106.52 353.046 102.52 350.246 102.52H347.302V107H345.542ZM347.302 101H349.926C351.542 101 352.422 100.296 352.422 98.984C352.422 97.752 351.718 97.08 349.958 97.08H347.302V101ZM355.391 103.672V102.184H359.679V103.672H355.391ZM366.536 107.224C363.112 107.224 360.92 104.712 360.92 101.272C360.92 97.832 363.112 95.336 366.536 95.336C369.96 95.336 372.152 97.832 372.152 101.272C372.152 104.712 369.96 107.224 366.536 107.224ZM362.76 101.272C362.76 103.624 363.832 105.704 366.536 105.704C369.24 105.704 370.312 103.624 370.312 101.272C370.312 98.92 369.24 96.856 366.536 96.856C363.832 96.856 362.76 98.92 362.76 101.272ZM379.6 107V102.04H379.568C378.944 102.808 377.888 103.448 376.704 103.448C374.72 103.448 373.36 102.152 373.36 99.896V95.56H375.12V99.784C375.12 101.16 375.904 101.912 377.232 101.912C378.336 101.912 378.896 101.464 379.6 100.664V95.56H381.36V107H379.6ZM390.884 107L386.708 102.2H385.396V107H383.636V95.56H385.396V100.664H386.74L390.852 95.56H392.772L388.132 101.304L393.108 107H390.884ZM393.995 107V95.56H395.755V104.312H395.787L401.723 95.56H403.499V107H401.723V98.264H401.691L395.755 107H393.995ZM405.393 108.312C405.985 108.136 406.241 107.832 406.225 107H405.393V105.256H407.137V107C407.137 108.04 406.673 108.856 405.393 109.176V108.312ZM89.92 126.224C86.672 126.224 84.576 123.728 84.576 120.288C84.576 116.832 86.688 114.336 89.936 114.336C92.8 114.336 94.576 116.16 94.848 118.448H93.008C92.8 117.328 92.096 115.856 89.904 115.856C87.376 115.856 86.416 118 86.416 120.272C86.416 122.56 87.376 124.704 89.904 124.704C92.112 124.704 92.896 123.232 93.008 121.84H94.848C94.592 124.384 92.8 126.224 89.92 126.224ZM99.7766 126V114.56H108.641V126H106.865V116.08H101.537V126H99.7766ZM115.973 126.224C112.549 126.224 110.357 123.712 110.357 120.272C110.357 116.832 112.549 114.336 115.973 114.336C119.397 114.336 121.589 116.832 121.589 120.272C121.589 123.712 119.397 126.224 115.973 126.224ZM112.197 120.272C112.197 122.624 113.269 124.704 115.973 124.704C118.677 124.704 119.749 122.624 119.749 120.272C119.749 117.92 118.677 115.856 115.973 115.856C113.269 115.856 112.197 117.92 112.197 120.272ZM123.308 126V114.56H125.628L128.924 123.552H128.956L132.268 114.56H134.588V126H132.86V117.12H132.828L129.676 126H128.22L125.068 117.12H125.036V126H123.308ZM141.911 126.224C138.487 126.224 136.295 123.712 136.295 120.272C136.295 116.832 138.487 114.336 141.911 114.336C145.335 114.336 147.527 116.832 147.527 120.272C147.527 123.712 145.335 126.224 141.911 126.224ZM138.135 120.272C138.135 122.624 139.207 124.704 141.911 124.704C144.615 124.704 145.687 122.624 145.687 120.272C145.687 117.92 144.615 115.856 141.911 115.856C139.207 115.856 138.135 117.92 138.135 120.272ZM160.781 128.08V126.016H149.245V114.576H151.005V124.48H154.301V114.576H156.061V124.48H159.341V114.576H161.117V124.48H162.413V128.08H160.781ZM163.964 126V114.56H165.724V118.688H168.54C170.876 118.688 172.348 119.984 172.348 122.288C172.348 124.576 170.812 126 168.38 126H163.964ZM165.724 124.48H168.412C169.708 124.48 170.508 123.632 170.508 122.288C170.508 121.024 169.756 120.208 168.556 120.208H165.724V124.48ZM182.4 126.224C179.52 126.224 177.696 124.272 177.456 120.976H175.568V126H173.808V114.56H175.568V119.456H177.472C177.728 116.256 179.568 114.336 182.4 114.336C185.488 114.336 187.376 116.576 187.376 120.272C187.376 123.984 185.488 126.224 182.4 126.224ZM179.264 120.272C179.264 123.024 180.48 124.704 182.4 124.704C184.336 124.704 185.552 123.024 185.552 120.272C185.552 117.52 184.336 115.856 182.4 115.856C180.48 115.856 179.264 117.52 179.264 120.272ZM199.728 126L195.552 121.2H194.24V126H192.48V114.56H194.24V119.664H195.584L199.696 114.56H201.616L196.976 120.304L201.952 126H199.728ZM207.114 126.224C203.69 126.224 201.498 123.712 201.498 120.272C201.498 116.832 203.69 114.336 207.114 114.336C210.538 114.336 212.73 116.832 212.73 120.272C212.73 123.712 210.538 126.224 207.114 126.224ZM203.338 120.272C203.338 122.624 204.41 124.704 207.114 124.704C209.818 124.704 210.89 122.624 210.89 120.272C210.89 117.92 209.818 115.856 207.114 115.856C204.41 115.856 203.338 117.92 203.338 120.272ZM216.53 126V116.08H212.834V114.56H222.002V116.08H218.306V126H216.53ZM227.708 126.224C224.284 126.224 222.092 123.712 222.092 120.272C222.092 116.832 224.284 114.336 227.708 114.336C231.132 114.336 233.324 116.832 233.324 120.272C233.324 123.712 231.132 126.224 227.708 126.224ZM223.932 120.272C223.932 122.624 225.004 124.704 227.708 124.704C230.412 124.704 231.484 122.624 231.484 120.272C231.484 117.92 230.412 115.856 227.708 115.856C225.004 115.856 223.932 117.92 223.932 120.272ZM235.042 126V114.56H239.81C241.97 114.56 243.554 115.568 243.554 117.968C243.554 120.368 241.97 121.36 239.81 121.36H236.802V126H235.042ZM236.802 119.84H239.73C241.058 119.84 241.73 119.248 241.73 117.968C241.73 116.672 241.058 116.08 239.73 116.08H236.802V119.84ZM245.027 126V114.56H246.787V118.688H249.027C251.363 118.688 252.835 119.984 252.835 122.288C252.835 124.576 251.299 126 248.867 126H245.027ZM246.787 124.48H248.915C250.195 124.48 251.011 123.632 251.011 122.288C251.011 121.024 250.259 120.208 249.059 120.208H246.787V124.48ZM254.083 126V114.56H255.843V126H254.083ZM256.92 126L260.792 120.16L257.192 114.56H259.144L261.8 118.88H261.816L264.488 114.56H266.424L262.824 120.128L266.616 126H264.568L261.768 121.44H261.752L258.984 126H256.92ZM270.792 126V114.56H273.112L276.408 123.552H276.44L279.752 114.56H282.072V126H280.344V117.12H280.312L277.16 126H275.704L272.552 117.12H272.52V126H270.792ZM289.395 126.224C285.971 126.224 283.779 123.712 283.779 120.272C283.779 116.832 285.971 114.336 289.395 114.336C292.819 114.336 295.011 116.832 295.011 120.272C295.011 123.712 292.819 126.224 289.395 126.224ZM285.619 120.272C285.619 122.624 286.691 124.704 289.395 124.704C292.099 124.704 293.171 122.624 293.171 120.272C293.171 117.92 292.099 115.856 289.395 115.856C286.691 115.856 285.619 117.92 285.619 120.272ZM294.779 126L298.987 120.304L295.083 114.56H296.939L300.395 119.664H301.563V114.56H303.339V119.664H304.539L307.995 114.56H309.803L305.899 120.304L310.107 126H308.043L304.523 121.2H303.339V126H301.563V121.2H300.379L296.859 126H294.779ZM311.136 126V114.56H312.896V119.344H318.512V114.56H320.288V126H318.512V120.864H312.896V126H311.136ZM327.598 126.224C324.174 126.224 321.982 123.712 321.982 120.272C321.982 116.832 324.174 114.336 327.598 114.336C331.022 114.336 333.214 116.832 333.214 120.272C333.214 123.712 331.022 126.224 327.598 126.224ZM323.822 120.272C323.822 122.624 324.894 124.704 327.598 124.704C330.302 124.704 331.374 122.624 331.374 120.272C331.374 117.92 330.302 115.856 327.598 115.856C324.894 115.856 323.822 117.92 323.822 120.272ZM85.136 145V133.56H94V145H92.224V135.08H86.896V145H85.136ZM96.2766 145V133.56H101.045C103.205 133.56 104.789 134.568 104.789 136.968C104.789 139.368 103.205 140.36 101.045 140.36H98.0366V145H96.2766ZM98.0366 138.84H100.965C102.293 138.84 102.965 138.248 102.965 136.968C102.965 135.672 102.293 135.08 100.965 135.08H98.0366V138.84ZM111.255 145.224C107.831 145.224 105.639 142.712 105.639 139.272C105.639 135.832 107.831 133.336 111.255 133.336C114.679 133.336 116.871 135.832 116.871 139.272C116.871 142.712 114.679 145.224 111.255 145.224ZM107.479 139.272C107.479 141.624 108.551 143.704 111.255 143.704C113.959 143.704 115.031 141.624 115.031 139.272C115.031 136.92 113.959 134.856 111.255 134.856C108.551 134.856 107.479 136.92 107.479 139.272ZM120.67 145V135.08H116.974V133.56H126.142V135.08H122.446V145H120.67ZM127.511 145V133.56H135.607V135.08H129.271V138.328H134.823V139.848H129.271V143.48H135.767V145H127.511ZM141.92 145.224C138.672 145.224 136.576 142.728 136.576 139.288C136.576 135.832 138.688 133.336 141.936 133.336C144.8 133.336 146.576 135.16 146.848 137.448H145.008C144.8 136.328 144.096 134.856 141.904 134.856C139.376 134.856 138.416 137 138.416 139.272C138.416 141.56 139.376 143.704 141.904 143.704C144.112 143.704 144.896 142.232 145.008 140.84H146.848C146.592 143.384 144.8 145.224 141.92 145.224ZM150.717 145V135.08H147.021V133.56H156.189V135.08H152.493V145H150.717ZM157.558 145V133.56H159.318V142.312H159.35L165.286 133.56H167.062V145H165.286V136.264H165.254L159.318 145H157.558ZM169.339 145V133.56H174.107C176.267 133.56 177.851 134.568 177.851 136.968C177.851 139.368 176.267 140.36 174.107 140.36H171.099V145H169.339ZM171.099 138.84H174.027C175.355 138.84 176.027 138.248 176.027 136.968C176.027 135.672 175.355 135.08 174.027 135.08H171.099V138.84ZM184.317 145.224C180.893 145.224 178.701 142.712 178.701 139.272C178.701 135.832 180.893 133.336 184.317 133.336C187.741 133.336 189.933 135.832 189.933 139.272C189.933 142.712 187.741 145.224 184.317 145.224ZM180.541 139.272C180.541 141.624 181.613 143.704 184.317 143.704C187.021 143.704 188.093 141.624 188.093 139.272C188.093 136.92 187.021 134.856 184.317 134.856C181.613 134.856 180.541 136.92 180.541 139.272ZM191.652 145V133.56H196.468C198.82 133.56 200.196 134.616 200.196 136.44C200.196 137.848 199.364 138.504 198.42 138.824V138.856C199.62 139.064 200.644 139.944 200.644 141.656C200.644 143.848 199.124 145 196.756 145H191.652ZM193.412 143.48H196.628C198.324 143.48 198.804 142.664 198.804 141.592C198.804 140.392 198.068 139.704 196.868 139.704H193.412V143.48ZM193.412 138.312H196.42C197.86 138.312 198.356 137.72 198.356 136.696C198.356 135.688 197.748 135.08 196.548 135.08H193.412V138.312ZM200.955 145L205.211 133.56H207.115L211.403 145H209.483L208.539 142.248H203.755L202.811 145H200.955ZM204.283 140.76H208.043L206.171 135.192H206.139L204.283 140.76ZM213.905 145V135.08H210.209V133.56H219.377V135.08H215.681V145H213.905ZM220.745 145V133.56H222.505V137.688H225.321C227.657 137.688 229.129 138.984 229.129 141.288C229.129 143.576 227.593 145 225.161 145H220.745ZM222.505 143.48H225.193C226.489 143.48 227.289 142.632 227.289 141.288C227.289 140.024 226.537 139.208 225.337 139.208H222.505V143.48ZM233.495 145V133.56H238.263C240.423 133.56 242.007 134.568 242.007 136.968C242.007 139.368 240.423 140.36 238.263 140.36H235.255V145H233.495ZM235.255 138.84H238.183C239.511 138.84 240.183 138.248 240.183 136.968C240.183 135.672 239.511 135.08 238.183 135.08H235.255V138.84ZM241.345 145L245.601 133.56H247.505L251.793 145H249.873L248.929 142.248H244.145L243.201 145H241.345ZM244.673 140.76H248.433L246.561 135.192H246.529L244.673 140.76ZM256.441 145.24C253.577 145.24 252.025 144.056 252.025 141.816H253.865C253.897 143.128 254.777 143.704 256.377 143.704C257.785 143.704 258.745 142.936 258.745 141.736C258.745 140.616 257.929 139.96 256.617 139.96H255.257V138.536H256.553C257.785 138.536 258.393 137.784 258.393 136.68C258.393 135.624 257.497 134.904 256.233 134.904C254.809 134.904 253.993 135.64 253.993 136.696H252.153C252.185 134.712 253.689 133.384 256.233 133.384C258.601 133.384 260.233 134.6 260.233 136.568C260.233 137.752 259.561 138.744 258.409 139.208V139.24C259.673 139.592 260.585 140.488 260.585 141.8C260.585 143.8 258.873 145.24 256.441 145.24ZM262.292 145V133.56H264.052V138.344H269.668V133.56H271.444V145H269.668V139.864H264.052V145H262.292ZM273.699 145V133.56H275.459V137.688H277.699C280.035 137.688 281.507 138.984 281.507 141.288C281.507 143.576 279.971 145 277.539 145H273.699ZM275.459 143.48H277.587C278.867 143.48 279.683 142.632 279.683 141.288C279.683 140.024 278.931 139.208 277.731 139.208H275.459V143.48ZM282.755 145V133.56H284.515V145H282.755ZM286.792 145V133.56H294.888V135.08H288.552V138.328H294.104V139.848H288.552V143.48H295.048V145H286.792ZM300.042 145V133.56H302.362L305.658 142.552H305.69L309.002 133.56H311.322V145H309.594V136.12H309.562L306.41 145H304.954L301.802 136.12H301.77V145H300.042ZM318.645 145.224C315.221 145.224 313.029 142.712 313.029 139.272C313.029 135.832 315.221 133.336 318.645 133.336C322.069 133.336 324.261 135.832 324.261 139.272C324.261 142.712 322.069 145.224 318.645 145.224ZM314.869 139.272C314.869 141.624 315.941 143.704 318.645 143.704C321.349 143.704 322.421 141.624 322.421 139.272C322.421 136.92 321.349 134.856 318.645 134.856C315.941 134.856 314.869 136.92 314.869 139.272ZM324.517 147.08V143.496H325.349C326.261 143.496 326.517 142.68 326.613 140.616L326.933 133.56H333.861V143.496H335.189V147.08H333.557V145.016H326.165V147.08H324.517ZM327.653 143.496H332.101V135.08H328.629L328.309 141.272C328.261 142.392 328.021 143.016 327.653 143.464V143.496ZM336.745 145V133.56H338.505V137.688H340.745C343.081 137.688 344.553 138.984 344.553 141.288C344.553 143.576 343.017 145 340.585 145H336.745ZM338.505 143.48H340.633C341.913 143.48 342.729 142.632 342.729 141.288C342.729 140.024 341.977 139.208 340.777 139.208H338.505V143.48ZM345.801 145V133.56H347.561V145H345.801ZM356.879 145.24C354.015 145.24 352.463 144.056 352.463 141.816H354.303C354.335 143.128 355.215 143.704 356.815 143.704C358.223 143.704 359.183 142.936 359.183 141.736C359.183 140.616 358.367 139.96 357.055 139.96H355.695V138.536H356.991C358.223 138.536 358.831 137.784 358.831 136.68C358.831 135.624 357.935 134.904 356.671 134.904C355.247 134.904 354.431 135.64 354.431 136.696H352.591C352.623 134.712 354.127 133.384 356.671 133.384C359.039 133.384 360.671 134.6 360.671 136.568C360.671 137.752 359.999 138.744 358.847 139.208V139.24C360.111 139.592 361.023 140.488 361.023 141.8C361.023 143.8 359.311 145.24 356.879 145.24ZM362.73 145V133.56H367.498C369.658 133.56 371.242 134.568 371.242 136.968C371.242 139.368 369.658 140.36 367.498 140.36H364.49V145H362.73ZM364.49 138.84H367.418C368.746 138.84 369.418 138.248 369.418 136.968C369.418 135.672 368.746 135.08 367.418 135.08H364.49V138.84ZM372.714 145V133.56H380.81V135.08H374.474V138.328H380.026V139.848H374.474V143.48H380.97V145H372.714ZM382.62 145V133.56H384.38V138.344H389.996V133.56H391.772V145H389.996V139.864H384.38V145H382.62ZM394.027 145V133.56H395.787V142.312H395.819L401.755 133.56H403.531V145H401.755V136.264H401.723L395.787 145H394.027ZM405.12 144.904C405.728 144.424 405.088 140.104 407.664 139.608V139.576C406.352 139.272 405.504 138.312 405.504 136.856C405.504 134.792 406.992 133.56 409.488 133.56H413.984V145H412.208V140.392H409.504C406.704 140.392 407.488 144.328 407.04 145H405.12V144.904ZM407.296 136.92C407.296 138.232 408.144 138.904 409.712 138.904H412.208V135.08H409.616C407.968 135.08 407.296 135.736 407.296 136.92ZM93.552 166.08V164.016H85.136V152.576H86.896V162.48H92.112V152.576H93.872V162.48H95.2V166.08H93.552ZM96.7454 164V152.56H98.5054V161.312H98.5374L104.473 152.56H106.249V164H104.473V155.264H104.441L98.5054 164H96.7454ZM115.775 164L111.599 159.2H110.287V164H108.527V152.56H110.287V157.664H111.631L115.743 152.56H117.663L113.023 158.304L117.999 164H115.775ZM119.403 164.24C119.019 164.24 118.475 164.176 118.235 164.048V162.528C118.459 162.608 118.811 162.688 119.131 162.688C119.931 162.688 120.379 162.32 120.427 160.976L120.779 152.56H127.771V164H126.011V154.08H122.459L122.123 160.944C122.011 163.488 120.971 164.24 119.403 164.24ZM135.098 164.224C131.674 164.224 129.482 161.712 129.482 158.272C129.482 154.832 131.674 152.336 135.098 152.336C138.522 152.336 140.714 154.832 140.714 158.272C140.714 161.712 138.522 164.224 135.098 164.224ZM131.322 158.272C131.322 160.624 132.394 162.704 135.098 162.704C137.802 162.704 138.874 160.624 138.874 158.272C138.874 155.92 137.802 153.856 135.098 153.856C132.394 153.856 131.322 155.92 131.322 158.272ZM142.433 164V152.56H151.297V164H149.521V154.08H144.193V164H142.433ZM158.63 164.224C155.206 164.224 153.014 161.712 153.014 158.272C153.014 154.832 155.206 152.336 158.63 152.336C162.054 152.336 164.246 154.832 164.246 158.272C164.246 161.712 162.054 164.224 158.63 164.224ZM154.854 158.272C154.854 160.624 155.926 162.704 158.63 162.704C161.334 162.704 162.406 160.624 162.406 158.272C162.406 155.92 161.334 153.856 158.63 153.856C155.926 153.856 154.854 155.92 154.854 158.272ZM165.964 164V152.56H170.78C173.132 152.56 174.508 153.616 174.508 155.44C174.508 156.848 173.676 157.504 172.732 157.824V157.856C173.932 158.064 174.956 158.944 174.956 160.656C174.956 162.848 173.436 164 171.068 164H165.964ZM167.724 162.48H170.94C172.636 162.48 173.116 161.664 173.116 160.592C173.116 159.392 172.38 158.704 171.18 158.704H167.724V162.48ZM167.724 157.312H170.732C172.172 157.312 172.668 156.72 172.668 155.696C172.668 154.688 172.06 154.08 170.86 154.08H167.724V157.312ZM176.3 159.104V157.36H178.044V159.104H176.3ZM176.3 164V162.256H178.044V164H176.3ZM188.38 164.224C184.956 164.224 182.764 161.712 182.764 158.272C182.764 154.832 184.956 152.336 188.38 152.336C191.804 152.336 193.996 154.832 193.996 158.272C193.996 161.712 191.804 164.224 188.38 164.224ZM184.604 158.272C184.604 160.624 185.676 162.704 188.38 162.704C191.084 162.704 192.156 160.624 192.156 158.272C192.156 155.92 191.084 153.856 188.38 153.856C185.676 153.856 184.604 155.92 184.604 158.272ZM197.795 164V154.08H194.099V152.56H203.267V154.08H199.571V164H197.795ZM207.527 164V152.56H212.295C214.455 152.56 216.039 153.568 216.039 155.968C216.039 158.368 214.455 159.36 212.295 159.36H209.287V164H207.527ZM209.287 157.84H212.215C213.543 157.84 214.215 157.248 214.215 155.968C214.215 154.672 213.543 154.08 212.215 154.08H209.287V157.84ZM217.511 164V152.56H225.607V154.08H219.271V157.328H224.823V158.848H219.271V162.48H225.767V164H217.511ZM227.417 164V152.56H229.177V157.344H234.793V152.56H236.569V164H234.793V158.864H229.177V164H227.417ZM241.624 164V154.08H237.928V152.56H247.095V154.08H243.4V164H241.624ZM248.464 164V152.56H255.056V154.08H250.224V164H248.464ZM256.433 164V152.56H264.529V154.08H258.193V157.328H263.745V158.848H258.193V162.48H264.689V164H256.433ZM266.339 164V152.56H268.099V157.344H273.715V152.56H275.491V164H273.715V158.864H268.099V164H266.339ZM276.673 164L280.929 152.56H282.833L287.121 164H285.201L284.257 161.248H279.473L278.529 164H276.673ZM280.001 159.76H283.761L281.889 154.192H281.857L280.001 159.76ZM289.736 166.08V162.496H290.568C291.48 162.496 291.736 161.68 291.832 159.616L292.152 152.56H299.08V162.496H300.408V166.08H298.776V164.016H291.384V166.08H289.736ZM292.872 162.496H297.32V154.08H293.848L293.528 160.272C293.48 161.392 293.24 162.016 292.872 162.464V162.496ZM306.755 164.224C303.331 164.224 301.139 161.712 301.139 158.272C301.139 154.832 303.331 152.336 306.755 152.336C310.179 152.336 312.371 154.832 312.371 158.272C312.371 161.712 310.179 164.224 306.755 164.224ZM302.979 158.272C302.979 160.624 304.051 162.704 306.755 162.704C309.459 162.704 310.531 160.624 310.531 158.272C310.531 155.92 309.459 153.856 306.755 153.856C304.051 153.856 302.979 155.92 302.979 158.272ZM317.075 164.24C316.691 164.24 316.147 164.176 315.907 164.048V162.528C316.131 162.608 316.483 162.688 316.803 162.688C317.603 162.688 318.051 162.32 318.099 160.976L318.451 152.56H325.443V164H323.683V154.08H320.131L319.795 160.944C319.683 163.488 318.643 164.24 317.075 164.24ZM326.642 164L330.898 152.56H332.802L337.09 164H335.17L334.226 161.248H329.442L328.498 164H326.642ZM329.97 159.76H333.73L331.858 154.192H331.826L329.97 159.76ZM341.738 164.24C338.874 164.24 337.322 163.056 337.322 160.816H339.162C339.194 162.128 340.074 162.704 341.674 162.704C343.082 162.704 344.042 161.936 344.042 160.736C344.042 159.616 343.226 158.96 341.914 158.96H340.554V157.536H341.85C343.082 157.536 343.69 156.784 343.69 155.68C343.69 154.624 342.794 153.904 341.53 153.904C340.106 153.904 339.29 154.64 339.29 155.696H337.45C337.482 153.712 338.986 152.384 341.53 152.384C343.898 152.384 345.53 153.6 345.53 155.568C345.53 156.752 344.858 157.744 343.706 158.208V158.24C344.97 158.592 345.882 159.488 345.882 160.8C345.882 162.8 344.17 164.24 341.738 164.24ZM347.589 164V152.56H355.685V154.08H349.349V157.328H354.901V158.848H349.349V162.48H355.845V164H347.589ZM357.495 164V152.56H362.263C364.423 152.56 366.007 153.568 366.007 155.968C366.007 158.368 364.423 159.36 362.263 159.36H359.255V164H357.495ZM359.255 157.84H362.183C363.511 157.84 364.183 157.248 364.183 155.968C364.183 154.672 363.511 154.08 362.183 154.08H359.255V157.84ZM365.345 164L369.601 152.56H371.505L375.793 164H373.873L372.929 161.248H368.145L367.201 164H365.345ZM368.673 159.76H372.433L370.561 154.192H370.529L368.673 159.76ZM376.564 164V162.256H378.308V164H376.564Z" fill="black"/>
<defs>
<filter id="filter0_f_1545_5083" x="0.400002" y="0.400002" width="505.2" height="259.2" filterUnits="userSpaceOnUse" color-interpolation-filters="sRGB">
<feFlood flood-opacity="0" result="BackgroundImageFix"/>
<feBlend mode="normal" in="SourceGraphic" in2="BackgroundImageFix" result="shape"/>
<feGaussianBlur stdDeviation="23.3" result="effect1_foregroundBlur_1545_5083"/>
</filter>
</defs>
</svg>
