<svg width="579" height="245" viewBox="0 0 579 245" fill="none" xmlns="http://www.w3.org/2000/svg">
<g filter="url(#filter0_f_1545_5084)">
<rect x="47" y="47" width="485" height="151" fill="#01FB29"/>
</g>
<path d="M80.136 101V89.56H84.952C87.304 89.56 88.68 90.616 88.68 92.44C88.68 93.848 87.848 94.504 86.904 94.824V94.856C88.104 95.064 89.128 95.944 89.128 97.656C89.128 99.848 87.608 101 85.24 101H80.136ZM81.896 99.48H85.112C86.808 99.48 87.288 98.664 87.288 97.592C87.288 96.392 86.552 95.704 85.352 95.704H81.896V99.48ZM81.896 94.312H84.904C86.344 94.312 86.84 93.72 86.84 92.696C86.84 91.688 86.232 91.08 85.032 91.08H81.896V94.312ZM90.8079 101V89.56H98.9039V91.08H92.5679V94.328H98.1199V95.848H92.5679V99.48H99.0639V101H90.8079ZM100.714 101V89.56H108.362V91.08H102.474V93.8H105.498C107.866 93.8 109.306 95.064 109.306 97.336C109.306 99.592 107.802 101 105.338 101H100.714ZM102.474 99.48H105.386C106.666 99.48 107.466 98.664 107.466 97.336C107.466 96.12 106.73 95.32 105.53 95.32H102.474V99.48ZM110.36 97.672V96.184H114.648V97.672H110.36ZM116.449 101V89.56H125.312V101H123.536V91.08H118.209V101H116.449ZM127.653 101.24C127.269 101.24 126.725 101.176 126.485 101.048V99.528C126.709 99.608 127.061 99.688 127.381 99.688C128.181 99.688 128.629 99.32 128.677 97.976L129.029 89.56H136.021V101H134.261V91.08H130.709L130.373 97.944C130.261 100.488 129.221 101.24 127.653 101.24ZM137.22 101L141.476 89.56H143.38L147.668 101H145.748L144.804 98.248H140.02L139.076 101H137.22ZM140.548 96.76H144.308L142.436 91.192H142.404L140.548 96.76ZM156.103 101L151.927 96.2H150.615V101H148.855V89.56H150.615V94.664H151.959L156.071 89.56H157.991L153.351 95.304L158.327 101H156.103ZM158.142 101L162.398 89.56H164.302L168.59 101H166.67L165.726 98.248H160.942L159.998 101H158.142ZM161.47 96.76H165.23L163.358 91.192H163.326L161.47 96.76ZM171.092 101V91.08H167.396V89.56H176.564V91.08H172.868V101H171.092ZM180.136 100.904C180.743 100.424 180.104 96.104 182.68 95.608V95.576C181.368 95.272 180.52 94.312 180.52 92.856C180.52 90.792 182.008 89.56 184.504 89.56H189V101H187.224V96.392H184.52C181.72 96.392 182.504 100.328 182.056 101H180.136V100.904ZM182.312 92.92C182.312 94.232 183.16 94.904 184.728 94.904H187.224V91.08H184.632C182.984 91.08 182.312 91.736 182.312 92.92ZM191.277 101V89.56H196.093C198.445 89.56 199.821 90.616 199.821 92.44C199.821 93.848 198.989 94.504 198.045 94.824V94.856C199.245 95.064 200.269 95.944 200.269 97.656C200.269 99.848 198.749 101 196.381 101H191.277ZM193.037 99.48H196.253C197.949 99.48 198.429 98.664 198.429 97.592C198.429 96.392 197.693 95.704 196.493 95.704H193.037V99.48ZM193.037 94.312H196.045C197.485 94.312 197.981 93.72 197.981 92.696C197.981 91.688 197.373 91.08 196.173 91.08H193.037V94.312ZM201.888 101.24C201.504 101.24 200.96 101.176 200.72 101.048V99.528C200.944 99.608 201.296 99.688 201.616 99.688C202.416 99.688 202.864 99.32 202.912 97.976L203.264 89.56H210.256V101H208.496V91.08H204.944L204.608 97.944C204.496 100.488 203.456 101.24 201.888 101.24ZM211.839 100.904C212.447 100.424 211.807 96.104 214.383 95.608V95.576C213.071 95.272 212.223 94.312 212.223 92.856C212.223 90.792 213.711 89.56 216.207 89.56H220.703V101H218.927V96.392H216.223C213.423 96.392 214.207 100.328 213.759 101H211.839V100.904ZM214.015 92.92C214.015 94.232 214.863 94.904 216.431 94.904H218.927V91.08H216.335C214.687 91.08 214.015 91.736 214.015 92.92ZM222.98 101V89.56H231.076V91.08H224.74V94.328H230.292V95.848H224.74V99.48H231.236V101H222.98ZM235.483 101V91.08H231.787V89.56H240.955V91.08H237.259V101H235.483ZM246.389 101.224C243.141 101.224 241.045 98.728 241.045 95.288C241.045 91.832 243.157 89.336 246.405 89.336C249.269 89.336 251.045 91.16 251.317 93.448H249.477C249.269 92.328 248.565 90.856 246.373 90.856C243.845 90.856 242.885 93 242.885 95.272C242.885 97.56 243.845 99.704 246.373 99.704C248.581 99.704 249.365 98.232 249.477 96.84H251.317C251.061 99.384 249.269 101.224 246.389 101.224ZM252.214 100.904C252.822 100.424 252.182 96.104 254.758 95.608V95.576C253.446 95.272 252.598 94.312 252.598 92.856C252.598 90.792 254.086 89.56 256.582 89.56H261.078V101H259.302V96.392H256.598C253.798 96.392 254.582 100.328 254.134 101H252.214V100.904ZM254.39 92.92C254.39 94.232 255.238 94.904 256.806 94.904H259.302V91.08H256.71C255.062 91.08 254.39 91.736 254.39 92.92ZM266.699 101V89.56H268.459V98.312H268.491L274.427 89.56H276.203V101H274.427V92.264H274.395L268.459 101H266.699ZM278.48 101V89.56H280.8L284.096 98.552H284.128L287.44 89.56H289.76V101H288.032V92.12H288L284.848 101H283.392L280.24 92.12H280.208V101H278.48ZM292.027 101V89.56H293.787V98.312H293.819L299.755 89.56H301.531V101H299.755V92.264H299.723L293.787 101H292.027ZM302.736 103.08V99.496H303.568C304.48 99.496 304.736 98.68 304.832 96.616L305.152 89.56H312.08V99.496H313.408V103.08H311.776V101.016H304.384V103.08H302.736ZM305.872 99.496H310.32V91.08H306.848L306.528 97.272C306.48 98.392 306.24 99.016 305.872 99.464V99.496ZM313.716 101L317.924 95.304L314.02 89.56H315.876L319.332 94.664H320.5V89.56H322.276V94.664H323.476L326.932 89.56H328.74L324.836 95.304L329.044 101H326.98L323.46 96.2H322.276V101H320.5V96.2H319.316L315.796 101H313.716ZM330.074 101V89.56H338.17V91.08H331.834V94.328H337.385V95.848H331.834V99.48H338.33V101H330.074ZM339.98 101V89.56H344.796C347.148 89.56 348.524 90.616 348.524 92.44C348.524 93.848 347.692 94.504 346.748 94.824V94.856C347.948 95.064 348.972 95.944 348.972 97.656C348.972 99.848 347.452 101 345.084 101H339.98ZM341.74 99.48H344.956C346.652 99.48 347.132 98.664 347.132 97.592C347.132 96.392 346.396 95.704 345.196 95.704H341.74V99.48ZM341.74 94.312H344.748C346.188 94.312 346.684 93.72 346.684 92.696C346.684 91.688 346.076 91.08 344.876 91.08H341.74V94.312ZM350.652 101V89.56H352.412V93.688H354.652C356.988 93.688 358.46 94.984 358.46 97.288C358.46 99.576 356.924 101 354.492 101H350.652ZM352.412 99.48H354.54C355.82 99.48 356.636 98.632 356.636 97.288C356.636 96.024 355.884 95.208 354.684 95.208H352.412V99.48ZM359.708 101V89.56H361.468V101H359.708ZM363.745 101V89.56H366.065L369.361 98.552H369.393L372.705 89.56H375.025V101H373.297V92.12H373.265L370.113 101H368.657L365.505 92.12H365.473V101H363.745ZM379.22 103.08V99.496H380.052C380.964 99.496 381.22 98.68 381.316 96.616L381.636 89.56H388.564V99.496H389.892V103.08H388.26V101.016H380.868V103.08H379.22ZM382.356 99.496H386.804V91.08H383.332L383.012 97.272C382.964 98.392 382.724 99.016 382.356 99.464V99.496ZM391.513 101.24C391.129 101.24 390.585 101.176 390.345 101.048V99.528C390.569 99.608 390.921 99.688 391.241 99.688C392.041 99.688 392.489 99.32 392.537 97.976L392.889 89.56H399.881V101H398.121V91.08H394.569L394.233 97.944C394.121 100.488 393.081 101.24 391.513 101.24ZM401.464 100.904C402.072 100.424 401.432 96.104 404.008 95.608V95.576C402.696 95.272 401.848 94.312 401.848 92.856C401.848 90.792 403.336 89.56 405.832 89.56H410.328V101H408.552V96.392H405.848C403.048 96.392 403.832 100.328 403.384 101H401.464V100.904ZM403.64 92.92C403.64 94.232 404.488 94.904 406.056 94.904H408.552V91.08H405.96C404.312 91.08 403.64 91.736 403.64 92.92ZM421.005 101.224C417.581 101.224 415.389 98.712 415.389 95.272C415.389 91.832 417.581 89.336 421.005 89.336C424.429 89.336 426.621 91.832 426.621 95.272C426.621 98.712 424.429 101.224 421.005 101.224ZM417.229 95.272C417.229 97.624 418.301 99.704 421.005 99.704C423.709 99.704 424.781 97.624 424.781 95.272C424.781 92.92 423.709 90.856 421.005 90.856C418.301 90.856 417.229 92.92 417.229 95.272ZM428.339 101V89.56H437.203V101H435.427V91.08H430.099V101H428.339ZM442.28 101V91.08H438.584V89.56H447.752V91.08H444.056V101H442.28ZM449.12 101V89.56H450.88V98.312H450.912L456.848 89.56H458.624V101H456.848V92.264H456.816L450.88 101H449.12ZM468.15 101L463.974 96.2H462.662V101H460.902V89.56H462.662V94.664H464.006L468.118 89.56H470.038L465.398 95.304L470.374 101H468.15ZM471.261 101V89.56H473.021V98.312H473.053L478.989 89.56H480.765V101H478.989V92.264H478.957L473.021 101H471.261ZM482.658 102.312C483.25 102.136 483.506 101.832 483.49 101H482.658V99.256H484.402V101C484.402 102.04 483.938 102.856 482.658 103.176V102.312ZM79.064 122.08V118.496H79.896C80.808 118.496 81.064 117.68 81.16 115.616L81.48 108.56H88.408V118.496H89.736V122.08H88.104V120.016H80.712V122.08H79.064ZM82.2 118.496H86.648V110.08H83.176L82.856 116.272C82.808 117.392 82.568 118.016 82.2 118.464V118.496ZM91.2923 120V108.56H99.3883V110.08H93.0523V113.328H98.6042V114.848H93.0523V118.48H99.5483V120H91.2923ZM101.199 120V108.56H103.519L106.815 117.552H106.847L110.159 108.56H112.479V120H110.751V111.12H110.719L107.567 120H106.111L102.959 111.12H102.927V120H101.199ZM119.801 120.224C116.377 120.224 114.185 117.712 114.185 114.272C114.185 110.832 116.377 108.336 119.801 108.336C123.225 108.336 125.417 110.832 125.417 114.272C125.417 117.712 123.225 120.224 119.801 120.224ZM116.025 114.272C116.025 116.624 117.097 118.704 119.801 118.704C122.505 118.704 123.577 116.624 123.577 114.272C123.577 111.92 122.505 109.856 119.801 109.856C117.097 109.856 116.025 111.92 116.025 114.272ZM127.136 120V108.56H128.896V113.344H134.512V108.56H136.288V120H134.512V114.864H128.896V120H127.136ZM143.326 120.224C140.078 120.224 137.982 117.728 137.982 114.288C137.982 110.832 140.094 108.336 143.342 108.336C146.206 108.336 147.982 110.16 148.254 112.448H146.414C146.206 111.328 145.502 109.856 143.31 109.856C140.782 109.856 139.822 112 139.822 114.272C139.822 116.56 140.782 118.704 143.31 118.704C145.518 118.704 146.302 117.232 146.414 115.84H148.254C147.998 118.384 146.206 120.224 143.326 120.224ZM152.124 120V110.08H148.428V108.56H157.595V110.08H153.9V120H152.124ZM158.964 120V108.56H163.732C165.892 108.56 167.476 109.568 167.476 111.968C167.476 114.368 165.892 115.36 163.732 115.36H160.724V120H158.964ZM160.724 113.84H163.652C164.98 113.84 165.652 113.248 165.652 111.968C165.652 110.672 164.98 110.08 163.652 110.08H160.724V113.84ZM168.949 120V108.56H170.709V117.312H170.741L176.677 108.56H178.453V120H176.677V111.264H176.645L170.709 120H168.949ZM180.73 120V108.56H185.498C187.658 108.56 189.242 109.568 189.242 111.968C189.242 114.368 187.658 115.36 185.498 115.36H182.49V120H180.73ZM182.49 113.84H185.418C186.746 113.84 187.418 113.248 187.418 111.968C187.418 110.672 186.746 110.08 185.418 110.08H182.49V113.84ZM191.35 120L192.95 116.656L189.238 108.56H191.078L193.862 114.768H193.894L196.87 108.56H198.63L193.11 120H191.35ZM199.933 120V108.56H208.029V110.08H201.693V113.328H207.245V114.848H201.693V118.48H208.189V120H199.933ZM212.436 120V110.08H208.74V108.56H217.908V110.08H214.212V120H212.436ZM222.167 120V108.56H226.983C229.335 108.56 230.711 109.616 230.711 111.44C230.711 112.848 229.879 113.504 228.935 113.824V113.856C230.135 114.064 231.159 114.944 231.159 116.656C231.159 118.848 229.639 120 227.271 120H222.167ZM223.927 118.48H227.143C228.839 118.48 229.319 117.664 229.319 116.592C229.319 115.392 228.583 114.704 227.383 114.704H223.927V118.48ZM223.927 113.312H226.935C228.375 113.312 228.871 112.72 228.871 111.696C228.871 110.688 228.263 110.08 227.063 110.08H223.927V113.312ZM237.895 120.224C234.471 120.224 232.279 117.712 232.279 114.272C232.279 110.832 234.471 108.336 237.895 108.336C241.319 108.336 243.511 110.832 243.511 114.272C243.511 117.712 241.319 120.224 237.895 120.224ZM234.119 114.272C234.119 116.624 235.191 118.704 237.895 118.704C240.599 118.704 241.671 116.624 241.671 114.272C241.671 111.92 240.599 109.856 237.895 109.856C235.191 109.856 234.119 111.92 234.119 114.272ZM248.863 120.24C245.999 120.24 244.447 119.056 244.447 116.816H246.287C246.319 118.128 247.199 118.704 248.799 118.704C250.207 118.704 251.167 117.936 251.167 116.736C251.167 115.616 250.351 114.96 249.039 114.96H247.679V113.536H248.975C250.207 113.536 250.815 112.784 250.815 111.68C250.815 110.624 249.919 109.904 248.655 109.904C247.231 109.904 246.415 110.64 246.415 111.696H244.575C244.607 109.712 246.111 108.384 248.655 108.384C251.023 108.384 252.655 109.6 252.655 111.568C252.655 112.752 251.983 113.744 250.831 114.208V114.24C252.095 114.592 253.007 115.488 253.007 116.8C253.007 118.8 251.295 120.24 248.863 120.24ZM254.714 120V108.56H257.034L260.33 117.552H260.362L263.674 108.56H265.994V120H264.266V111.12H264.234L261.082 120H259.626L256.474 111.12H256.442V120H254.714ZM273.317 120.224C269.893 120.224 267.701 117.712 267.701 114.272C267.701 110.832 269.893 108.336 273.317 108.336C276.741 108.336 278.933 110.832 278.933 114.272C278.933 117.712 276.741 120.224 273.317 120.224ZM269.541 114.272C269.541 116.624 270.613 118.704 273.317 118.704C276.021 118.704 277.093 116.624 277.093 114.272C277.093 111.92 276.021 109.856 273.317 109.856C270.613 109.856 269.541 111.92 269.541 114.272ZM278.7 120L282.909 114.304L279.005 108.56H280.861L284.317 113.664H285.485V108.56H287.26V113.664H288.461L291.917 108.56H293.725L289.821 114.304L294.029 120H291.965L288.445 115.2H287.26V120H285.485V115.2H284.301L280.781 120H278.7ZM295.058 120V108.56H296.818V113.344H302.434V108.56H304.21V120H302.434V114.864H296.818V120H295.058ZM306.464 120V108.56H308.224V112.688H310.464C312.8 112.688 314.272 113.984 314.272 116.288C314.272 118.576 312.736 120 310.304 120H306.464ZM308.224 118.48H310.352C311.632 118.48 312.448 117.632 312.448 116.288C312.448 115.024 311.696 114.208 310.496 114.208H308.224V118.48ZM315.52 120V108.56H317.28V120H315.52ZM319.558 120V108.56H327.654V110.08H321.318V113.328H326.87V114.848H321.318V118.48H327.814V120H319.558ZM337.864 120.224C334.44 120.224 332.248 117.712 332.248 114.272C332.248 110.832 334.44 108.336 337.864 108.336C341.288 108.336 343.48 110.832 343.48 114.272C343.48 117.712 341.288 120.224 337.864 120.224ZM334.088 114.272C334.088 116.624 335.16 118.704 337.864 118.704C340.568 118.704 341.64 116.624 341.64 114.272C341.64 111.92 340.568 109.856 337.864 109.856C335.16 109.856 334.088 111.92 334.088 114.272ZM349.983 120.224C346.735 120.224 344.639 117.728 344.639 114.288C344.639 110.832 346.751 108.336 349.999 108.336C352.863 108.336 354.639 110.16 354.911 112.448H353.071C352.863 111.328 352.159 109.856 349.967 109.856C347.439 109.856 346.479 112 346.479 114.272C346.479 116.56 347.439 118.704 349.967 118.704C352.175 118.704 352.959 117.232 353.071 115.84H354.911C354.655 118.384 352.863 120.224 349.983 120.224ZM361.551 120.224C358.127 120.224 355.935 117.712 355.935 114.272C355.935 110.832 358.127 108.336 361.551 108.336C364.975 108.336 367.167 110.832 367.167 114.272C367.167 117.712 364.975 120.224 361.551 120.224ZM357.775 114.272C357.775 116.624 358.847 118.704 361.551 118.704C364.255 118.704 365.327 116.624 365.327 114.272C365.327 111.92 364.255 109.856 361.551 109.856C358.847 109.856 357.775 111.92 357.775 114.272ZM368.886 120V108.56H376.534V110.08H370.646V112.8H373.67C376.038 112.8 377.478 114.064 377.478 116.336C377.478 118.592 375.974 120 373.51 120H368.886ZM370.646 118.48H373.558C374.838 118.48 375.638 117.664 375.638 116.336C375.638 115.12 374.902 114.32 373.702 114.32H370.646V118.48ZM378.995 120V108.56H387.091V110.08H380.755V113.328H386.307V114.848H380.755V118.48H387.251V120H378.995ZM388.902 120V108.56H390.662V113.344H396.278V108.56H398.054V120H396.278V114.864H390.662V120H388.902ZM400.308 120V108.56H402.068V113.344H407.684V108.56H409.46V120H407.684V114.864H402.068V120H400.308ZM416.77 120.224C413.346 120.224 411.154 117.712 411.154 114.272C411.154 110.832 413.346 108.336 416.77 108.336C420.194 108.336 422.386 110.832 422.386 114.272C422.386 117.712 420.194 120.224 416.77 120.224ZM412.994 114.272C412.994 116.624 414.066 118.704 416.77 118.704C419.474 118.704 420.546 116.624 420.546 114.272C420.546 111.92 419.474 109.856 416.77 109.856C414.066 109.856 412.994 111.92 412.994 114.272ZM428.889 120.224C425.641 120.224 423.545 117.728 423.545 114.288C423.545 110.832 425.657 108.336 428.905 108.336C431.769 108.336 433.545 110.16 433.817 112.448H431.977C431.769 111.328 431.065 109.856 428.873 109.856C426.345 109.856 425.385 112 425.385 114.272C425.385 116.56 426.345 118.704 428.873 118.704C431.081 118.704 431.865 117.232 431.977 115.84H433.817C433.561 118.384 431.769 120.224 428.889 120.224ZM437.686 120V110.08H433.99V108.56H443.158V110.08H439.462V120H437.686ZM444.527 120V108.56H446.287V117.312H446.319L452.255 108.56H454.031V120H452.255V111.264H452.223L446.287 120H444.527ZM80.136 139V127.56H81.896V136.312H81.928L87.864 127.56H89.64V139H87.864V130.264H87.832L81.896 139H80.136ZM93.8453 141.08V137.496H94.6773C95.5893 137.496 95.8453 136.68 95.9413 134.616L96.2613 127.56H103.189V137.496H104.517V141.08H102.885V139.016H95.4933V141.08H93.8453ZM96.9813 137.496H101.429V129.08H97.9573L97.6373 135.272C97.5893 136.392 97.3493 137.016 96.9813 137.464V137.496ZM106.074 139V127.56H114.17V129.08H107.834V132.328H113.385V133.848H107.834V137.48H114.33V139H106.074ZM119.51 139V137.656C116.678 137.384 114.934 135.784 114.934 133.352C114.934 130.936 116.678 129.336 119.51 129.064V127.56H121.238V129.048C124.102 129.304 125.862 130.92 125.862 133.352C125.862 135.8 124.102 137.416 121.238 137.672V139H119.51ZM116.71 133.352C116.71 134.936 117.766 136.024 119.51 136.296V130.424C117.766 130.696 116.71 131.768 116.71 133.352ZM121.238 136.296C123.014 136.04 124.102 134.952 124.102 133.352C124.102 131.752 123.014 130.664 121.238 130.424V136.296ZM127.511 139V127.56H135.607V129.08H129.271V132.328H134.823V133.848H129.271V137.48H135.767V139H127.511ZM144.665 139L140.489 134.2H139.177V139H137.417V127.56H139.177V132.664H140.521L144.633 127.56H146.553L141.913 133.304L146.889 139H144.665ZM150.577 139V129.08H146.881V127.56H156.049V129.08H152.353V139H150.577ZM157.417 139V127.56H159.177V131.688H161.417C163.753 131.688 165.225 132.984 165.225 135.288C165.225 137.576 163.689 139 161.257 139H157.417ZM159.177 137.48H161.305C162.585 137.48 163.401 136.632 163.401 135.288C163.401 134.024 162.649 133.208 161.449 133.208H159.177V137.48ZM166.473 139V127.56H168.233V139H166.473ZM177.551 139.24C174.687 139.24 173.135 138.056 173.135 135.816H174.975C175.007 137.128 175.887 137.704 177.487 137.704C178.895 137.704 179.855 136.936 179.855 135.736C179.855 134.616 179.039 133.96 177.727 133.96H176.367V132.536H177.663C178.895 132.536 179.503 131.784 179.503 130.68C179.503 129.624 178.607 128.904 177.343 128.904C175.919 128.904 175.103 129.64 175.103 130.696H173.263C173.295 128.712 174.799 127.384 177.343 127.384C179.711 127.384 181.343 128.6 181.343 130.568C181.343 131.752 180.671 132.744 179.519 133.208V133.24C180.783 133.592 181.695 134.488 181.695 135.8C181.695 137.8 179.983 139.24 177.551 139.24ZM183.402 139V127.56H188.17C190.33 127.56 191.914 128.568 191.914 130.968C191.914 133.368 190.33 134.36 188.17 134.36H185.162V139H183.402ZM185.162 132.84H188.09C189.418 132.84 190.09 132.248 190.09 130.968C190.09 129.672 189.418 129.08 188.09 129.08H185.162V132.84ZM193.386 139V127.56H201.482V129.08H195.146V132.328H200.698V133.848H195.146V137.48H201.642V139H193.386ZM203.292 139V127.56H205.052V132.344H210.668V127.56H212.444V139H210.668V133.864H205.052V139H203.292ZM214.699 139V127.56H216.459V136.312H216.491L222.427 127.56H224.203V139H222.427V130.264H222.395L216.459 139H214.699ZM225.792 138.904C226.4 138.424 225.76 134.104 228.336 133.608V133.576C227.024 133.272 226.176 132.312 226.176 130.856C226.176 128.792 227.664 127.56 230.16 127.56H234.656V139H232.88V134.392H230.176C227.376 134.392 228.16 138.328 227.712 139H225.792V138.904ZM227.968 130.92C227.968 132.232 228.816 132.904 230.384 132.904H232.88V129.08H230.288C228.64 129.08 227.968 129.736 227.968 130.92ZM240.277 139V127.56H249.141V139H247.365V129.08H242.037V139H240.277ZM251.417 139V127.56H256.185C258.345 127.56 259.929 128.568 259.929 130.968C259.929 133.368 258.345 134.36 256.185 134.36H253.177V139H251.417ZM253.177 132.84H256.105C257.433 132.84 258.105 132.248 258.105 130.968C258.105 129.672 257.433 129.08 256.105 129.08H253.177V132.84ZM261.402 139V127.56H263.162V136.312H263.194L269.13 127.56H270.906V139H269.13V130.264H269.098L263.162 139H261.402ZM276.527 139V127.56H285.391V139H283.615V129.08H278.287V139H276.527ZM292.723 139.224C289.299 139.224 287.107 136.712 287.107 133.272C287.107 129.832 289.299 127.336 292.723 127.336C296.147 127.336 298.339 129.832 298.339 133.272C298.339 136.712 296.147 139.224 292.723 139.224ZM288.947 133.272C288.947 135.624 290.019 137.704 292.723 137.704C295.427 137.704 296.499 135.624 296.499 133.272C296.499 130.92 295.427 128.856 292.723 128.856C290.019 128.856 288.947 130.92 288.947 133.272ZM300.058 139V127.56H302.378L305.674 136.552H305.706L309.018 127.56H311.338V139H309.61V130.12H309.578L306.426 139H304.97L301.818 130.12H301.786V139H300.058ZM318.661 139.224C315.237 139.224 313.045 136.712 313.045 133.272C313.045 129.832 315.237 127.336 318.661 127.336C322.085 127.336 324.277 129.832 324.277 133.272C324.277 136.712 322.085 139.224 318.661 139.224ZM314.885 133.272C314.885 135.624 315.957 137.704 318.661 137.704C321.365 137.704 322.437 135.624 322.437 133.272C322.437 130.92 321.365 128.856 318.661 128.856C315.957 128.856 314.885 130.92 314.885 133.272ZM337.531 141.08V139.016H325.995V127.576H327.755V137.48H331.051V127.576H332.811V137.48H336.091V127.576H337.867V137.48H339.163V141.08H337.531ZM340.714 139V127.56H342.474V136.312H342.506L348.442 127.56H350.218V139H348.442V130.264H348.41L342.474 139H340.714ZM360.623 139.224C357.375 139.224 355.279 136.728 355.279 133.288C355.279 129.832 357.391 127.336 360.639 127.336C363.503 127.336 365.279 129.16 365.551 131.448H363.711C363.503 130.328 362.799 128.856 360.607 128.856C358.079 128.856 357.119 131 357.119 133.272C357.119 135.56 358.079 137.704 360.607 137.704C362.815 137.704 363.599 136.232 363.711 134.84H365.551C365.295 137.384 363.503 139.224 360.623 139.224ZM369.42 139V129.08H365.724V127.56H374.892V129.08H371.196V139H369.42ZM376.261 139V127.56H378.021V136.312H378.053L383.989 127.56H385.765V139H383.989V130.264H383.957L378.021 139H376.261ZM388.106 139.24C387.722 139.24 387.178 139.176 386.938 139.048V137.528C387.162 137.608 387.514 137.688 387.834 137.688C388.634 137.688 389.082 137.32 389.13 135.976L389.482 127.56H396.474V139H394.714V129.08H391.162L390.826 135.944C390.714 138.488 389.674 139.24 388.106 139.24ZM398.745 139V127.56H406.841V129.08H400.505V132.328H406.057V133.848H400.505V137.48H407.001V139H398.745ZM413.426 139.224C410.002 139.224 407.81 136.712 407.81 133.272C407.81 129.832 410.002 127.336 413.426 127.336C416.85 127.336 419.042 129.832 419.042 133.272C419.042 136.712 416.85 139.224 413.426 139.224ZM409.65 133.272C409.65 135.624 410.722 137.704 413.426 137.704C416.13 137.704 417.202 135.624 417.202 133.272C417.202 130.92 416.13 128.856 413.426 128.856C410.722 128.856 409.65 130.92 409.65 133.272ZM420.761 139V127.56H428.409V129.08H422.521V131.8H425.545C427.913 131.8 429.353 133.064 429.353 135.336C429.353 137.592 427.849 139 425.385 139H420.761ZM422.521 137.48H425.433C426.713 137.48 427.513 136.664 427.513 135.336C427.513 134.12 426.777 133.32 425.577 133.32H422.521V137.48ZM430.87 139V127.56H435.638C437.798 127.56 439.382 128.568 439.382 130.968C439.382 133.368 437.798 134.36 435.638 134.36H432.63V139H430.87ZM432.63 132.84H435.558C436.886 132.84 437.558 132.248 437.558 130.968C437.558 129.672 436.886 129.08 435.558 129.08H432.63V132.84ZM438.72 139L442.976 127.56H444.88L449.168 139H447.248L446.304 136.248H441.52L440.576 139H438.72ZM442.048 134.76H445.808L443.936 129.192H443.904L442.048 134.76ZM453.816 139.24C450.952 139.24 449.4 138.056 449.4 135.816H451.24C451.272 137.128 452.152 137.704 453.752 137.704C455.16 137.704 456.12 136.936 456.12 135.736C456.12 134.616 455.304 133.96 453.992 133.96H452.632V132.536H453.928C455.16 132.536 455.768 131.784 455.768 130.68C455.768 129.624 454.872 128.904 453.608 128.904C452.184 128.904 451.368 129.64 451.368 130.696H449.528C449.56 128.712 451.064 127.384 453.608 127.384C455.976 127.384 457.608 128.6 457.608 130.568C457.608 131.752 456.936 132.744 455.784 133.208V133.24C457.048 133.592 457.96 134.488 457.96 135.8C457.96 137.8 456.248 139.24 453.816 139.24ZM460.131 139L461.731 135.656L458.019 127.56H459.859L462.643 133.768H462.675L465.651 127.56H467.411L461.891 139H460.131ZM477.306 139.224C474.426 139.224 472.602 137.272 472.362 133.976H470.474V139H468.714V127.56H470.474V132.456H472.378C472.634 129.256 474.474 127.336 477.306 127.336C480.394 127.336 482.282 129.576 482.282 133.272C482.282 136.984 480.394 139.224 477.306 139.224ZM474.17 133.272C474.17 136.024 475.386 137.704 477.306 137.704C479.242 137.704 480.458 136.024 480.458 133.272C480.458 130.52 479.242 128.856 477.306 128.856C475.386 128.856 474.17 130.52 474.17 133.272ZM495.578 141.08V139.016H484.042V127.576H485.802V137.48H489.098V127.576H490.858V137.48H494.138V127.576H495.914V137.48H497.21V141.08H495.578ZM498.761 139V127.56H500.521V136.312H500.553L506.489 127.56H508.265V139H506.489V130.264H506.457L500.521 139H498.761ZM509.342 139L513.214 133.16L509.614 127.56H511.566L514.222 131.88H514.238L516.91 127.56H518.846L515.246 133.128L519.038 139H516.99L514.19 134.44H514.174L511.406 139H509.342ZM79.064 160.08V156.496H79.896C80.808 156.496 81.064 155.68 81.16 153.616L81.48 146.56H88.408V156.496H89.736V160.08H88.104V158.016H80.712V160.08H79.064ZM82.2 156.496H86.648V148.08H83.176L82.856 154.272C82.808 155.392 82.568 156.016 82.2 156.464V156.496ZM91.2923 158V146.56H99.3883V148.08H93.0523V151.328H98.6042V152.848H93.0523V156.48H99.5483V158H91.2923ZM103.795 158V148.08H100.099V146.56H109.267V148.08H105.571V158H103.795ZM108.08 158L112.336 146.56H114.24L118.528 158H116.608L115.664 155.248H110.88L109.936 158H108.08ZM111.408 153.76H115.168L113.296 148.192H113.264L111.408 153.76ZM119.934 158.24C119.55 158.24 119.006 158.176 118.766 158.048V156.528C118.99 156.608 119.342 156.688 119.662 156.688C120.462 156.688 120.91 156.32 120.958 154.976L121.31 146.56H128.302V158H126.542V148.08H122.99L122.654 154.944C122.542 157.488 121.502 158.24 119.934 158.24ZM130.574 158V146.56H138.67V148.08H132.334V151.328H137.885V152.848H132.334V156.48H138.83V158H130.574ZM140.48 158V146.56H142.24V155.312H142.272L148.208 146.56H149.984V158H148.208V149.264H148.176L142.24 158H140.48ZM143.072 143.28H144.144C144.192 144.048 144.544 144.384 145.232 144.384C145.92 144.384 146.256 144.048 146.304 143.28H147.376C147.312 144.704 146.464 145.488 145.232 145.488C144.016 145.488 143.12 144.752 143.072 143.28ZM151.877 159.312C152.469 159.136 152.725 158.832 152.709 158H151.877V156.256H153.621V158C153.621 159.04 153.157 159.856 151.877 160.176V159.312ZM156.952 158L160.824 152.16L157.224 146.56H159.176L161.832 150.88H161.848L164.52 146.56H166.456L162.856 152.128L166.648 158H164.6L161.8 153.44H161.784L159.016 158H156.952ZM166.689 158L170.945 146.56H172.849L177.137 158H175.217L174.273 155.248H169.489L168.545 158H166.689ZM170.017 153.76H173.777L171.905 148.192H171.873L170.017 153.76ZM178.324 158V146.56H183.092C185.252 146.56 186.836 147.568 186.836 149.968C186.836 152.368 185.252 153.36 183.092 153.36H180.084V158H178.324ZM180.084 151.84H183.012C184.34 151.84 185.012 151.248 185.012 149.968C185.012 148.672 184.34 148.08 183.012 148.08H180.084V151.84ZM186.173 158L190.429 146.56H192.333L196.621 158H194.701L193.757 155.248H188.973L188.029 158H186.173ZM189.501 153.76H193.261L191.389 148.192H191.357L189.501 153.76ZM205.056 158L200.88 153.2H199.568V158H197.808V146.56H199.568V151.664H200.912L205.024 146.56H206.944L202.304 152.304L207.28 158H205.056ZM210.967 158V148.08H207.271V146.56H216.439V148.08H212.743V158H210.967ZM217.808 158V146.56H225.904V148.08H219.568V151.328H225.12V152.848H219.568V156.48H226.064V158H217.808ZM227.714 158V146.56H232.482C234.642 146.56 236.226 147.568 236.226 149.968C236.226 152.368 234.642 153.36 232.482 153.36H229.474V158H227.714ZM229.474 151.84H232.402C233.73 151.84 234.402 151.248 234.402 149.968C234.402 148.672 233.73 148.08 232.402 148.08H229.474V151.84ZM237.699 158V146.56H239.459V151.344H245.075V146.56H246.851V158H245.075V152.864H239.459V158H237.699ZM249.105 158V146.56H250.865V150.688H253.105C255.441 150.688 256.913 151.984 256.913 154.288C256.913 156.576 255.377 158 252.945 158H249.105ZM250.865 156.48H252.993C254.273 156.48 255.089 155.632 255.089 154.288C255.089 153.024 254.337 152.208 253.137 152.208H250.865V156.48ZM258.161 158V146.56H259.921V158H258.161ZM260.998 158L264.871 152.16L261.271 146.56H263.223L265.879 150.88H265.895L268.567 146.56H270.503L266.903 152.128L270.695 158H268.647L265.847 153.44H265.831L263.062 158H260.998ZM273.455 160.08V156.496H274.287C275.199 156.496 275.455 155.68 275.551 153.616L275.871 146.56H282.799V156.496H284.127V160.08H282.495V158.016H275.103V160.08H273.455ZM276.591 156.496H281.039V148.08H277.567L277.247 154.272C277.199 155.392 276.959 156.016 276.591 156.464V156.496ZM285.747 158.24C285.363 158.24 284.819 158.176 284.579 158.048V156.528C284.803 156.608 285.155 156.688 285.475 156.688C286.275 156.688 286.723 156.32 286.771 154.976L287.123 146.56H294.115V158H292.355V148.08H288.803L288.467 154.944C288.355 157.488 287.315 158.24 285.747 158.24ZM295.698 157.904C296.306 157.424 295.666 153.104 298.242 152.608V152.576C296.93 152.272 296.082 151.312 296.082 149.856C296.082 147.792 297.57 146.56 300.066 146.56H304.562V158H302.786V153.392H300.082C297.282 153.392 298.066 157.328 297.618 158H295.698V157.904ZM297.874 149.92C297.874 151.232 298.722 151.904 300.29 151.904H302.786V148.08H300.194C298.546 148.08 297.874 148.736 297.874 149.92ZM312.53 158V148.08H308.834V146.56H318.002V148.08H314.306V158H312.53ZM319.37 158V146.56H327.466V148.08H321.13V151.328H326.682V152.848H321.13V156.48H327.626V158H319.37ZM329.277 158V146.56H331.597L334.893 155.552H334.925L338.237 146.56H340.557V158H338.829V149.12H338.797L335.645 158H334.189L331.037 149.12H331.005V158H329.277ZM341.752 158L346.008 146.56H347.912L352.2 158H350.28L349.336 155.248H344.552L343.608 158H341.752ZM345.08 153.76H348.84L346.968 148.192H346.936L345.08 153.76ZM354.702 158V148.08H351.006V146.56H360.174V148.08H356.478V158H354.702ZM361.542 158V146.56H363.302V155.312H363.334L369.27 146.56H371.046V158H369.27V149.264H369.238L363.302 158H361.542ZM380.572 158L376.396 153.2H375.084V158H373.324V146.56H375.084V151.664H376.428L380.54 146.56H382.46L377.82 152.304L382.796 158H380.572ZM383.683 158V146.56H385.443V155.312H385.475L391.411 146.56H393.187V158H391.411V149.264H391.379L385.443 158H383.683ZM402.504 158.24C399.64 158.24 398.088 157.056 398.088 154.816H399.928C399.96 156.128 400.84 156.704 402.44 156.704C403.848 156.704 404.808 155.936 404.808 154.736C404.808 153.616 403.992 152.96 402.68 152.96H401.32V151.536H402.616C403.848 151.536 404.456 150.784 404.456 149.68C404.456 148.624 403.56 147.904 402.296 147.904C400.872 147.904 400.056 148.64 400.056 149.696H398.216C398.248 147.712 399.752 146.384 402.296 146.384C404.664 146.384 406.296 147.6 406.296 149.568C406.296 150.752 405.624 151.744 404.472 152.208V152.24C405.736 152.592 406.648 153.488 406.648 154.8C406.648 156.8 404.936 158.24 402.504 158.24ZM408.355 158V146.56H413.123C415.283 146.56 416.867 147.568 416.867 149.968C416.867 152.368 415.283 153.36 413.123 153.36H410.115V158H408.355ZM410.115 151.84H413.043C414.371 151.84 415.043 151.248 415.043 149.968C415.043 148.672 414.371 148.08 413.043 148.08H410.115V151.84ZM418.339 158V146.56H426.435V148.08H420.099V151.328H425.651V152.848H420.099V156.48H426.595V158H418.339ZM428.245 158V146.56H430.005V151.344H435.621V146.56H437.397V158H435.621V152.864H430.005V158H428.245ZM439.652 158V146.56H441.412V155.312H441.444L447.38 146.56H449.156V158H447.38V149.264H447.348L441.412 158H439.652ZM450.745 157.904C451.353 157.424 450.713 153.104 453.289 152.608V152.576C451.977 152.272 451.129 151.312 451.129 149.856C451.129 147.792 452.617 146.56 455.113 146.56H459.609V158H457.833V153.392H455.129C452.329 153.392 453.113 157.328 452.665 158H450.745V157.904ZM452.921 149.92C452.921 151.232 453.769 151.904 455.337 151.904H457.833V148.08H455.241C453.593 148.08 452.921 148.736 452.921 149.92ZM461.47 158V156.256H463.214V158H461.47Z" fill="black"/>
<defs>
<filter id="filter0_f_1545_5084" x="0.400002" y="0.400002" width="578.2" height="244.2" filterUnits="userSpaceOnUse" color-interpolation-filters="sRGB">
<feFlood flood-opacity="0" result="BackgroundImageFix"/>
<feBlend mode="normal" in="SourceGraphic" in2="BackgroundImageFix" result="shape"/>
<feGaussianBlur stdDeviation="23.3" result="effect1_foregroundBlur_1545_5084"/>
</filter>
</defs>
</svg>
