<svg width="1124" height="1272" viewBox="0 0 1124 1272" fill="none" xmlns="http://www.w3.org/2000/svg">
<path d="M325.366 876.684C329.724 898.953 308.201 912.544 326.938 926.976L340.652 938.937C350.506 948.458 350.673 948.233 377.132 957.482L378.482 957.953C402.314 966.286 407.705 968.17 433.652 971.863C468.518 976.825 501.339 976.909 507.78 970.311C514.22 963.714 509.699 954.901 506.633 951.32C502.673 948.655 495.47 942.773 498.342 940.565C501.214 938.356 499.485 935.422 498.262 934.231C495.51 931.55 489.998 925.647 489.971 923.475C489.943 921.304 499.578 918.829 504.398 917.863C510.438 917.787 523.229 916.539 526.074 912.159C528.918 907.779 532.642 906.042 534.148 905.722C539.955 906.372 552.792 899.151 558.484 895.459C570.733 889.512 574.338 883.192 574.609 880.775C574.269 877.763 575.029 870.996 580.791 868.027C586.553 865.058 589.118 857.665 589.68 854.339C590.242 851.014 590.62 842.743 587.639 836.265C584.657 829.786 586.886 824.509 588.373 822.68C598.365 810.246 592.308 799.402 588.03 795.534C584.98 793.159 579.037 786.597 579.671 779.349C580.304 772.101 577.366 764.295 575.818 761.298C574.587 759.503 570.111 754.311 562.056 747.896C554.001 741.482 550.038 729.043 549.064 723.625C546.858 716.413 540.096 702.38 530.692 703.947C521.288 705.514 513.998 697.521 511.529 693.329C504.457 683.463 487.627 666.299 476.883 676.571C466.14 686.843 456.688 679.843 453.305 675.059C447.268 656.311 427.134 659.703 417.822 663.742C414.225 665.899 405.752 669.506 400.642 666.674C395.532 663.843 387.022 664.433 383.405 665.082L367.12 667.098C364.41 667.736 358.273 669.744 355.411 672.676C351.832 676.341 343.724 680.064 339.217 681.931C334.71 683.798 325.604 680.293 322.026 683.958C318.447 687.623 315.064 706.671 299.639 705.056C287.299 703.764 281.453 723.99 280.073 734.264C280.187 743.313 278.813 763.783 272.409 773.276C266.005 782.769 269.962 794.726 272.741 799.518C285.936 815.943 320.636 852.512 325.366 876.684Z" stroke="black" stroke-width="2.15561"/>
<rect x="291.406" y="694.431" width="10.7781" height="10.7781" transform="rotate(14.2761 291.406 694.431)" stroke="black" stroke-width="2.15561"/>
<rect x="326.004" y="672.095" width="8.62245" height="10.7781" transform="rotate(14.2761 326.004 672.095)" stroke="black" stroke-width="2.15561"/>
<rect x="369.455" y="658.685" width="8.62245" height="10.7781" transform="rotate(14.2761 369.455 658.685)" stroke="black" stroke-width="2.15561"/>
<rect x="405.005" y="658.834" width="10.7781" height="8.62245" transform="rotate(14.2761 405.005 658.834)" stroke="black" stroke-width="2.15561"/>
<rect x="435.884" y="651.119" width="10.7781" height="10.7781" transform="rotate(14.2761 435.884 651.119)" stroke="black" stroke-width="2.15561"/>
<rect x="459.853" y="670.564" width="8.62245" height="8.62245" transform="rotate(14.2761 459.853 670.564)" stroke="black" stroke-width="2.15561"/>
<rect x="494.872" y="672.806" width="10.7781" height="8.62245" transform="rotate(14.2761 494.872 672.806)" stroke="black" stroke-width="2.15561"/>
<rect x="517.777" y="696.427" width="8.62245" height="10.7781" transform="rotate(14.2761 517.777 696.427)" stroke="black" stroke-width="2.15561"/>
<rect x="544.898" y="712.224" width="8.62245" height="10.7781" transform="rotate(14.2761 544.898 712.224)" stroke="black" stroke-width="2.15561"/>
<rect x="568.79" y="749.443" width="10.7781" height="10.7781" transform="rotate(14.2761 568.79 749.443)" stroke="black" stroke-width="2.15561"/>
<rect x="582.24" y="784.006" width="8.62245" height="10.7781" transform="rotate(14.2761 582.24 784.006)" stroke="black" stroke-width="2.15561"/>
<rect x="586.231" y="829.51" width="8.62245" height="8.62245" transform="rotate(14.2761 586.231 829.51)" stroke="black" stroke-width="2.15561"/>
<rect x="576.131" y="869.201" width="8.62245" height="10.7781" transform="rotate(14.2761 576.131 869.201)" stroke="black" stroke-width="2.15561"/>
<rect x="527.366" y="903.502" width="8.62245" height="10.7781" transform="rotate(14.2761 527.366 903.502)" stroke="black" stroke-width="2.15561"/>
<rect x="486.005" y="917.443" width="10.7781" height="10.7781" transform="rotate(14.2761 486.005 917.443)" stroke="black" stroke-width="2.15561"/>
<rect x="506.253" y="951.513" width="8.62245" height="8.62245" transform="rotate(14.2761 506.253 951.513)" stroke="black" stroke-width="2.15561"/>
<rect x="458.093" y="965.951" width="10.7781" height="10.7781" transform="rotate(14.2761 458.093 965.951)" stroke="black" stroke-width="2.15561"/>
<rect x="410.539" y="960.525" width="8.62245" height="10.7781" transform="rotate(14.2761 410.539 960.525)" stroke="black" stroke-width="2.15561"/>
<rect x="354.667" y="944.08" width="10.7781" height="8.62245" transform="rotate(14.2761 354.667 944.08)" stroke="black" stroke-width="2.15561"/>
<rect x="314.554" y="909.408" width="8.62245" height="8.62245" transform="rotate(14.2761 314.554 909.408)" stroke="black" stroke-width="2.15561"/>
<rect x="317.362" y="863.412" width="8.62245" height="8.62245" transform="rotate(14.2761 317.362 863.412)" stroke="black" stroke-width="2.15561"/>
<rect x="285.148" y="815.177" width="10.7781" height="8.62245" transform="rotate(14.2761 285.148 815.177)" stroke="black" stroke-width="2.15561"/>
<rect x="263.344" y="778.49" width="10.7781" height="8.62245" transform="rotate(14.2761 263.344 778.49)" stroke="black" stroke-width="2.15561"/>
<rect x="275.57" y="730.443" width="10.7781" height="10.7781" transform="rotate(14.2761 275.57 730.443)" stroke="black" stroke-width="2.15561"/>
<mask id="path-26-outside-1_1545_5081" maskUnits="userSpaceOnUse" x="651.312" y="921.51" width="50.1872" height="24.8945" fill="black">
<rect fill="white" x="651.312" y="921.51" width="50.1872" height="24.8945"/>
<path d="M655.547 925.059L698.167 939.849L697.166 942.733L654.547 927.943L655.547 925.059Z"/>
</mask>
<path d="M655.547 925.059L656.254 923.023L654.218 922.316L653.511 924.353L655.547 925.059ZM698.167 939.849L700.203 940.556L700.91 938.519L698.874 937.813L698.167 939.849ZM697.166 942.733L696.46 944.769L698.496 945.476L699.203 943.439L697.166 942.733ZM654.547 927.943L652.51 927.236L651.804 929.273L653.84 929.98L654.547 927.943ZM654.841 927.096L697.46 941.886L698.874 937.813L656.254 923.023L654.841 927.096ZM696.13 939.142L695.13 942.026L699.203 943.439L700.203 940.556L696.13 939.142ZM697.873 940.696L655.253 925.907L653.84 929.98L696.46 944.769L697.873 940.696ZM656.583 928.65L657.584 925.766L653.511 924.353L652.51 927.236L656.583 928.65Z" fill="black" mask="url(#path-26-outside-1_1545_5081)"/>
<mask id="path-28-outside-2_1545_5081" maskUnits="userSpaceOnUse" x="641.791" y="946.48" width="49.0518" height="29.5001" fill="black">
<rect fill="white" x="641.791" y="946.48" width="49.0518" height="29.5001"/>
<path d="M646.534 950.147L687.322 969.422L686.017 972.181L645.23 952.906L646.534 950.147Z"/>
</mask>
<path d="M646.534 950.147L647.455 948.198L645.506 947.277L644.585 949.226L646.534 950.147ZM687.322 969.422L689.27 970.343L690.191 968.394L688.243 967.473L687.322 969.422ZM686.017 972.181L685.096 974.13L687.045 975.051L687.966 973.102L686.017 972.181ZM645.23 952.906L643.281 951.985L642.36 953.934L644.309 954.855L645.23 952.906ZM645.613 952.096L686.401 971.371L688.243 967.473L647.455 948.198L645.613 952.096ZM685.373 968.501L684.068 971.26L687.966 973.102L689.27 970.343L685.373 968.501ZM686.938 970.232L646.151 950.958L644.309 954.855L685.096 974.13L686.938 970.232ZM647.179 953.827L648.483 951.068L644.585 949.226L643.281 951.985L647.179 953.827Z" fill="black" mask="url(#path-28-outside-2_1545_5081)"/>
<mask id="path-30-outside-3_1545_5081" maskUnits="userSpaceOnUse" x="629.859" y="970.032" width="47.3695" height="33.7265" fill="black">
<rect fill="white" x="629.859" y="970.032" width="47.3695" height="33.7265"/>
<path d="M635.05 973.774L673.56 997.272L671.97 999.877L633.46 976.379L635.05 973.774Z"/>
</mask>
<path d="M635.05 973.774L636.173 971.934L634.333 970.811L633.21 972.651L635.05 973.774ZM673.56 997.272L675.4 998.395L676.523 996.554L674.683 995.432L673.56 997.272ZM671.97 999.877L670.847 1001.72L672.687 1002.84L673.81 1001L671.97 999.877ZM633.46 976.379L631.62 975.256L630.497 977.097L632.337 978.219L633.46 976.379ZM633.927 975.614L672.437 999.112L674.683 995.432L636.173 971.934L633.927 975.614ZM671.72 996.149L670.13 998.755L673.81 1001L675.4 998.395L671.72 996.149ZM673.093 998.037L634.583 974.539L632.337 978.219L670.847 1001.72L673.093 998.037ZM635.3 977.502L636.89 974.896L633.21 972.651L631.62 975.256L635.3 977.502Z" fill="black" mask="url(#path-30-outside-3_1545_5081)"/>
<mask id="path-32-outside-4_1545_5081" maskUnits="userSpaceOnUse" x="615.62" y="992.139" width="45.1804" height="37.5285" fill="black">
<rect fill="white" x="615.62" y="992.139" width="45.1804" height="37.5285"/>
<path d="M621.196 995.913L657.026 1023.32L655.172 1025.75L619.341 998.337L621.196 995.913Z"/>
</mask>
<path d="M621.196 995.913L622.506 994.201L620.794 992.891L619.484 994.603L621.196 995.913ZM657.026 1023.32L658.738 1024.63L660.048 1022.92L658.336 1021.61L657.026 1023.32ZM655.172 1025.75L653.862 1027.46L655.574 1028.77L656.884 1027.06L655.172 1025.75ZM619.341 998.337L617.629 997.027L616.32 998.739L618.032 1000.05L619.341 998.337ZM619.886 997.625L655.716 1025.04L658.336 1021.61L622.506 994.201L619.886 997.625ZM655.314 1022.01L653.46 1024.44L656.884 1027.06L658.738 1024.63L655.314 1022.01ZM656.481 1024.04L620.651 996.625L618.032 1000.05L653.862 1027.46L656.481 1024.04ZM621.053 999.647L622.908 997.223L619.484 994.603L617.629 997.027L621.053 999.647Z" fill="black" mask="url(#path-32-outside-4_1545_5081)"/>
<mask id="path-34-outside-5_1545_5081" maskUnits="userSpaceOnUse" x="598.906" y="1013.02" width="42.4242" height="40.9888" fill="black">
<rect fill="white" x="598.906" y="1013.02" width="42.4242" height="40.9888"/>
<path d="M604.812 1016.78L637.492 1047.88L635.387 1050.09L602.708 1018.99L604.812 1016.78Z"/>
</mask>
<path d="M604.812 1016.78L606.298 1015.22L604.737 1013.74L603.251 1015.3L604.812 1016.78ZM637.492 1047.88L639.053 1049.37L640.539 1047.81L638.978 1046.32L637.492 1047.88ZM635.387 1050.09L633.901 1051.66L635.463 1053.14L636.949 1051.58L635.387 1050.09ZM602.708 1018.99L601.147 1017.51L599.661 1019.07L601.222 1020.56L602.708 1018.99ZM603.326 1018.34L636.006 1049.44L638.978 1046.32L606.298 1015.22L603.326 1018.34ZM635.93 1046.4L633.826 1048.61L636.949 1051.58L639.053 1049.37L635.93 1046.4ZM636.874 1048.53L604.194 1017.43L601.222 1020.56L633.901 1051.66L636.874 1048.53ZM604.27 1020.48L606.374 1018.27L603.251 1015.3L601.147 1017.51L604.27 1020.48Z" fill="black" mask="url(#path-34-outside-5_1545_5081)"/>
<mask id="path-36-outside-6_1545_5081" maskUnits="userSpaceOnUse" x="580.206" y="1032.01" width="39.2143" height="43.946" fill="black">
<rect fill="white" x="580.206" y="1032.01" width="39.2143" height="43.946"/>
<path d="M586.371 1035.72L615.561 1070.11L613.234 1072.09L584.044 1037.69L586.371 1035.72Z"/>
</mask>
<path d="M586.371 1035.72L588.015 1034.32L586.62 1032.68L584.976 1034.07L586.371 1035.72ZM615.561 1070.11L616.956 1071.76L618.599 1070.36L617.205 1068.72L615.561 1070.11ZM613.234 1072.09L611.59 1073.48L612.985 1075.13L614.629 1073.73L613.234 1072.09ZM584.044 1037.69L582.649 1036.05L581.006 1037.44L582.4 1039.09L584.044 1037.69ZM584.728 1037.11L613.918 1071.51L617.205 1068.72L588.015 1034.32L584.728 1037.11ZM614.166 1068.47L611.839 1070.44L614.629 1073.73L616.956 1071.76L614.166 1068.47ZM614.877 1070.69L585.688 1036.3L582.4 1039.09L611.59 1073.48L614.877 1070.69ZM585.439 1039.34L587.766 1037.36L584.976 1034.07L582.649 1036.05L585.439 1039.34Z" fill="black" mask="url(#path-36-outside-6_1545_5081)"/>
<mask id="path-38-outside-7_1545_5081" maskUnits="userSpaceOnUse" x="559.678" y="1048.94" width="35.5883" height="46.3898" fill="black">
<rect fill="white" x="559.678" y="1048.94" width="35.5883" height="46.3898"/>
<path d="M566.032 1052.56L591.431 1089.84L588.908 1091.56L563.51 1054.27L566.032 1052.56Z"/>
</mask>
<path d="M566.032 1052.56L567.814 1051.34L566.6 1049.56L564.819 1050.77L566.032 1052.56ZM591.431 1089.84L592.644 1091.62L594.426 1090.41L593.212 1088.63L591.431 1089.84ZM588.908 1091.56L587.127 1092.77L588.34 1094.55L590.122 1093.34L588.908 1091.56ZM563.51 1054.27L562.296 1052.49L560.514 1053.71L561.728 1055.49L563.51 1054.27ZM564.251 1053.77L589.649 1091.05L593.212 1088.63L567.814 1051.34L564.251 1053.77ZM590.217 1088.06L587.694 1089.78L590.122 1093.34L592.644 1091.62L590.217 1088.06ZM590.69 1090.34L565.291 1053.06L561.728 1055.49L587.127 1092.77L590.69 1090.34ZM564.723 1056.06L567.246 1054.34L564.819 1050.77L562.296 1052.49L564.723 1056.06Z" fill="black" mask="url(#path-38-outside-7_1545_5081)"/>
<mask id="path-40-outside-8_1545_5081" maskUnits="userSpaceOnUse" x="537.569" y="1063.66" width="31.577" height="48.3111" fill="black">
<rect fill="white" x="537.569" y="1063.66" width="31.577" height="48.3111"/>
<path d="M544.04 1067.14L565.376 1106.89L562.686 1108.33L541.35 1068.59L544.04 1067.14Z"/>
</mask>
<path d="M544.04 1067.14L545.939 1066.12L544.92 1064.22L543.02 1065.24L544.04 1067.14ZM565.376 1106.89L566.395 1108.79L568.294 1107.77L567.275 1105.87L565.376 1106.89ZM562.686 1108.33L560.787 1109.35L561.806 1111.25L563.706 1110.23L562.686 1108.33ZM541.35 1068.59L540.331 1066.69L538.432 1067.71L539.451 1069.61L541.35 1068.59ZM542.141 1068.16L563.476 1107.91L567.275 1105.87L545.939 1066.12L542.141 1068.16ZM564.356 1104.99L561.667 1106.44L563.706 1110.23L566.395 1108.79L564.356 1104.99ZM564.585 1107.32L543.25 1067.57L539.451 1069.61L560.787 1109.35L564.585 1107.32ZM542.37 1070.49L545.059 1069.04L543.02 1065.24L540.331 1066.69L542.37 1070.49Z" fill="black" mask="url(#path-40-outside-8_1545_5081)"/>
<mask id="path-42-outside-9_1545_5081" maskUnits="userSpaceOnUse" x="514.103" y="1076.02" width="27.2063" height="49.6987" fill="black">
<rect fill="white" x="514.103" y="1076.02" width="27.2063" height="49.6987"/>
<path d="M520.62 1079.33L537.647 1121.11L534.821 1122.26L517.793 1080.49L520.62 1079.33Z"/>
</mask>
<path d="M520.62 1079.33L522.616 1078.52L521.802 1076.52L519.806 1077.34L520.62 1079.33ZM537.647 1121.11L538.461 1123.11L540.457 1122.29L539.643 1120.3L537.647 1121.11ZM534.821 1122.26L532.824 1123.07L533.638 1125.07L535.634 1124.26L534.821 1122.26ZM517.793 1080.49L516.98 1078.49L514.983 1079.3L515.797 1081.3L517.793 1080.49ZM518.624 1080.15L535.651 1121.92L539.643 1120.3L522.616 1078.52L518.624 1080.15ZM536.834 1119.11L534.007 1120.26L535.634 1124.26L538.461 1123.11L536.834 1119.11ZM536.817 1121.45L519.789 1079.67L515.797 1081.3L532.824 1123.07L536.817 1121.45ZM518.607 1082.48L521.433 1081.33L519.806 1077.34L516.98 1078.49L518.607 1082.48Z" fill="black" mask="url(#path-42-outside-9_1545_5081)"/>
<mask id="path-44-outside-10_1545_5081" maskUnits="userSpaceOnUse" x="489.565" y="1085.88" width="22.5009" height="50.5361" fill="black">
<rect fill="white" x="489.565" y="1085.88" width="22.5009" height="50.5361"/>
<path d="M496.054 1088.98L508.553 1132.32L505.621 1133.17L493.121 1089.82L496.054 1088.98Z"/>
</mask>
<path d="M496.054 1088.98L498.125 1088.38L497.528 1086.31L495.457 1086.91L496.054 1088.98ZM508.553 1132.32L509.151 1134.4L511.222 1133.8L510.625 1131.73L508.553 1132.32ZM505.621 1133.17L503.549 1133.77L504.147 1135.84L506.218 1135.24L505.621 1133.17ZM493.121 1089.82L492.524 1087.75L490.453 1088.35L491.05 1090.42L493.121 1089.82ZM493.983 1089.58L506.482 1132.92L510.625 1131.73L498.125 1088.38L493.983 1089.58ZM507.956 1130.25L505.023 1131.1L506.218 1135.24L509.151 1134.4L507.956 1130.25ZM507.692 1132.57L495.193 1089.23L491.05 1090.42L503.549 1133.77L507.692 1132.57ZM493.719 1091.9L496.651 1091.05L495.457 1086.91L492.524 1087.75L493.719 1091.9Z" fill="black" mask="url(#path-44-outside-10_1545_5081)"/>
<mask id="path-46-outside-11_1545_5081" maskUnits="userSpaceOnUse" x="464.26" y="1093.12" width="17.4897" height="50.803" fill="black">
<rect fill="white" x="464.26" y="1093.12" width="17.4897" height="50.803"/>
<path d="M470.647 1095.97L478.429 1140.41L475.422 1140.93L467.641 1096.5L470.647 1095.97Z"/>
</mask>
<path d="M470.647 1095.97L472.771 1095.6L472.399 1093.48L470.275 1093.85L470.647 1095.97ZM478.429 1140.41L478.801 1142.53L480.924 1142.16L480.552 1140.04L478.429 1140.41ZM475.422 1140.93L473.299 1141.31L473.671 1143.43L475.794 1143.06L475.422 1140.93ZM467.641 1096.5L467.269 1094.38L465.146 1094.75L465.517 1096.87L467.641 1096.5ZM468.524 1096.34L476.306 1140.78L480.552 1140.04L472.771 1095.6L468.524 1096.34ZM478.057 1138.29L475.05 1138.81L475.794 1143.06L478.801 1142.53L478.057 1138.29ZM477.546 1140.56L469.764 1096.13L465.517 1096.87L473.299 1141.31L477.546 1140.56ZM468.012 1098.62L471.019 1098.1L470.275 1093.85L467.269 1094.38L468.012 1098.62Z" fill="black" mask="url(#path-46-outside-11_1545_5081)"/>
<mask id="path-48-outside-12_1545_5081" maskUnits="userSpaceOnUse" x="438.408" y="1097.61" width="12.3974" height="50.4983" fill="black">
<rect fill="white" x="438.408" y="1097.61" width="12.3974" height="50.4983"/>
<path d="M444.625 1100.18L447.709 1145.19L444.664 1145.4L441.579 1100.39L444.625 1100.18Z"/>
</mask>
<path d="M444.625 1100.18L446.775 1100.04L446.628 1097.89L444.477 1098.03L444.625 1100.18ZM447.709 1145.19L447.856 1147.34L450.007 1147.19L449.86 1145.04L447.709 1145.19ZM444.664 1145.4L442.513 1145.55L442.661 1147.7L444.811 1147.55L444.664 1145.4ZM441.579 1100.39L441.432 1098.24L439.281 1098.39L439.429 1100.54L441.579 1100.39ZM442.474 1100.33L445.558 1145.34L449.86 1145.04L446.775 1100.04L442.474 1100.33ZM447.562 1143.04L444.516 1143.25L444.811 1147.55L447.856 1147.34L447.562 1143.04ZM446.814 1145.25L443.73 1100.24L439.429 1100.54L442.513 1145.55L446.814 1145.25ZM441.727 1102.54L444.772 1102.33L444.477 1098.03L441.432 1098.24L441.727 1102.54Z" fill="black" mask="url(#path-48-outside-12_1545_5081)"/>
<mask id="path-50-outside-13_1545_5081" maskUnits="userSpaceOnUse" x="410.333" y="1099.01" width="11.0714" height="50.331" fill="black">
<rect fill="white" x="410.333" y="1099.01" width="11.0714" height="50.331"/>
<path d="M418.377 1101.64L416.501 1146.72L413.451 1146.59L415.327 1101.52L418.377 1101.64Z"/>
</mask>
<path d="M418.377 1101.64L420.53 1101.73L420.62 1099.58L418.466 1099.49L418.377 1101.64ZM416.501 1146.72L416.411 1148.87L418.565 1148.96L418.654 1146.81L416.501 1146.72ZM413.451 1146.59L411.297 1146.5L411.207 1148.65L413.361 1148.74L413.451 1146.59ZM415.327 1101.52L415.416 1099.36L413.263 1099.27L413.173 1101.43L415.327 1101.52ZM416.223 1101.55L414.347 1146.63L418.654 1146.81L420.53 1101.73L416.223 1101.55ZM416.59 1144.56L413.541 1144.44L413.361 1148.74L416.411 1148.87L416.59 1144.56ZM415.605 1146.68L417.481 1101.61L413.173 1101.43L411.297 1146.5L415.605 1146.68ZM415.237 1103.67L418.287 1103.8L418.466 1099.49L415.416 1099.36L415.237 1103.67Z" fill="black" mask="url(#path-50-outside-13_1545_5081)"/>
<mask id="path-52-outside-14_1545_5081" maskUnits="userSpaceOnUse" x="379.125" y="1096.99" width="16.1336" height="50.7758" fill="black">
<rect fill="white" x="379.125" y="1096.99" width="16.1336" height="50.7758"/>
<path d="M392.014 1100.22L385.492 1144.86L382.472 1144.41L388.994 1099.78L392.014 1100.22Z"/>
</mask>
<path d="M392.014 1100.22L394.147 1100.53L394.458 1098.39L392.325 1098.08L392.014 1100.22ZM385.492 1144.86L385.181 1146.99L387.314 1147.3L387.625 1145.17L385.492 1144.86ZM382.472 1144.41L380.339 1144.1L380.027 1146.24L382.16 1146.55L382.472 1144.41ZM388.994 1099.78L389.305 1097.64L387.172 1097.33L386.861 1099.46L388.994 1099.78ZM389.881 1099.9L383.359 1144.54L387.625 1145.17L394.147 1100.53L389.881 1099.9ZM385.804 1142.72L382.784 1142.28L382.16 1146.55L385.181 1146.99L385.804 1142.72ZM384.605 1144.73L391.127 1100.09L386.861 1099.46L380.339 1144.1L384.605 1144.73ZM388.682 1101.91L391.702 1102.35L392.325 1098.08L389.305 1097.64L388.682 1101.91Z" fill="black" mask="url(#path-52-outside-14_1545_5081)"/>
<mask id="path-54-outside-15_1545_5081" maskUnits="userSpaceOnUse" x="347.113" y="1092.04" width="21.4081" height="50.6459" fill="black">
<rect fill="white" x="347.113" y="1092.04" width="21.4081" height="50.6459"/>
<path d="M365.082 1095.88L353.62 1139.52L350.668 1138.74L362.129 1095.11L365.082 1095.88Z"/>
</mask>
<path d="M365.082 1095.88L367.166 1096.43L367.714 1094.35L365.629 1093.8L365.082 1095.88ZM353.62 1139.52L353.072 1141.6L355.157 1142.15L355.705 1140.06L353.62 1139.52ZM350.668 1138.74L348.583 1138.19L348.035 1140.28L350.12 1140.83L350.668 1138.74ZM362.129 1095.11L362.677 1093.02L360.592 1092.48L360.045 1094.56L362.129 1095.11ZM362.997 1095.34L351.535 1138.97L355.705 1140.06L367.166 1096.43L362.997 1095.34ZM354.168 1137.43L351.215 1136.66L350.12 1140.83L353.072 1141.6L354.168 1137.43ZM352.753 1139.29L364.214 1095.66L360.045 1094.56L348.583 1138.19L352.753 1139.29ZM361.582 1097.19L364.534 1097.97L365.629 1093.8L362.677 1093.02L361.582 1097.19Z" fill="black" mask="url(#path-54-outside-15_1545_5081)"/>
<mask id="path-56-outside-16_1545_5081" maskUnits="userSpaceOnUse" x="317.149" y="1084.53" width="26.0782" height="49.9566" fill="black">
<rect fill="white" x="317.149" y="1084.53" width="26.0782" height="49.9566"/>
<path d="M339.645 1088.9L323.713 1131.1L320.857 1130.03L336.789 1087.82L339.645 1088.9Z"/>
</mask>
<path d="M339.645 1088.9L341.662 1089.66L342.423 1087.64L340.406 1086.88L339.645 1088.9ZM323.713 1131.1L322.952 1133.12L324.968 1133.88L325.73 1131.87L323.713 1131.1ZM320.857 1130.03L318.84 1129.27L318.079 1131.28L320.096 1132.04L320.857 1130.03ZM336.789 1087.82L337.551 1085.8L335.534 1085.04L334.773 1087.06L336.789 1087.82ZM337.628 1088.14L321.696 1130.34L325.73 1131.87L341.662 1089.66L337.628 1088.14ZM324.474 1129.09L321.618 1128.01L320.096 1132.04L322.952 1133.12L324.474 1129.09ZM322.874 1130.79L338.806 1088.58L334.773 1087.06L318.84 1129.27L322.874 1130.79ZM336.028 1089.84L338.884 1090.92L340.406 1086.88L337.551 1085.8L336.028 1089.84Z" fill="black" mask="url(#path-56-outside-16_1545_5081)"/>
<mask id="path-58-outside-17_1545_5081" maskUnits="userSpaceOnUse" x="288.228" y="1074.46" width="30.5944" height="48.681" fill="black">
<rect fill="white" x="288.228" y="1074.46" width="30.5944" height="48.681"/>
<path d="M315.133 1079.32L294.776 1119.58L292.052 1118.2L312.409 1077.95L315.133 1079.32Z"/>
</mask>
<path d="M315.133 1079.32L317.057 1080.3L318.029 1078.37L316.106 1077.4L315.133 1079.32ZM294.776 1119.58L293.803 1121.5L295.727 1122.48L296.699 1120.55L294.776 1119.58ZM292.052 1118.2L290.128 1117.23L289.155 1119.15L291.079 1120.13L292.052 1118.2ZM312.409 1077.95L313.382 1076.02L311.458 1075.05L310.485 1076.97L312.409 1077.95ZM313.209 1078.35L292.852 1118.61L296.699 1120.55L317.057 1080.3L313.209 1078.35ZM295.748 1117.66L293.024 1116.28L291.079 1120.13L293.803 1121.5L295.748 1117.66ZM293.975 1119.18L314.333 1078.92L310.485 1076.97L290.128 1117.23L293.975 1119.18ZM311.436 1079.87L314.16 1081.25L316.106 1077.4L313.382 1076.02L311.436 1079.87Z" fill="black" mask="url(#path-58-outside-17_1545_5081)"/>
<mask id="path-60-outside-18_1545_5081" maskUnits="userSpaceOnUse" x="260.809" y="1061.88" width="34.7182" height="46.8681" fill="black">
<rect fill="white" x="260.809" y="1061.88" width="34.7182" height="46.8681"/>
<path d="M291.773 1067.17L267.266 1105.05L264.704 1103.39L289.211 1065.51L291.773 1067.17Z"/>
</mask>
<path d="M291.773 1067.17L293.583 1068.34L294.754 1066.53L292.944 1065.36L291.773 1067.17ZM267.266 1105.05L266.095 1106.86L267.905 1108.03L269.076 1106.22L267.266 1105.05ZM264.704 1103.39L262.894 1102.22L261.723 1104.03L263.533 1105.2L264.704 1103.39ZM289.211 1065.51L290.382 1063.7L288.572 1062.53L287.401 1064.34L289.211 1065.51ZM289.964 1066L265.457 1103.88L269.076 1106.22L293.583 1068.34L289.964 1066ZM268.438 1103.24L265.875 1101.58L263.533 1105.2L266.095 1106.86L268.438 1103.24ZM266.514 1104.56L291.021 1066.68L287.401 1064.34L262.894 1102.22L266.514 1104.56ZM288.04 1067.32L290.602 1068.98L292.944 1065.36L290.382 1063.7L288.04 1067.32Z" fill="black" mask="url(#path-60-outside-18_1545_5081)"/>
<mask id="path-62-outside-19_1545_5081" maskUnits="userSpaceOnUse" x="235.234" y="1046.94" width="38.409" height="44.5589" fill="black">
<rect fill="white" x="235.234" y="1046.94" width="38.409" height="44.5589"/>
<path d="M269.868 1052.6L241.532 1087.71L239.157 1085.79L267.493 1050.69L269.868 1052.6Z"/>
</mask>
<path d="M269.868 1052.6L271.546 1053.96L272.9 1052.28L271.222 1050.93L269.868 1052.6ZM241.532 1087.71L240.178 1089.38L241.856 1090.74L243.21 1089.06L241.532 1087.71ZM239.157 1085.79L237.48 1084.44L236.126 1086.11L237.803 1087.47L239.157 1085.79ZM267.493 1050.69L268.847 1049.01L267.17 1047.66L265.816 1049.33L267.493 1050.69ZM268.191 1051.25L239.855 1086.35L243.21 1089.06L271.546 1053.96L268.191 1051.25ZM242.886 1086.03L240.511 1084.11L237.803 1087.47L240.178 1089.38L242.886 1086.03ZM240.834 1087.14L269.171 1052.04L265.816 1049.33L237.48 1084.44L240.834 1087.14ZM266.139 1052.36L268.514 1054.28L271.222 1050.93L268.847 1049.01L266.139 1052.36Z" fill="black" mask="url(#path-62-outside-19_1545_5081)"/>
<mask id="path-64-outside-20_1545_5081" maskUnits="userSpaceOnUse" x="211.647" y="1029.84" width="41.7492" height="41.6894" fill="black">
<rect fill="white" x="211.647" y="1029.84" width="41.7492" height="41.6894"/>
<path d="M249.642 1035.81L217.709 1067.68L215.553 1065.52L247.486 1033.65L249.642 1035.81Z"/>
</mask>
<path d="M249.642 1035.81L251.164 1037.34L252.69 1035.82L251.167 1034.29L249.642 1035.81ZM217.709 1067.68L216.184 1069.2L217.706 1070.73L219.232 1069.21L217.709 1067.68ZM215.553 1065.52L214.031 1063.99L212.505 1065.52L214.027 1067.04L215.553 1065.52ZM247.486 1033.65L249.011 1032.13L247.489 1030.61L245.963 1032.13L247.486 1033.65ZM248.119 1034.29L216.187 1066.15L219.232 1069.21L251.164 1037.34L248.119 1034.29ZM219.235 1066.16L217.079 1064L214.027 1067.04L216.184 1069.2L219.235 1066.16ZM217.076 1067.05L249.008 1035.18L245.963 1032.13L214.031 1063.99L217.076 1067.05ZM245.96 1035.18L248.116 1037.34L251.167 1034.29L249.011 1032.13L245.96 1035.18Z" fill="black" mask="url(#path-64-outside-20_1545_5081)"/>
<mask id="path-66-outside-21_1545_5081" maskUnits="userSpaceOnUse" x="190.405" y="1010.74" width="44.5832" height="38.3758" fill="black">
<rect fill="white" x="190.405" y="1010.74" width="44.5832" height="38.3758"/>
<path d="M231.297 1016.96L196.166 1045.26L194.251 1042.88L229.382 1014.58L231.297 1016.96Z"/>
</mask>
<path d="M231.297 1016.96L232.65 1018.63L234.328 1017.28L232.976 1015.6L231.297 1016.96ZM196.166 1045.26L194.487 1046.61L195.84 1048.29L197.518 1046.94L196.166 1045.26ZM194.251 1042.88L192.899 1041.2L191.22 1042.55L192.573 1044.23L194.251 1042.88ZM229.382 1014.58L231.061 1013.23L229.709 1011.55L228.03 1012.9L229.382 1014.58ZM229.945 1015.28L194.814 1043.58L197.518 1046.94L232.65 1018.63L229.945 1015.28ZM197.845 1043.9L195.93 1041.53L192.573 1044.23L194.487 1046.61L197.845 1043.9ZM195.603 1044.56L230.735 1016.26L228.03 1012.9L192.899 1041.2L195.603 1044.56ZM227.704 1015.93L229.619 1018.31L232.976 1015.6L231.061 1013.23L227.704 1015.93Z" fill="black" mask="url(#path-66-outside-21_1545_5081)"/>
<mask id="path-68-outside-22_1545_5081" maskUnits="userSpaceOnUse" x="171.748" y="989.884" width="46.9017" height="34.6543" fill="black">
<rect fill="white" x="171.748" y="989.884" width="46.9017" height="34.6543"/>
<path d="M215.063 996.273L177.145 1020.71L175.492 1018.15L213.409 993.707L215.063 996.273Z"/>
</mask>
<path d="M215.063 996.273L216.231 998.084L218.043 996.917L216.875 995.105L215.063 996.273ZM177.145 1020.71L175.333 1021.88L176.501 1023.69L178.313 1022.53L177.145 1020.71ZM175.492 1018.15L174.324 1016.34L172.512 1017.5L173.68 1019.32L175.492 1018.15ZM213.409 993.707L215.221 992.539L214.053 990.727L212.241 991.895L213.409 993.707ZM213.895 994.461L175.977 1018.9L178.313 1022.53L216.231 998.084L213.895 994.461ZM178.957 1019.55L177.303 1016.98L173.68 1019.32L175.333 1021.88L178.957 1019.55ZM176.659 1019.96L214.577 995.519L212.241 991.895L174.324 1016.34L176.659 1019.96ZM211.597 994.875L213.251 997.44L216.875 995.105L215.221 992.539L211.597 994.875Z" fill="black" mask="url(#path-68-outside-22_1545_5081)"/>
<mask id="path-70-outside-23_1545_5081" maskUnits="userSpaceOnUse" x="155.847" y="967.515" width="48.6954" height="30.554" fill="black">
<rect fill="white" x="155.847" y="967.515" width="48.6954" height="30.554"/>
<path d="M201.099 974.004L160.82 994.322L159.446 991.596L199.724 971.279L201.099 974.004Z"/>
</mask>
<path d="M201.099 974.004L202.07 975.929L203.994 974.958L203.023 973.034L201.099 974.004ZM160.82 994.322L158.896 995.293L159.866 997.217L161.791 996.246L160.82 994.322ZM159.446 991.596L158.475 989.672L156.55 990.643L157.521 992.567L159.446 991.596ZM199.724 971.279L201.649 970.308L200.678 968.384L198.753 969.354L199.724 971.279ZM200.128 972.08L159.849 992.397L161.791 996.246L202.07 975.929L200.128 972.08ZM162.745 993.351L161.37 990.626L157.521 992.567L158.896 995.293L162.745 993.351ZM160.416 993.521L200.695 973.204L198.753 969.354L158.475 989.672L160.416 993.521ZM197.799 972.25L199.174 974.975L203.023 973.034L201.649 970.308L197.799 972.25Z" fill="black" mask="url(#path-70-outside-23_1545_5081)"/>
<mask id="path-72-outside-24_1545_5081" maskUnits="userSpaceOnUse" x="142.851" y="943.875" width="49.9519" height="26.1002" fill="black">
<rect fill="white" x="142.851" y="943.875" width="49.9519" height="26.1002"/>
<path d="M189.542 950.392L147.344 966.345L146.265 963.49L188.463 947.537L189.542 950.392Z"/>
</mask>
<path d="M189.542 950.392L190.304 952.408L192.321 951.646L191.558 949.629L189.542 950.392ZM147.344 966.345L145.328 967.107L146.09 969.124L148.107 968.361L147.344 966.345ZM146.265 963.49L145.503 961.474L143.486 962.236L144.249 964.252L146.265 963.49ZM188.463 947.537L190.479 946.774L189.717 944.758L187.7 945.52L188.463 947.537ZM188.78 948.375L146.582 964.329L148.107 968.361L190.304 952.408L188.78 948.375ZM149.361 965.583L148.281 962.728L144.249 964.252L145.328 967.107L149.361 965.583ZM147.027 965.506L189.225 949.553L187.7 945.52L145.503 961.474L147.027 965.506ZM186.446 948.299L187.526 951.154L191.558 949.629L190.479 946.774L186.446 948.299Z" fill="black" mask="url(#path-72-outside-24_1545_5081)"/>
<mask id="path-74-outside-25_1545_5081" maskUnits="userSpaceOnUse" x="132.917" y="919.198" width="50.6536" height="21.3181" fill="black">
<rect fill="white" x="132.917" y="919.198" width="50.6536" height="21.3181"/>
<path d="M180.53 925.669L136.875 937.046L136.105 934.092L179.76 922.716L180.53 925.669Z"/>
</mask>
<path d="M180.53 925.669L181.073 927.755L183.159 927.212L182.616 925.126L180.53 925.669ZM136.875 937.046L134.789 937.589L135.333 939.675L137.419 939.132L136.875 937.046ZM136.105 934.092L135.562 932.006L133.476 932.55L134.019 934.636L136.105 934.092ZM179.76 922.716L181.846 922.172L181.302 920.086L179.216 920.63L179.76 922.716ZM179.986 923.583L136.332 934.96L137.419 939.132L181.073 927.755L179.986 923.583ZM138.961 936.502L138.191 933.548L134.019 934.636L134.789 937.589L138.961 936.502ZM136.649 936.178L180.304 924.802L179.216 920.63L135.562 932.006L136.649 936.178ZM177.674 923.259L178.444 926.213L182.616 925.126L181.846 922.172L177.674 923.259Z" fill="black" mask="url(#path-74-outside-25_1545_5081)"/>
<mask id="path-76-outside-26_1545_5081" maskUnits="userSpaceOnUse" x="126.165" y="893.681" width="50.7794" height="16.2383" fill="black">
<rect fill="white" x="126.165" y="893.681" width="50.7794" height="16.2383"/>
<path d="M174.162 900.033L129.537 906.651L129.09 903.632L173.714 897.013L174.162 900.033Z"/>
</mask>
<path d="M174.162 900.033L174.478 902.165L176.61 901.849L176.294 899.717L174.162 900.033ZM129.537 906.651L127.405 906.968L127.721 909.1L129.854 908.784L129.537 906.651ZM129.09 903.632L128.773 901.5L126.641 901.816L126.957 903.948L129.09 903.632ZM173.714 897.013L175.846 896.697L175.53 894.565L173.398 894.881L173.714 897.013ZM173.846 897.9L129.221 904.519L129.854 908.784L174.478 902.165L173.846 897.9ZM131.67 906.335L131.222 903.316L126.957 903.948L127.405 906.968L131.67 906.335ZM129.406 905.764L174.03 899.146L173.398 894.881L128.773 901.5L129.406 905.764ZM171.582 897.33L172.03 900.349L176.294 899.717L175.846 896.697L171.582 897.33Z" fill="black" mask="url(#path-76-outside-26_1545_5081)"/>
<mask id="path-78-outside-27_1545_5081" maskUnits="userSpaceOnUse" x="122.794" y="868.125" width="50.3337" height="11.0909" fill="black">
<rect fill="white" x="122.794" y="868.125" width="50.3337" height="11.0909"/>
<path d="M170.629 874.287L125.556 876.181L125.428 873.131L170.501 871.238L170.629 874.287Z"/>
</mask>
<path d="M170.629 874.287L170.72 876.441L172.873 876.351L172.783 874.197L170.629 874.287ZM125.556 876.181L123.402 876.271L123.493 878.425L125.647 878.335L125.556 876.181ZM125.428 873.131L125.338 870.978L123.184 871.068L123.274 873.222L125.428 873.131ZM170.501 871.238L172.655 871.147L172.564 868.993L170.41 869.084L170.501 871.238ZM170.539 872.134L125.466 874.027L125.647 878.335L170.72 876.441L170.539 872.134ZM127.71 876.09L127.582 873.041L123.274 873.222L123.402 876.271L127.71 876.09ZM125.519 875.285L170.591 873.391L170.41 869.084L125.338 870.978L125.519 875.285ZM168.347 871.328L168.475 874.378L172.783 874.197L172.655 871.147L168.347 871.328Z" fill="black" mask="url(#path-78-outside-27_1545_5081)"/>
<mask id="path-80-outside-28_1545_5081" maskUnits="userSpaceOnUse" x="122.108" y="839.021" width="50.4762" height="12.2048" fill="black">
<rect fill="white" x="122.108" y="839.021" width="50.4762" height="12.2048"/>
<path d="M169.82 848.146L124.801 845.238L124.998 842.192L170.016 845.1L169.82 848.146Z"/>
</mask>
<path d="M169.82 848.146L169.681 850.297L171.832 850.436L171.971 848.285L169.82 848.146ZM124.801 845.238L122.65 845.099L122.511 847.25L124.662 847.389L124.801 845.238ZM124.998 842.192L125.137 840.041L122.985 839.902L122.847 842.053L124.998 842.192ZM170.016 845.1L172.168 845.239L172.307 843.088L170.155 842.949L170.016 845.1ZM169.959 845.995L124.94 843.087L124.662 847.389L169.681 850.297L169.959 845.995ZM126.952 845.377L127.149 842.331L122.847 842.053L122.65 845.099L126.952 845.377ZM124.859 844.343L169.877 847.251L170.155 842.949L125.137 840.041L124.859 844.343ZM167.865 844.961L167.669 848.007L171.971 848.285L172.168 845.239L167.865 844.961Z" fill="black" mask="url(#path-80-outside-28_1545_5081)"/>
<mask id="path-82-outside-29_1545_5081" maskUnits="userSpaceOnUse" x="124.418" y="807.54" width="50.8026" height="17.4257" fill="black">
<rect fill="white" x="124.418" y="807.54" width="50.8026" height="17.4257"/>
<path d="M171.839 821.67L127.392 813.948L127.915 810.94L172.361 818.662L171.839 821.67Z"/>
</mask>
<path d="M171.839 821.67L171.47 823.793L173.594 824.162L173.963 822.039L171.839 821.67ZM127.392 813.948L125.268 813.579L124.899 815.703L127.023 816.072L127.392 813.948ZM127.915 810.94L128.283 808.817L126.16 808.448L125.791 810.571L127.915 810.94ZM172.361 818.662L174.485 819.031L174.854 816.908L172.73 816.539L172.361 818.662ZM172.208 819.546L127.761 811.824L127.023 816.072L171.47 823.793L172.208 819.546ZM129.516 814.317L130.038 811.309L125.791 810.571L125.268 813.579L129.516 814.317ZM127.546 813.064L171.992 820.786L172.73 816.539L128.283 808.817L127.546 813.064ZM170.238 818.293L169.715 821.301L173.963 822.039L174.485 819.031L170.238 818.293Z" fill="black" mask="url(#path-82-outside-29_1545_5081)"/>
<mask id="path-84-outside-30_1545_5081" maskUnits="userSpaceOnUse" x="130.219" y="775.953" width="50.5398" height="22.4692" fill="black">
<rect fill="white" x="130.219" y="775.953" width="50.5398" height="22.4692"/>
<path d="M176.797 794.948L133.441 782.479L134.285 779.545L177.64 792.014L176.797 794.948Z"/>
</mask>
<path d="M176.797 794.948L176.201 797.019L178.273 797.615L178.868 795.543L176.797 794.948ZM133.441 782.479L131.37 781.883L130.774 783.955L132.846 784.55L133.441 782.479ZM134.285 779.545L134.881 777.474L132.809 776.878L132.213 778.95L134.285 779.545ZM177.64 792.014L179.712 792.61L180.308 790.538L178.236 789.943L177.64 792.014ZM177.393 792.876L134.037 780.407L132.846 784.55L176.201 797.019L177.393 792.876ZM135.513 783.075L136.357 780.141L132.213 778.95L131.37 781.883L135.513 783.075ZM133.689 781.617L177.045 794.086L178.236 789.943L134.881 777.474L133.689 781.617ZM175.569 791.418L174.725 794.352L178.868 795.543L179.712 792.61L175.569 791.418Z" fill="black" mask="url(#path-84-outside-30_1545_5081)"/>
<mask id="path-86-outside-31_1545_5081" maskUnits="userSpaceOnUse" x="139.342" y="745.514" width="49.6901" height="27.2411" fill="black">
<rect fill="white" x="139.342" y="745.514" width="49.6901" height="27.2411"/>
<path d="M184.536 769.142L142.774 752.081L143.929 749.255L185.691 766.316L184.536 769.142Z"/>
</mask>
<path d="M184.536 769.142L183.721 771.137L185.717 771.952L186.532 769.957L184.536 769.142ZM142.774 752.081L140.779 751.265L139.963 753.261L141.959 754.076L142.774 752.081ZM143.929 749.255L144.744 747.259L142.748 746.444L141.933 748.44L143.929 749.255ZM185.691 766.316L187.686 767.131L188.501 765.136L186.506 764.321L185.691 766.316ZM185.351 767.146L143.589 750.085L141.959 754.076L183.721 771.137L185.351 767.146ZM144.77 752.896L145.924 750.07L141.933 748.44L140.779 751.265L144.77 752.896ZM143.113 751.25L184.875 768.312L186.506 764.321L144.744 747.259L143.113 751.25ZM183.695 765.501L182.541 768.327L186.532 769.957L187.686 767.131L183.695 765.501Z" fill="black" mask="url(#path-86-outside-31_1545_5081)"/>
<mask id="path-88-outside-32_1545_5081" maskUnits="userSpaceOnUse" x="150.874" y="718.047" width="48.3364" height="31.5127" fill="black">
<rect fill="white" x="150.874" y="718.047" width="48.3364" height="31.5127"/>
<path d="M194.252 745.853L154.469 724.581L155.908 721.89L195.691 743.161L194.252 745.853Z"/>
</mask>
<path d="M194.252 745.853L193.236 747.754L195.136 748.77L196.153 746.869L194.252 745.853ZM154.469 724.581L152.568 723.565L151.552 725.466L153.453 726.482L154.469 724.581ZM155.908 721.89L156.925 719.989L155.024 718.972L154.007 720.873L155.908 721.89ZM195.691 743.161L197.592 744.178L198.609 742.277L196.708 741.26L195.691 743.161ZM195.268 743.952L155.486 722.68L153.453 726.482L193.236 747.754L195.268 743.952ZM156.37 725.598L157.809 722.906L154.007 720.873L152.568 723.565L156.37 725.598ZM154.892 723.791L194.675 745.062L196.708 741.26L156.925 719.989L154.892 723.791ZM193.79 742.145L192.351 744.836L196.153 746.869L197.592 744.178L193.79 742.145Z" fill="black" mask="url(#path-88-outside-32_1545_5081)"/>
<mask id="path-90-outside-33_1545_5081" maskUnits="userSpaceOnUse" x="166.348" y="690.193" width="46.3356" height="35.6827" fill="black">
<rect fill="white" x="166.348" y="690.193" width="46.3356" height="35.6827"/>
<path d="M207.292 722.113L170.075 696.617L171.8 694.099L209.017 719.595L207.292 722.113Z"/>
</mask>
<path d="M207.292 722.113L206.074 723.891L207.852 725.11L209.071 723.331L207.292 722.113ZM170.075 696.617L168.297 695.399L167.079 697.177L168.857 698.396L170.075 696.617ZM171.8 694.099L173.018 692.321L171.24 691.103L170.022 692.881L171.8 694.099ZM209.017 719.595L210.796 720.813L212.014 719.035L210.236 717.817L209.017 719.595ZM208.511 720.335L171.293 694.839L168.857 698.396L206.074 723.891L208.511 720.335ZM171.853 697.836L173.579 695.318L170.022 692.881L168.297 695.399L171.853 697.836ZM170.582 695.878L207.799 721.373L210.236 717.817L173.018 692.321L170.582 695.878ZM207.239 718.377L205.514 720.895L209.071 723.331L210.796 720.813L207.239 718.377Z" fill="black" mask="url(#path-90-outside-33_1545_5081)"/>
<mask id="path-92-outside-34_1545_5081" maskUnits="userSpaceOnUse" x="183.674" y="665.739" width="43.9091" height="39.2609" fill="black">
<rect fill="white" x="183.674" y="665.739" width="43.9091" height="39.2609"/>
<path d="M221.839 701.226L187.485 671.986L189.463 669.662L223.817 698.902L221.839 701.226Z"/>
</mask>
<path d="M221.839 701.226L220.442 702.868L222.083 704.265L223.48 702.623L221.839 701.226ZM187.485 671.986L185.843 670.589L184.446 672.231L186.088 673.628L187.485 671.986ZM189.463 669.662L190.86 668.02L189.219 666.623L187.822 668.265L189.463 669.662ZM223.817 698.902L225.459 700.299L226.856 698.657L225.214 697.26L223.817 698.902ZM223.236 699.584L188.882 670.345L186.088 673.628L220.442 702.868L223.236 699.584ZM189.126 673.384L191.105 671.059L187.822 668.265L185.843 670.589L189.126 673.384ZM188.066 671.304L222.42 700.543L225.214 697.26L190.86 668.02L188.066 671.304ZM222.176 697.504L220.197 699.829L223.48 702.623L225.459 700.299L222.176 697.504Z" fill="black" mask="url(#path-92-outside-34_1545_5081)"/>
<mask id="path-94-outside-35_1545_5081" maskUnits="userSpaceOnUse" x="204.321" y="642.47" width="40.9287" height="42.48" fill="black">
<rect fill="white" x="204.321" y="642.47" width="40.9287" height="42.48"/>
<path d="M239.21 681.208L208.175 648.466L210.39 646.366L241.425 679.108L239.21 681.208Z"/>
</mask>
<path d="M239.21 681.208L237.645 682.691L239.128 684.255L240.693 682.772L239.21 681.208ZM208.175 648.466L206.692 646.902L205.128 648.385L206.611 649.949L208.175 648.466ZM210.39 646.366L211.955 644.883L210.472 643.319L208.907 644.802L210.39 646.366ZM241.425 679.108L242.908 680.672L244.472 679.189L242.989 677.625L241.425 679.108ZM240.774 679.725L209.74 646.983L206.611 649.949L237.645 682.691L240.774 679.725ZM209.658 650.031L211.873 647.931L208.907 644.802L206.692 646.902L209.658 650.031ZM208.826 647.849L239.861 680.591L242.989 677.625L211.955 644.883L208.826 647.849ZM239.942 677.543L237.727 679.643L240.693 682.772L242.908 680.672L239.942 677.543Z" fill="black" mask="url(#path-94-outside-35_1545_5081)"/>
<mask id="path-96-outside-36_1545_5081" maskUnits="userSpaceOnUse" x="227.217" y="621.735" width="37.5137" height="45.1904" fill="black">
<rect fill="white" x="227.217" y="621.735" width="37.5137" height="45.1904"/>
<path d="M258.466 663.256L231.07 627.414L233.495 625.56L260.891 661.402L258.466 663.256Z"/>
</mask>
<path d="M258.466 663.256L256.753 664.565L258.062 666.278L259.775 664.969L258.466 663.256ZM231.07 627.414L229.761 625.701L228.049 627.01L229.358 628.723L231.07 627.414ZM233.495 625.56L235.208 624.251L233.899 622.539L232.186 623.848L233.495 625.56ZM260.891 661.402L262.2 663.115L263.912 661.806L262.603 660.093L260.891 661.402ZM260.178 661.947L232.783 626.105L229.358 628.723L256.753 664.565L260.178 661.947ZM232.379 629.127L234.804 627.273L232.186 623.848L229.761 625.701L232.379 629.127ZM231.783 626.869L259.178 662.711L262.603 660.093L235.208 624.251L231.783 626.869ZM259.582 659.69L257.157 661.543L259.775 664.969L262.2 663.115L259.582 659.69Z" fill="black" mask="url(#path-96-outside-36_1545_5081)"/>
<mask id="path-98-outside-37_1545_5081" maskUnits="userSpaceOnUse" x="252.191" y="603.665" width="33.6982" height="47.3831" fill="black">
<rect fill="white" x="252.191" y="603.665" width="33.6982" height="47.3831"/>
<path d="M279.47 647.492L256.001 608.965L258.607 607.377L282.077 645.904L279.47 647.492Z"/>
</mask>
<path d="M279.47 647.492L277.629 648.613L278.751 650.454L280.592 649.333L279.47 647.492ZM256.001 608.965L254.879 607.124L253.038 608.245L254.16 610.086L256.001 608.965ZM258.607 607.377L260.448 606.255L259.327 604.414L257.486 605.536L258.607 607.377ZM282.077 645.904L283.198 647.745L285.039 646.623L283.918 644.782L282.077 645.904ZM281.311 646.37L257.842 607.843L254.16 610.086L277.629 648.613L281.311 646.37ZM257.122 610.805L259.729 609.217L257.486 605.536L254.879 607.124L257.122 610.805ZM256.766 608.498L280.236 647.025L283.918 644.782L260.448 606.255L256.766 608.498ZM280.955 644.063L278.349 645.651L280.592 649.333L283.198 647.745L280.955 644.063Z" fill="black" mask="url(#path-98-outside-37_1545_5081)"/>
<mask id="path-100-outside-38_1545_5081" maskUnits="userSpaceOnUse" x="278.974" y="588.373" width="29.5104" height="49.0485" fill="black">
<rect fill="white" x="278.974" y="588.373" width="29.5104" height="49.0485"/>
<path d="M301.982 634.019L282.697 593.236L285.457 591.931L304.742 632.714L301.982 634.019Z"/>
</mask>
<path d="M301.982 634.019L300.033 634.94L300.955 636.889L302.904 635.967L301.982 634.019ZM282.697 593.236L281.776 591.287L279.827 592.208L280.749 594.157L282.697 593.236ZM285.457 591.931L287.405 591.009L286.484 589.061L284.535 589.982L285.457 591.931ZM304.742 632.714L305.663 634.662L307.612 633.741L306.69 631.792L304.742 632.714ZM303.931 633.097L284.646 592.314L280.749 594.157L300.033 634.94L303.931 633.097ZM283.619 595.184L286.378 593.88L284.535 589.982L281.776 591.287L283.619 595.184ZM283.508 592.852L302.793 633.635L306.69 631.792L287.405 591.009L283.508 592.852ZM303.82 630.765L301.061 632.07L302.904 635.967L305.663 634.662L303.82 630.765Z" fill="black" mask="url(#path-100-outside-38_1545_5081)"/>
<mask id="path-102-outside-39_1545_5081" maskUnits="userSpaceOnUse" x="307.4" y="575.984" width="24.9749" height="50.1728" fill="black">
<rect fill="white" x="307.4" y="575.984" width="24.9749" height="50.1728"/>
<path d="M325.862 622.945L310.995 580.353L313.877 579.347L328.744 621.94L325.862 622.945Z"/>
</mask>
<path d="M325.862 622.945L323.827 623.656L324.537 625.691L326.572 624.981L325.862 622.945ZM310.995 580.353L310.285 578.318L308.249 579.028L308.96 581.063L310.995 580.353ZM313.877 579.347L315.912 578.637L315.202 576.601L313.166 577.312L313.877 579.347ZM328.744 621.94L329.454 623.975L331.489 623.264L330.779 621.229L328.744 621.94ZM327.897 622.235L313.03 579.643L308.96 581.063L323.827 623.656L327.897 622.235ZM311.705 582.388L314.587 581.382L313.166 577.312L310.285 578.318L311.705 582.388ZM311.842 580.057L326.709 622.65L330.779 621.229L315.912 578.637L311.842 580.057ZM328.033 619.904L325.152 620.91L326.572 624.981L329.454 623.975L328.033 619.904Z" fill="black" mask="url(#path-102-outside-39_1545_5081)"/>
<mask id="path-104-outside-40_1545_5081" maskUnits="userSpaceOnUse" x="337.32" y="566.65" width="20.1178" height="50.7376" fill="black">
<rect fill="white" x="337.32" y="566.65" width="20.1178" height="50.7376"/>
<path d="M350.989 614.406L340.745 570.471L343.718 569.778L353.961 613.713L350.989 614.406Z"/>
</mask>
<path d="M350.989 614.406L348.889 614.895L349.379 616.994L351.478 616.505L350.989 614.406ZM340.745 570.471L340.256 568.372L338.157 568.861L338.646 570.961L340.745 570.471ZM343.718 569.778L345.817 569.289L345.328 567.189L343.229 567.679L343.718 569.778ZM353.961 613.713L354.451 615.812L356.55 615.322L356.06 613.223L353.961 613.713ZM353.088 613.916L342.845 569.982L338.646 570.961L348.889 614.895L353.088 613.916ZM341.235 572.571L344.207 571.877L343.229 567.679L340.256 568.372L341.235 572.571ZM341.619 570.268L351.862 614.202L356.06 613.223L345.817 569.289L341.619 570.268ZM353.472 611.613L350.499 612.306L351.478 616.505L354.451 615.812L353.472 611.613Z" fill="black" mask="url(#path-104-outside-40_1545_5081)"/>
<mask id="path-106-outside-41_1545_5081" maskUnits="userSpaceOnUse" x="368.617" y="560.544" width="14.972" height="50.7209" fill="black">
<rect fill="white" x="368.617" y="560.544" width="14.972" height="50.7209"/>
<path d="M377.278 608.55L371.83 563.768L374.86 563.399L380.308 608.181L377.278 608.55Z"/>
</mask>
<path d="M377.278 608.55L375.138 608.81L375.398 610.95L377.538 610.69L377.278 608.55ZM371.83 563.768L371.57 561.628L369.43 561.888L369.69 564.028L371.83 563.768ZM374.86 563.399L377 563.139L376.74 560.999L374.6 561.259L374.86 563.399ZM380.308 608.181L380.568 610.321L382.708 610.061L382.448 607.921L380.308 608.181ZM379.418 608.29L373.97 563.507L369.69 564.028L375.138 608.81L379.418 608.29ZM372.09 565.907L375.12 565.539L374.6 561.259L371.57 561.628L372.09 565.907ZM372.72 563.659L378.168 608.442L382.448 607.921L377 563.139L372.72 563.659ZM380.047 606.042L377.017 606.41L377.538 610.69L380.568 610.321L380.047 606.042Z" fill="black" mask="url(#path-106-outside-41_1545_5081)"/>
<mask id="path-108-outside-42_1545_5081" maskUnits="userSpaceOnUse" x="399.015" y="557.926" width="9.77257" height="50.1333" fill="black">
<rect fill="white" x="399.015" y="557.926" width="9.77257" height="50.1333"/>
<path d="M402.683 605.637L401.985 560.529L405.037 560.482L405.735 605.589L402.683 605.637Z"/>
</mask>
<path d="M402.683 605.637L400.528 605.67L400.561 607.825L402.717 607.792L402.683 605.637ZM401.985 560.529L401.952 558.374L399.797 558.407L399.83 560.563L401.985 560.529ZM405.037 560.482L407.193 560.449L407.159 558.293L405.004 558.327L405.037 560.482ZM405.735 605.589L405.769 607.745L407.924 607.711L407.891 605.556L405.735 605.589ZM404.839 605.603L404.141 560.496L399.83 560.563L400.528 605.67L404.839 605.603ZM402.019 562.685L405.071 562.638L405.004 558.327L401.952 558.374L402.019 562.685ZM402.882 560.516L403.58 605.623L407.891 605.556L407.193 560.449L402.882 560.516ZM405.702 603.434L402.65 603.481L402.717 607.792L405.769 607.745L405.702 603.434Z" fill="black" mask="url(#path-108-outside-42_1545_5081)"/>
<mask id="path-110-outside-43_1545_5081" maskUnits="userSpaceOnUse" x="425.864" y="557.743" width="13.5217" height="50.6124" fill="black">
<rect fill="white" x="425.864" y="557.743" width="13.5217" height="50.6124"/>
<path d="M429 605.434L433.114 560.509L436.154 560.787L432.04 605.712L429 605.434Z"/>
</mask>
<path d="M429 605.434L426.854 605.237L426.657 607.384L428.804 607.58L429 605.434ZM433.114 560.509L433.311 558.362L431.164 558.166L430.967 560.312L433.114 560.509ZM436.154 560.787L438.3 560.984L438.497 558.837L436.35 558.641L436.154 560.787ZM432.04 605.712L431.844 607.859L433.99 608.055L434.187 605.909L432.04 605.712ZM431.147 605.63L435.261 560.706L430.967 560.312L426.854 605.237L431.147 605.63ZM432.917 562.656L435.957 562.934L436.35 558.641L433.311 558.362L432.917 562.656ZM434.007 560.591L429.893 605.516L434.187 605.909L438.3 560.984L434.007 560.591ZM432.237 603.565L429.197 603.287L428.804 607.58L431.844 607.859L432.237 603.565Z" fill="black" mask="url(#path-110-outside-43_1545_5081)"/>
<mask id="path-112-outside-44_1545_5081" maskUnits="userSpaceOnUse" x="452.834" y="560.95" width="18.7068" height="50.7924" fill="black">
<rect fill="white" x="452.834" y="560.95" width="18.7068" height="50.7924"/>
<path d="M456.178 608.211L465.096 563.989L468.088 564.592L459.17 608.815L456.178 608.211Z"/>
</mask>
<path d="M456.178 608.211L454.065 607.785L453.639 609.898L455.752 610.324L456.178 608.211ZM465.096 563.989L465.522 561.876L463.409 561.45L462.983 563.563L465.096 563.989ZM468.088 564.592L470.201 565.019L470.627 562.906L468.514 562.479L468.088 564.592ZM459.17 608.815L458.744 610.928L460.857 611.354L461.283 609.241L459.17 608.815ZM458.291 608.638L467.209 564.415L462.983 563.563L454.065 607.785L458.291 608.638ZM464.67 566.102L467.662 566.706L468.514 562.479L465.522 561.876L464.67 566.102ZM465.975 564.166L457.057 608.389L461.283 609.241L470.201 565.019L465.975 564.166ZM459.596 606.702L456.604 606.098L455.752 610.324L458.744 610.928L459.596 606.702Z" fill="black" mask="url(#path-112-outside-44_1545_5081)"/>
<mask id="path-114-outside-45_1545_5081" maskUnits="userSpaceOnUse" x="479.262" y="567.596" width="23.6911" height="50.3818" fill="black">
<rect fill="white" x="479.262" y="567.596" width="23.6911" height="50.3818"/>
<path d="M482.775 613.877L496.41 570.875L499.32 571.797L485.685 614.8L482.775 613.877Z"/>
</mask>
<path d="M482.775 613.877L480.721 613.226L480.069 615.281L482.124 615.932L482.775 613.877ZM496.41 570.875L497.062 568.82L495.007 568.168L494.355 570.223L496.41 570.875ZM499.32 571.797L501.375 572.449L502.026 570.394L499.971 569.742L499.32 571.797ZM485.685 614.8L485.034 616.855L487.088 617.506L487.74 615.451L485.685 614.8ZM484.83 614.529L498.465 571.526L494.355 570.223L480.721 613.226L484.83 614.529ZM495.759 572.929L498.668 573.852L499.971 569.742L497.062 568.82L495.759 572.929ZM497.265 571.146L483.63 614.148L487.74 615.451L501.375 572.449L497.265 571.146ZM486.337 612.745L483.427 611.823L482.124 615.932L485.034 616.855L486.337 612.745Z" fill="black" mask="url(#path-114-outside-45_1545_5081)"/>
<mask id="path-116-outside-46_1545_5081" maskUnits="userSpaceOnUse" x="503.191" y="576.839" width="28.2204" height="49.4336" fill="black">
<rect fill="white" x="503.191" y="576.839" width="28.2204" height="49.4336"/>
<path d="M506.829 621.668L524.846 580.31L527.645 581.529L509.627 622.888L506.829 621.668Z"/>
</mask>
<path d="M506.829 621.668L504.853 620.808L503.992 622.784L505.968 623.645L506.829 621.668ZM524.846 580.31L525.707 578.334L523.731 577.473L522.87 579.449L524.846 580.31ZM527.645 581.529L529.621 582.39L530.482 580.414L528.506 579.553L527.645 581.529ZM509.627 622.888L508.766 624.864L510.743 625.725L511.603 623.748L509.627 622.888ZM508.805 622.529L526.823 581.171L522.87 579.449L504.853 620.808L508.805 622.529ZM523.985 582.286L526.784 583.505L528.506 579.553L525.707 578.334L523.985 582.286ZM525.668 580.668L507.651 622.027L511.603 623.748L529.621 582.39L525.668 580.668ZM510.488 620.911L507.69 619.692L505.968 623.645L508.766 624.864L510.488 620.911Z" fill="black" mask="url(#path-116-outside-46_1545_5081)"/>
<mask id="path-118-outside-47_1545_5081" maskUnits="userSpaceOnUse" x="527.145" y="589.503" width="32.5607" height="47.9037" fill="black">
<rect fill="white" x="527.145" y="589.503" width="32.5607" height="47.9037"/>
<path d="M530.869 632.338L553.19 593.135L555.843 594.645L533.522 633.848L530.869 632.338Z"/>
</mask>
<path d="M530.869 632.338L528.996 631.271L527.929 633.145L529.802 634.211L530.869 632.338ZM553.19 593.135L554.257 591.261L552.384 590.195L551.317 592.068L553.19 593.135ZM555.843 594.645L557.716 595.711L558.783 593.838L556.909 592.772L555.843 594.645ZM533.522 633.848L532.455 635.722L534.328 636.788L535.395 634.915L533.522 633.848ZM532.742 633.405L555.064 594.201L551.317 592.068L528.996 631.271L532.742 633.405ZM552.124 595.008L554.776 596.518L556.909 592.772L554.257 591.261L552.124 595.008ZM553.97 593.578L531.648 632.782L535.395 634.915L557.716 595.711L553.97 593.578ZM534.588 631.975L531.936 630.465L529.802 634.211L532.455 635.722L534.588 631.975Z" fill="black" mask="url(#path-118-outside-47_1545_5081)"/>
<mask id="path-120-outside-48_1545_5081" maskUnits="userSpaceOnUse" x="550.839" y="605.901" width="36.6196" height="45.7728" fill="black">
<rect fill="white" x="550.839" y="605.901" width="36.6196" height="45.7728"/>
<path d="M554.608 646.188L581.072 609.653L583.544 611.443L557.08 647.978L554.608 646.188Z"/>
</mask>
<path d="M554.608 646.188L552.862 644.923L551.598 646.669L553.343 647.934L554.608 646.188ZM581.072 609.653L582.336 607.907L580.591 606.642L579.326 608.388L581.072 609.653ZM583.544 611.443L585.29 612.708L586.554 610.962L584.808 609.698L583.544 611.443ZM557.08 647.978L555.815 649.724L557.561 650.989L558.826 649.243L557.08 647.978ZM556.354 647.452L582.818 610.917L579.326 608.388L552.862 644.923L556.354 647.452ZM579.807 611.398L582.279 613.189L584.808 609.698L582.336 607.907L579.807 611.398ZM581.798 610.179L555.334 646.714L558.826 649.243L585.29 612.708L581.798 610.179ZM558.345 646.233L555.873 644.442L553.343 647.934L555.815 649.724L558.345 646.233Z" fill="black" mask="url(#path-120-outside-48_1545_5081)"/>
<mask id="path-122-outside-49_1545_5081" maskUnits="userSpaceOnUse" x="571.087" y="623.629" width="40.0839" height="43.2316" fill="black">
<rect fill="white" x="571.087" y="623.629" width="40.0839" height="43.2316"/>
<path d="M574.857 661.039L604.978 627.454L607.25 629.492L577.13 663.077L574.857 661.039Z"/>
</mask>
<path d="M574.857 661.039L573.253 659.599L571.813 661.204L573.418 662.643L574.857 661.039ZM604.978 627.454L606.417 625.85L604.813 624.41L603.373 626.015L604.978 627.454ZM607.25 629.492L608.855 630.932L610.294 629.327L608.69 627.888L607.25 629.492ZM577.13 663.077L575.69 664.681L577.295 666.121L578.734 664.516L577.13 663.077ZM576.462 662.478L606.583 628.894L603.373 626.015L573.253 659.599L576.462 662.478ZM603.539 629.059L605.811 631.097L608.69 627.888L606.417 625.85L603.539 629.059ZM605.646 628.053L575.525 661.637L578.734 664.516L608.855 630.932L605.646 628.053ZM578.569 661.472L576.297 659.434L573.418 662.643L575.69 664.681L578.569 661.472Z" fill="black" mask="url(#path-122-outside-49_1545_5081)"/>
<mask id="path-124-outside-50_1545_5081" maskUnits="userSpaceOnUse" x="590.797" y="644.925" width="43.1812" height="40.1428" fill="black">
<rect fill="white" x="590.797" y="644.925" width="43.1812" height="40.1428"/>
<path d="M594.526 678.967L628.053 648.782L630.095 651.051L596.568 681.235L594.526 678.967Z"/>
</mask>
<path d="M594.526 678.967L593.084 677.364L591.482 678.807L592.924 680.409L594.526 678.967ZM628.053 648.782L629.655 647.34L628.213 645.738L626.611 647.18L628.053 648.782ZM630.095 651.051L631.538 652.653L633.14 651.211L631.697 649.609L630.095 651.051ZM596.568 681.235L594.966 682.677L596.408 684.279L598.011 682.837L596.568 681.235ZM595.968 680.569L629.495 650.384L626.611 647.18L593.084 677.364L595.968 680.569ZM626.451 650.225L628.493 652.493L631.697 649.609L629.655 647.34L626.451 650.225ZM628.653 649.449L595.126 679.633L598.011 682.837L631.538 652.653L628.653 649.449ZM598.17 679.793L596.128 677.524L592.924 680.409L594.966 682.677L598.17 679.793Z" fill="black" mask="url(#path-124-outside-50_1545_5081)"/>
<mask id="path-126-outside-51_1545_5081" maskUnits="userSpaceOnUse" x="608.415" y="668.432" width="45.7674" height="36.6282" fill="black">
<rect fill="white" x="608.415" y="668.432" width="45.7674" height="36.6282"/>
<path d="M612.061 698.751L648.59 672.278L650.381 674.75L613.852 701.223L612.061 698.751Z"/>
</mask>
<path d="M612.061 698.751L610.796 697.006L609.051 698.271L610.316 700.016L612.061 698.751ZM648.59 672.278L650.335 671.013L649.07 669.268L647.325 670.533L648.59 672.278ZM650.381 674.75L651.646 676.495L653.391 675.23L652.126 673.485L650.381 674.75ZM613.852 701.223L612.107 702.488L613.372 704.233L615.117 702.968L613.852 701.223ZM613.326 700.497L649.855 674.024L647.325 670.533L610.796 697.006L613.326 700.497ZM646.844 673.543L648.636 676.015L652.126 673.485L650.335 671.013L646.844 673.543ZM649.116 673.005L612.587 699.477L615.117 702.968L651.646 676.495L649.116 673.005ZM615.598 699.958L613.807 697.486L610.316 700.016L612.107 702.488L615.598 699.958Z" fill="black" mask="url(#path-126-outside-51_1545_5081)"/>
<mask id="path-128-outside-52_1545_5081" maskUnits="userSpaceOnUse" x="623.825" y="693.934" width="47.8338" height="32.7205" fill="black">
<rect fill="white" x="623.825" y="693.934" width="47.8338" height="32.7205"/>
<path d="M627.348 720.208L666.459 697.726L667.98 700.372L628.869 722.854L627.348 720.208Z"/>
</mask>
<path d="M627.348 720.208L626.274 718.339L624.405 719.413L625.479 721.282L627.348 720.208ZM666.459 697.726L668.328 696.652L667.254 694.783L665.385 695.857L666.459 697.726ZM667.98 700.372L669.055 702.241L670.924 701.167L669.849 699.298L667.98 700.372ZM628.869 722.854L627 723.929L628.074 725.797L629.943 724.723L628.869 722.854ZM628.422 722.077L667.533 699.595L665.385 695.857L626.274 718.339L628.422 722.077ZM664.59 698.8L666.112 701.446L669.849 699.298L668.328 696.652L664.59 698.8ZM666.906 698.503L627.795 720.986L629.943 724.723L669.055 702.241L666.906 698.503ZM630.738 721.78L629.217 719.134L625.479 721.282L627 723.929L630.738 721.78Z" fill="black" mask="url(#path-128-outside-52_1545_5081)"/>
<mask id="path-130-outside-53_1545_5081" maskUnits="userSpaceOnUse" x="636.958" y="721.25" width="49.37" height="28.4466" fill="black">
<rect fill="white" x="636.958" y="721.25" width="49.37" height="28.4466"/>
<path d="M640.319 743.185L681.58 724.946L682.814 727.738L641.553 745.976L640.319 743.185Z"/>
</mask>
<path d="M640.319 743.185L639.447 741.213L637.476 742.085L638.347 744.056L640.319 743.185ZM681.58 724.946L683.551 724.074L682.68 722.103L680.708 722.974L681.58 724.946ZM682.814 727.738L683.685 729.709L685.657 728.838L684.786 726.866L682.814 727.738ZM641.553 745.976L639.581 746.848L640.453 748.82L642.424 747.948L641.553 745.976ZM641.19 745.156L682.451 726.917L680.708 722.974L639.447 741.213L641.19 745.156ZM679.608 725.817L680.842 728.609L684.786 726.866L683.551 724.074L679.608 725.817ZM681.942 725.766L640.681 744.005L642.424 747.948L683.685 729.709L681.942 725.766ZM643.524 745.105L642.29 742.313L638.347 744.056L639.581 746.848L643.524 745.105Z" fill="black" mask="url(#path-130-outside-53_1545_5081)"/>
<mask id="path-132-outside-54_1545_5081" maskUnits="userSpaceOnUse" x="647.639" y="750.168" width="50.3612" height="23.8309" fill="black">
<rect fill="white" x="647.639" y="750.168" width="50.3612" height="23.8309"/>
<path d="M650.798 767.494L693.758 753.725L694.69 756.632L651.73 770.401L650.798 767.494Z"/>
</mask>
<path d="M650.798 767.494L650.14 765.441L648.088 766.099L648.745 768.152L650.798 767.494ZM693.758 753.725L695.811 753.068L695.153 751.015L693.1 751.673L693.758 753.725ZM694.69 756.632L695.348 758.685L697.401 758.027L696.743 755.974L694.69 756.632ZM651.73 770.401L649.677 771.059L650.335 773.111L652.388 772.454L651.73 770.401ZM651.456 769.547L694.416 755.778L693.1 751.673L650.14 765.441L651.456 769.547ZM691.706 754.383L692.637 757.29L696.743 755.974L695.811 753.068L691.706 754.383ZM694.032 754.579L651.072 768.348L652.388 772.454L695.348 758.685L694.032 754.579ZM653.783 769.743L652.851 766.836L648.745 768.152L649.677 771.059L653.783 769.743Z" fill="black" mask="url(#path-132-outside-54_1545_5081)"/>
<mask id="path-134-outside-55_1545_5081" maskUnits="userSpaceOnUse" x="655.78" y="780.477" width="50.7876" height="18.9006" fill="black">
<rect fill="white" x="655.78" y="780.477" width="50.7876" height="18.9006"/>
<path d="M658.701 792.955L702.886 783.855L703.502 786.844L659.316 795.944L658.701 792.955Z"/>
</mask>
<path d="M658.701 792.955L658.266 790.843L656.154 791.278L656.589 793.389L658.701 792.955ZM702.886 783.855L704.997 783.42L704.562 781.309L702.451 781.744L702.886 783.855ZM703.502 786.844L703.936 788.956L706.048 788.521L705.613 786.41L703.502 786.844ZM659.316 795.944L657.205 796.379L657.64 798.49L659.751 798.056L659.316 795.944ZM659.135 795.066L703.321 785.966L702.451 781.744L658.266 790.843L659.135 795.066ZM700.775 784.29L701.39 787.279L705.613 786.41L704.997 783.42L700.775 784.29ZM703.067 784.733L658.881 793.833L659.751 798.056L703.936 788.956L703.067 784.733ZM661.428 795.509L660.812 792.52L656.589 793.389L657.205 796.379L661.428 795.509Z" fill="black" mask="url(#path-134-outside-55_1545_5081)"/>
<mask id="path-136-outside-56_1545_5081" maskUnits="userSpaceOnUse" x="661.195" y="811.922" width="50.6273" height="13.6914" fill="black">
<rect fill="white" x="661.195" y="811.922" width="50.6273" height="13.6914"/>
<path d="M663.839 819.347L708.75 815.078L709.038 818.117L664.128 822.386L663.839 819.347Z"/>
</mask>
<path d="M663.839 819.347L663.635 817.201L661.489 817.405L661.693 819.551L663.839 819.347ZM708.75 815.078L710.895 814.874L710.691 812.728L708.546 812.932L708.75 815.078ZM709.038 818.117L709.242 820.263L711.388 820.059L711.184 817.913L709.038 818.117ZM664.128 822.386L661.982 822.59L662.186 824.736L664.332 824.532L664.128 822.386ZM664.043 821.493L708.954 817.224L708.546 812.932L663.635 817.201L664.043 821.493ZM706.604 815.282L706.892 818.321L711.184 817.913L710.895 814.874L706.604 815.282ZM708.834 815.971L663.924 820.24L664.332 824.532L709.242 820.263L708.834 815.971ZM666.274 822.182L665.985 819.143L661.693 819.551L661.982 822.59L666.274 822.182Z" fill="black" mask="url(#path-136-outside-56_1545_5081)"/>
<mask id="path-138-outside-57_1545_5081" maskUnits="userSpaceOnUse" x="663.61" y="842.29" width="50.097" height="9.5553" fill="black">
<rect fill="white" x="663.61" y="842.29" width="50.097" height="9.5553"/>
<path d="M666.055 845.248L711.165 845.75L711.131 848.802L666.021 848.301L666.055 845.248Z"/>
</mask>
<path d="M666.055 845.248L666.079 843.093L663.923 843.069L663.9 845.224L666.055 845.248ZM711.165 845.75L713.32 845.774L713.344 843.618L711.189 843.594L711.165 845.75ZM711.131 848.802L711.107 850.958L713.262 850.982L713.286 848.826L711.131 848.802ZM666.021 848.301L663.866 848.277L663.842 850.432L665.997 850.456L666.021 848.301ZM666.031 847.404L711.141 847.905L711.189 843.594L666.079 843.093L666.031 847.404ZM709.009 845.726L708.975 848.778L713.286 848.826L713.32 845.774L709.009 845.726ZM711.155 846.647L666.045 846.145L665.997 850.456L711.107 850.958L711.155 846.647ZM668.177 848.325L668.21 845.272L663.9 845.224L663.866 848.277L668.177 848.325Z" fill="black" mask="url(#path-138-outside-57_1545_5081)"/>
<mask id="path-140-outside-58_1545_5081" maskUnits="userSpaceOnUse" x="662.409" y="868.558" width="50.7123" height="14.8318" fill="black">
<rect fill="white" x="662.409" y="868.558" width="50.7123" height="14.8318"/>
<path d="M665.486 871.75L710.284 877.068L709.924 880.099L665.126 874.781L665.486 871.75Z"/>
</mask>
<path d="M665.486 871.75L665.74 869.609L663.6 869.355L663.345 871.496L665.486 871.75ZM710.284 877.068L712.425 877.322L712.679 875.182L710.538 874.927L710.284 877.068ZM709.924 880.099L709.67 882.24L711.811 882.494L712.065 880.353L709.924 880.099ZM665.126 874.781L662.986 874.527L662.731 876.667L664.872 876.921L665.126 874.781ZM665.232 873.89L710.03 879.209L710.538 874.927L665.74 869.609L665.232 873.89ZM708.144 876.814L707.784 879.845L712.065 880.353L712.425 877.322L708.144 876.814ZM710.178 877.958L665.38 872.64L664.872 876.921L709.67 882.24L710.178 877.958ZM667.267 875.035L667.627 872.004L663.345 871.496L662.986 874.527L667.267 875.035Z" fill="black" mask="url(#path-140-outside-58_1545_5081)"/>
<mask id="path-142-outside-59_1545_5081" maskUnits="userSpaceOnUse" x="658.501" y="894.186" width="50.7543" height="19.795" fill="black">
<rect fill="white" x="658.501" y="894.186" width="50.7543" height="19.795"/>
<path d="M662.157 897.57L706.161 907.51L705.489 910.487L661.485 900.548L662.157 897.57Z"/>
</mask>
<path d="M662.157 897.57L662.632 895.468L660.53 894.993L660.055 897.095L662.157 897.57ZM706.161 907.51L708.264 907.984L708.739 905.882L706.636 905.407L706.161 907.51ZM705.489 910.487L705.014 912.59L707.117 913.064L707.592 910.962L705.489 910.487ZM661.485 900.548L659.382 900.073L658.907 902.175L661.01 902.65L661.485 900.548ZM661.682 899.673L705.686 909.612L706.636 905.407L662.632 895.468L661.682 899.673ZM704.059 907.035L703.386 910.012L707.592 910.962L708.264 907.984L704.059 907.035ZM705.964 908.384L661.96 898.445L661.01 902.65L705.014 912.59L705.964 908.384ZM663.587 901.022L664.26 898.045L660.055 897.095L659.382 900.073L663.587 901.022Z" fill="black" mask="url(#path-142-outside-59_1545_5081)"/>
<line x1="460.619" y1="697" x2="439.518" y2="779.927" stroke="black" stroke-width="2.15561"/>
<line x1="405.355" y1="914.19" x2="384.254" y2="997.116" stroke="black" stroke-width="2.15561"/>
<line x1="351.053" y1="825.803" x2="268.126" y2="804.702" stroke="black" stroke-width="2.15561"/>
<line x1="579.08" y1="888.028" x2="496.154" y2="866.927" stroke="black" stroke-width="2.15561"/>
<line x1="460.619" y1="857.885" x2="377.692" y2="836.784" stroke="black" stroke-width="2.15561"/>
<line x1="414.248" y1="887.022" x2="435.349" y2="804.096" stroke="black" stroke-width="2.15561"/>
<path d="M523.391 705.64L716.316 454.449" stroke="black" stroke-width="4.31122"/>
<circle cx="850.13" cy="273.853" r="223.106" transform="rotate(14.2761 850.13 273.853)" stroke="black" stroke-width="4.31122"/>
</svg>
